<svg width="79" height="101" viewBox="0 0 79 101" fill="none" xmlns="http://www.w3.org/2000/svg">
<path d="M38.3007 0.458702C37.4034 1.02689 28.7742 11.2888 24.4023 16.988C16.9567 26.6989 12.5848 33.2245 8.34656 40.9209C0.232794 55.7112 -1.40905 65.6631 2.46647 76.5277C4.54741 82.3301 8.76656 87.9948 13.9403 91.9377C20.2786 96.776 28.0296 99.617 36.5252 100.237C39.2361 100.443 41.6607 100.357 44.8299 99.9785C57.9455 98.36 69.3812 90.6636 74.7649 79.8335C78.0867 73.1357 79.0222 66.1108 77.5522 59.1203C75.7958 50.7179 71.1757 41.1275 63.2911 29.471C59.6637 24.099 52.7909 14.9562 48.8581 10.2729C44.238 4.74598 40.8589 0.871933 40.4198 0.562012C39.828 0.131561 38.8734 0.0971298 38.3007 0.458702ZM40.3243 5.84792C52.2182 19.6912 60.6947 31.3133 66.4984 41.6957C70.3548 48.6346 72.3594 53.4039 73.6194 58.8276C74.1921 61.2898 74.2112 61.5997 74.2303 65.4565C74.2303 70.0021 73.963 71.7239 72.6648 75.2708C69.2666 84.5512 60.9619 92.0927 50.8054 95.1403C47.2926 96.1906 44.5244 96.621 40.6107 96.7416C35.6088 96.8793 32.3251 96.4661 27.7241 95.0714C20.5268 92.9192 13.8257 88.2187 9.85476 82.5367C5.10105 75.7529 3.40194 68.4008 4.73832 60.3772C6.43744 50.1842 14.1885 36.1688 27.9341 18.4515C31.2942 14.1125 39.0261 4.84928 39.2743 4.84928C39.3889 4.84928 39.8661 5.29695 40.3243 5.84792Z" fill="#27AE60"/>
<path d="M38.3391 39.9567C38.1291 40.0428 37.7854 40.2839 37.5754 40.4905C37.2318 40.8176 37.1745 41.1792 37.0981 43.4692L37.0027 46.0691L35.2654 44.7433C32.8217 42.901 32.2681 42.7633 31.1417 43.7275C30.6071 44.1579 30.4353 45.036 30.7217 45.7075C30.779 45.8453 32.2299 47.0333 33.9672 48.3419L37.0981 50.7008V55.7801V60.8421L36.4872 60.4978C36.1436 60.3084 34.1008 59.2409 31.9435 58.1389C29.7862 57.0197 27.8962 56.0039 27.7244 55.8661C27.4953 55.694 27.3044 54.8158 26.9989 52.7497C26.7698 51.1656 26.5407 49.6332 26.4834 49.3405C26.388 48.6862 25.5289 47.9287 24.7843 47.8081C24.0588 47.6876 23.047 48.2214 22.7606 48.8929C22.6079 49.22 22.627 49.9087 22.7797 51.3034C22.9134 52.3709 22.9706 53.2834 22.9325 53.3351C22.8752 53.3695 21.8061 52.8702 20.5652 52.1987C18.6178 51.1484 18.1978 50.9762 17.6442 51.0623C16.6324 51.2001 16.0024 51.8716 16.0024 52.7841C16.0024 53.1801 16.1169 53.645 16.2696 53.8C16.4033 53.9722 17.5487 54.6437 18.7897 55.2979C20.0497 55.9694 21.0615 56.5376 21.0615 56.5721C21.0615 56.6065 20.1451 56.9337 19.0188 57.2952C16.5942 58.07 16.0978 58.4316 16.0978 59.4303C16.0978 60.3428 16.8996 61.1521 17.7969 61.1521C18.1215 61.1521 19.9351 60.6527 21.8443 60.0329C23.7534 59.3958 25.4525 58.9137 25.6243 58.9482C26.1398 59.0342 34.8072 63.6314 34.7881 63.8208C34.7881 63.9069 32.7263 65.0605 30.1871 66.3519L25.5861 68.728L22.1306 67.5744C18.0833 66.2314 17.4533 66.1625 16.6515 66.9717C15.9069 67.7121 15.8878 68.573 16.6324 69.2273C16.9187 69.4855 17.7969 69.916 18.5797 70.1915C19.3624 70.4498 20.2597 70.7597 20.5652 70.863L21.1379 71.0696L19.0379 72.1543C17.8924 72.757 16.766 73.4112 16.5369 73.6006C15.5633 74.3754 15.926 75.9423 17.1669 76.4072C18.0451 76.7343 18.446 76.6138 20.9088 75.2536C21.9397 74.6682 22.837 74.2377 22.8943 74.2894C22.9516 74.341 22.8943 75.2708 22.7606 76.3727C22.5315 78.3011 22.5315 78.3872 22.8943 78.8521C23.5243 79.5925 24.2116 79.8335 25.0898 79.5925C26.1589 79.2998 26.4071 78.8177 26.7125 76.5449C26.8462 75.4257 27.0753 73.9106 27.1898 73.153C27.3998 71.81 27.4189 71.7928 28.2016 71.3795C30.7026 70.0365 36.6209 66.9889 36.9454 66.8684C37.0409 66.834 37.0981 69.0551 37.0981 71.7928V76.786L34.0436 79.1448C32.3635 80.4362 30.9126 81.6242 30.798 81.8136C30.5499 82.2268 30.5499 83.1222 30.798 83.5526C31.1035 84.0519 32.0962 84.448 32.7644 84.3274C33.089 84.2758 34.139 83.6387 35.0936 82.9328C36.0672 82.2268 36.9072 81.6414 36.9836 81.6414C37.0409 81.6414 37.0981 82.6917 37.0981 83.9659C37.0981 87.0306 37.4609 87.7021 39.1027 87.7021C40.7255 87.7021 41.1073 86.9618 41.1073 83.8798C41.1073 82.6573 41.1646 81.6414 41.2218 81.6414C41.2791 81.6414 42.0428 82.1924 42.921 82.8467C44.7155 84.2069 45.3074 84.4652 46.2047 84.3102C47.3119 84.1208 47.9801 82.7778 47.4265 81.8308C47.331 81.6759 45.861 80.505 44.181 79.2481C42.4819 77.974 41.1073 76.8893 41.1073 76.8376C41.0118 73.9794 41.0118 66.834 41.1073 66.834C41.2218 66.834 50.462 71.6034 50.6338 71.7583C50.672 71.7928 50.9393 73.3252 51.2256 75.1675C51.7602 78.8005 51.9511 79.2481 53.0202 79.5753C53.8793 79.8335 54.9102 79.4547 55.3112 78.7488C55.5784 78.2839 55.5784 78.0257 55.3302 76.2866C55.1775 75.2191 55.0821 74.3238 55.1393 74.2721C55.1775 74.2377 56.1894 74.7198 57.373 75.3741C59.9694 76.786 60.6758 76.8893 61.554 75.9939C62.2222 75.3052 62.3176 74.3238 61.7258 73.7728C61.5349 73.5662 60.5612 72.9808 59.5876 72.4643C56.8385 71.0007 56.9148 71.0696 58.0221 70.708C60.924 69.7438 61.4394 69.5028 61.8022 68.8829C62.2222 68.177 62.1267 67.5916 61.4585 66.8856C60.7712 66.1625 59.9121 66.283 55.9221 67.5744L52.4857 68.7107L51.1493 67.9704C50.4047 67.5744 48.3047 66.4724 46.491 65.5426C44.6774 64.6129 43.2646 63.8036 43.341 63.7175C43.4173 63.6487 45.3837 62.5984 47.6938 61.3931C50.0038 60.2051 52.0275 59.1203 52.2184 59.017C52.4666 58.8793 52.772 58.9137 53.4593 59.1548C53.9748 59.327 55.693 59.8779 57.2966 60.3945C60.0267 61.2554 60.2558 61.307 60.8285 61.1004C61.6494 60.7905 61.9358 60.4461 62.0504 59.6369C62.2031 58.6382 61.5158 58.07 59.2058 57.278C58.1748 56.9337 57.3348 56.5721 57.3348 56.5032C57.3348 56.4343 58.2321 55.9006 59.3203 55.3324C60.4085 54.747 61.4776 54.0755 61.7067 53.8172C62.3367 53.094 62.2413 52.2848 61.4394 51.5616C60.8476 51.0279 60.6758 50.959 60.1031 51.0451C59.7594 51.0968 58.4994 51.6477 57.3348 52.2848C56.1512 52.9047 55.1584 53.404 55.1202 53.3695C55.1012 53.3351 55.1966 52.4225 55.3684 51.355C55.6357 49.5471 55.6357 49.3405 55.3493 48.8068C54.7575 47.6704 52.7911 47.4982 52.0657 48.4969C51.8938 48.7551 51.5502 50.2531 51.2256 52.302C50.9202 54.1616 50.6147 55.7456 50.5193 55.8145C50.3665 55.9522 44.9065 58.8621 42.4819 60.0845L41.1073 60.7905L41.1455 55.694L41.2028 50.5974L44.2001 48.3419C45.8419 47.1022 47.2738 45.9142 47.3883 45.6903C47.9038 44.7261 47.4647 43.7275 46.3383 43.3142C45.4792 42.9871 45.0974 43.1421 43.0737 44.6228C42.1573 45.2771 41.3555 45.8281 41.26 45.8281C41.1837 45.8281 41.1073 44.8639 41.1073 43.6758C41.1073 40.7832 40.7637 40.0428 39.3509 39.8879C39.0073 39.8362 38.5491 39.8707 38.3391 39.9567Z" fill="#27AE60"/>
</svg>
