<svg width="129" height="96" viewBox="0 0 129 96" fill="none" xmlns="http://www.w3.org/2000/svg">
<path d="M2.23237 1.06118C2.14465 1.12051 2.07886 10.7722 2.07886 22.5006C2.07886 43.3862 2.07886 43.8411 2.49552 44.0389C3.08763 44.3158 54.5789 44.3158 55.171 44.0389C55.5877 43.8411 55.5877 43.3862 55.5877 22.6193C55.5877 6.38148 55.5219 1.33807 55.3245 1.16007C55.1272 0.982067 48.921 0.922733 28.7236 0.922733C14.228 0.922733 2.29816 0.982067 2.23237 1.06118Z" fill="#27AE60"/>
<path d="M100.609 13.9765C96.1357 14.3918 91.9909 16.1323 89.162 18.8023L88.3944 19.5144H84.6006C80.4778 19.5144 79.8857 19.633 79.1839 20.5824C78.7014 21.2548 78.7453 22.4415 79.2716 23.2129C79.8199 24.0435 80.7409 24.2611 83.9427 24.2611C85.3462 24.2611 86.5085 24.2809 86.5085 24.3204C86.5085 24.36 87.0129 26.5158 87.605 29.1265C90.8067 42.7536 91.7716 47.7574 91.9251 51.6537C92.0787 55.4907 91.7716 57.3696 90.3462 61.2065C89.0304 64.7468 86.2892 70.6802 85.6971 71.2538L85.2146 71.7284L71.1137 71.6889L57.0128 71.6296L55.5435 70.9769C53.8111 70.2253 52.4953 68.9595 51.9909 67.6344C51.5084 66.3488 51.5304 63.9557 52.0786 62.413C52.4733 61.2065 54.6883 57.0729 57.1005 52.9393C58.3286 50.8824 58.4383 50.2099 57.7804 49.221C56.9032 47.9157 58.526 47.975 29.14 48.0343L2.4733 48.0937L1.72769 48.8254C0.828563 49.7352 0.740844 50.5857 1.48646 51.5746C2.21014 52.5437 3.02155 52.7217 6.85927 52.7217C8.67945 52.7415 10.1926 52.7811 10.1926 52.8404C10.1926 52.8997 9.42506 53.948 8.46015 55.1742C2.67067 62.6305 0.499616 68.3266 1.20137 74.2007C1.61804 77.7608 2.84611 81.3801 3.7233 81.6966C4.40313 81.9141 7.49524 81.835 7.73646 81.5581C7.86804 81.4395 8.17506 80.5099 8.41629 79.5408C9.90752 73.904 14.5128 69.6715 20.8505 68.1486C23.3505 67.5355 27.2102 67.5355 29.5567 68.1288C36.8812 70.0078 41.8374 75.4072 42.5391 82.3097C42.6269 83.1799 42.8242 83.9513 42.9558 84.0304C43.2409 84.2084 96.7058 84.2282 97.4076 84.07C97.8023 83.9711 97.912 83.7733 98.0216 82.8239C98.4164 79.4617 99.0743 77.5036 100.587 75.1896C104.403 69.3749 112.89 66.3093 120.171 68.1486C121.026 68.3662 122.144 68.7222 122.693 68.9397C123.504 69.276 124.14 69.3551 126.158 69.3551C127.824 69.3551 128.614 69.276 128.614 69.1375C128.614 68.742 127.364 66.9422 126.267 65.6961C123.175 62.2548 118.416 60.0198 113.263 59.5649L111.837 59.4463L111.903 56.262C111.969 53.5326 111.925 52.8206 111.508 51.179C110.566 47.5003 109.447 45.4038 103.109 35.3764C100.763 31.6581 98.8988 28.6123 98.9646 28.5925C99.0523 28.5925 100.193 28.5925 101.508 28.6123C103.68 28.632 103.943 28.5925 104.403 28.1969L104.93 27.7618V21.2746C104.93 15.4005 104.886 14.7676 104.535 14.3721C104.074 13.8578 103.066 13.7589 100.609 13.9765Z" fill="#27AE60"/>
<path d="M22.3639 71.4316C17.2762 72.4403 13.3288 75.8025 12.0569 80.2328C11.5745 81.914 11.5745 84.6829 12.0569 86.364C12.8902 89.2714 15.5438 92.4359 18.3069 93.8204C20.8069 95.0664 22.0788 95.3433 25.2148 95.3433C27.7367 95.3433 28.2411 95.2839 29.535 94.829C33.9648 93.3259 36.9254 90.4779 38.1973 86.4827C39.1403 83.5951 38.7017 80.3317 37.035 77.4639C36.0701 75.7828 33.5043 73.5083 31.5525 72.5787C28.899 71.3129 25.2587 70.858 22.3639 71.4316ZM27.8683 78.255C30.0613 79.2241 31.3332 81.0635 31.3332 83.2984C31.3113 89.2318 22.5832 91.0514 19.6446 85.7509C17.9341 82.6457 19.6666 79.0461 23.3946 77.9386C24.6008 77.5826 26.6403 77.7408 27.8683 78.255Z" fill="#27AE60"/>
<path d="M112.211 71.5108C108.351 72.381 105.193 74.5764 103.439 77.6025C99.5352 84.3863 103.307 92.614 111.399 94.928C112.671 95.284 113.417 95.3632 115.676 95.3434C118.066 95.3434 118.614 95.2643 119.886 94.8292C122.167 94.0578 123.702 93.1282 125.347 91.5262C128.965 88.0453 129.974 83.2788 128.022 78.8485C125.522 73.1919 118.768 70.067 112.211 71.5108ZM118 78.2354C119.14 78.6903 120.478 79.8967 121.048 80.9252C121.619 82.013 121.728 83.9117 121.29 85.1379C120.149 88.2035 115.851 89.7857 112.715 88.3024C110.412 87.2146 109.338 85.5928 109.316 83.2392C109.316 82.1712 109.426 81.5976 109.776 80.9647C110.632 79.4418 112.211 78.2749 114.031 77.8398C114.974 77.6222 116.926 77.82 118 78.2354Z" fill="#27AE60"/>
</svg>
