<svg width="1024" height="1024" viewBox="0 0 1024 1024" fill="none" xmlns="http://www.w3.org/2000/svg">
<path fill-rule="evenodd" clip-rule="evenodd" d="M829.254 389.884C827.105 389.583 825.452 390.317 824.297 392.087C823.835 390.796 823.102 389.694 822.094 388.782C820.316 392.199 818.297 392.567 816.036 389.884C815.617 391.559 815.434 393.394 815.485 395.391C814.75 394.657 814.017 393.923 813.282 393.188C812.258 395.233 811.707 397.436 811.63 399.797C810.777 401.131 809.86 401.131 808.876 399.797C808.509 403.102 808.141 406.406 807.775 409.711C806.877 407.372 805.775 405.169 804.47 403.102C803.102 406.101 802.735 409.406 803.369 413.015C802.648 411.698 802.097 411.698 801.716 413.015C810.982 439.425 815.939 466.595 816.586 494.525C816.645 491.028 815.727 488.091 813.833 485.714C804.615 397.115 765.329 325.518 695.973 270.923C656.996 242.128 613.67 222.668 565.997 212.544C567.156 212.708 568.258 212.525 569.302 211.993C554.361 209.149 539.307 207.13 524.141 205.935C520.329 203.808 516.291 202.34 512.024 201.529C510.579 202.586 509.11 202.403 507.618 200.978C508.72 199.877 509.821 198.775 510.923 197.674C508.665 197.094 506.646 196.177 504.865 194.92C504.498 195.287 504.13 195.655 503.763 196.021C503.451 192.45 502.533 192.083 501.009 194.92C499.931 191.116 498.279 190.75 496.053 193.818C494.907 191.021 492.887 189.184 489.994 188.311C489.336 186.885 488.785 185.416 488.342 183.905C486.852 185.21 485.566 186.68 484.487 188.311C482.281 186.512 480.812 184.309 480.081 181.702C476.669 181.798 476.301 181.247 478.979 180.05C477.565 179.296 476.28 179.48 475.124 180.601C474.39 179.866 474.39 179.132 475.124 178.398C476.897 177.685 478.549 176.767 480.081 175.644C477.947 175.509 476.479 174.592 475.675 172.89C590.694 164.46 687.441 201.911 765.918 285.242C793.205 316.308 814.317 351.188 829.254 389.884Z" fill="#27AE60"/>
<path fill-rule="evenodd" clip-rule="evenodd" d="M475.675 172.891C476.479 174.592 477.947 175.51 480.081 175.644C478.549 176.768 476.897 177.685 475.124 178.398C474.39 179.133 474.39 179.866 475.124 180.601C476.28 179.481 477.565 179.297 478.98 180.05C476.301 181.248 476.669 181.798 480.081 181.703C480.812 184.31 482.281 186.513 484.487 188.311C485.566 186.68 486.852 185.211 488.342 183.906C488.785 185.417 489.336 186.885 489.994 188.311C492.887 189.185 494.907 191.021 496.053 193.819C498.279 190.75 499.931 191.117 501.009 194.92C502.533 192.083 503.451 192.451 503.763 196.022C504.13 195.655 504.498 195.287 504.865 194.92C506.646 196.177 508.665 197.095 510.923 197.674C509.821 198.776 508.72 199.877 507.618 200.979C509.11 202.404 510.579 202.587 512.024 201.529C516.291 202.34 520.329 203.808 524.141 205.935C539.307 207.13 554.361 209.15 569.302 211.994C568.258 212.526 567.156 212.708 565.997 212.544C460.183 197.829 369.494 227.203 293.929 300.664C293.844 299.287 293.11 298.369 291.726 297.91C292.229 297.454 292.597 296.903 292.828 296.258C291.011 294.993 289.359 293.525 287.871 291.852C283.626 292.952 279.77 294.787 276.305 297.359C275.438 296.542 274.705 295.624 274.102 294.605C276.652 293.384 278.304 291.364 279.059 288.547C279.85 289.595 280.767 289.778 281.813 289.098C280.901 288.09 279.799 287.356 278.508 286.895C279.243 285.793 279.976 284.692 280.711 283.59C278.463 282.222 277.179 280.203 276.856 277.532C274.969 280.084 275.52 282.287 278.508 284.141C272.926 289.285 268.52 294.793 265.29 300.664C267.774 301.27 270.161 300.537 272.45 298.461C273.185 299.562 273.185 300.664 272.45 301.765C270.532 303.464 268.513 304.382 266.392 304.519C269.038 306.139 268.855 307.791 265.841 309.476C265.474 308.007 265.106 306.538 264.74 305.07C263.164 305.283 261.512 305.283 259.783 305.07C259.048 305.804 258.315 306.538 257.58 307.273C257.211 305.617 257.211 304.149 257.58 302.867C255.643 303.558 253.991 304.66 252.623 306.171C251.888 305.436 251.155 304.703 250.42 303.968C248.13 306.49 245.376 308.327 242.159 309.476C239.986 312.934 237.599 316.239 234.999 319.389C234.249 321.624 233.882 323.827 233.898 325.998C235.307 323.314 236.959 322.763 238.854 324.346C237.018 326.182 235.183 328.017 233.347 329.853C234.082 330.22 234.815 330.588 235.55 330.955C234.628 332.068 234.261 333.354 234.449 334.81C233.347 334.81 232.246 334.81 231.144 334.81C231.308 335.969 231.125 337.07 230.593 338.114C229.492 336.646 228.39 336.646 227.289 338.114C227.533 335.96 228.451 333.94 230.043 332.056C228.887 331.514 227.786 331.697 226.738 332.607C224.62 337.421 221.866 341.827 218.477 345.825C217.937 344.4 217.753 342.931 217.926 341.419C254.382 279.083 305.419 232.637 371.033 202.08C404.452 187.086 439.332 177.355 475.675 172.891Z" fill="#27AE60"/>
<path fill-rule="evenodd" clip-rule="evenodd" d="M371.033 312.78C377.254 312.262 382.211 314.465 385.903 319.389C397.945 337.975 409.695 356.701 421.15 375.565C422.621 389.146 416.563 394.838 402.976 392.638C401.224 391.486 399.572 390.2 398.019 388.783C385.907 369.365 373.791 349.905 361.67 330.404C359.545 321.44 362.666 315.565 371.033 312.78Z" fill="#27AE60"/>
<path fill-rule="evenodd" clip-rule="evenodd" d="M647.507 312.78C661.393 313.415 665.981 320.39 661.276 333.709C649.726 351.848 637.977 369.84 626.028 387.682C621.954 392.938 616.629 394.59 610.057 392.638C602.916 388.801 600.53 383.11 602.897 375.565C614.534 356.208 626.65 337.114 639.246 318.288C641.353 315.226 644.107 313.389 647.507 312.78Z" fill="#27AE60"/>
<path fill-rule="evenodd" clip-rule="evenodd" d="M293.928 300.664C219.56 382.342 194.043 477.805 217.374 587.051C229.352 631.204 249.73 670.858 278.507 706.012C278.166 707.376 277.615 707.376 276.855 706.012C276.12 706.747 276.12 707.481 276.855 708.215C285.13 717.223 293.392 726.219 301.638 735.202C295.997 737.222 295.997 740.16 301.638 744.014C298.374 744.939 298.007 746.04 300.537 747.318C299.123 748.072 297.837 747.888 296.682 746.767C295.947 749.705 295.213 749.705 294.479 746.767C293.153 748.264 291.5 749.366 289.522 750.072C292.426 751.795 292.242 753.263 288.971 754.478C287.223 753.126 285.754 753.493 284.565 755.579C284.199 754.845 283.831 754.111 283.464 753.376C282.924 754.801 282.74 756.27 282.913 757.782C281.754 757.946 280.653 757.764 279.609 757.232C272.016 750.009 264.856 742.483 258.13 734.651C258.25 736.049 258.066 737.15 257.579 737.955C192.904 663.089 164.816 575.705 173.315 475.801C179.129 427.7 194 382.906 217.925 341.419C217.752 342.931 217.936 344.4 218.476 345.825C221.865 341.827 224.619 337.421 226.737 332.607C227.785 331.697 228.886 331.514 230.042 332.056C228.45 333.94 227.532 335.96 227.288 338.114C228.389 336.646 229.491 336.646 230.592 338.114C231.124 337.07 231.307 335.969 231.143 334.81C232.244 334.81 233.346 334.81 234.447 334.81C234.26 333.354 234.627 332.068 235.549 330.955C234.814 330.588 234.081 330.22 233.346 329.853C235.182 328.017 237.017 326.182 238.853 324.346C236.958 322.763 235.306 323.313 233.897 325.998C233.881 323.827 234.248 321.624 234.998 319.389C237.598 316.239 239.985 312.934 242.158 309.475C245.375 308.327 248.129 306.49 250.419 303.968C251.154 304.703 251.887 305.436 252.622 306.171C253.99 304.66 255.642 303.558 257.579 302.867C257.21 304.149 257.21 305.617 257.579 307.272C258.313 306.538 259.047 305.804 259.782 305.07C261.511 305.283 263.163 305.283 264.738 305.07C265.105 306.538 265.473 308.007 265.84 309.475C268.854 307.791 269.036 306.139 266.391 304.519C268.512 304.382 270.531 303.464 272.449 301.765C273.184 300.664 273.184 299.562 272.449 298.461C270.16 300.537 267.773 301.27 265.289 300.664C268.519 294.793 272.925 289.285 278.507 284.141C275.519 282.287 274.968 280.084 276.855 277.532C277.178 280.203 278.462 282.222 280.71 283.59C279.975 284.692 279.242 285.793 278.507 286.895C279.798 287.356 280.9 288.09 281.812 289.098C280.766 289.778 279.849 289.595 279.058 288.547C278.303 291.364 276.651 293.384 274.101 294.605C274.704 295.624 275.437 296.542 276.304 297.359C279.769 294.787 283.625 292.952 287.87 291.852C289.358 293.525 291.01 294.993 292.826 296.258C292.596 296.903 292.228 297.454 291.725 297.91C293.108 298.369 293.843 299.287 293.928 300.664Z" fill="#27AE60"/>
<path opacity="0.999" fill-rule="evenodd" clip-rule="evenodd" d="M469.065 308.374C509.823 308.19 550.578 308.374 591.331 308.924C600.045 313.345 603.532 320.504 601.795 330.404C587.382 372.835 573.246 415.426 559.388 458.176C585.092 457.993 610.793 458.176 636.492 458.727C642.271 459.441 646.127 462.563 648.058 468.09C649.036 473.727 648.669 479.235 646.956 484.612C630.682 506.178 614.343 527.473 597.94 548.499C596.815 545.495 597.917 543.292 601.244 541.89C601.889 537.933 603.358 534.445 605.65 531.426C605.283 530.875 604.915 530.324 604.549 529.773C601.611 532.711 598.674 532.711 595.737 529.773C597.649 526.904 599.668 526.904 601.795 529.773C603.433 528.944 603.617 528.026 602.346 527.02C600.081 526.677 597.878 526.126 595.737 525.367C594.306 526.017 593.388 527.119 592.983 528.672C592.556 526.232 591.454 524.764 589.679 524.266C586.361 526.208 586.912 527.493 591.331 528.121C589.105 528.275 587.085 528.459 585.273 528.672C584.763 524.632 582.742 523.162 579.214 524.266C578.397 522.495 578.213 520.659 578.664 518.758C575.359 522.798 572.055 526.836 568.75 530.875C568.192 529.227 568.742 527.942 570.402 527.02C570.151 526.58 569.783 526.397 569.301 526.469C577.126 516.168 584.836 505.704 592.432 495.076C570.402 494.71 548.373 494.342 526.343 493.975C518.065 491.571 514.026 486.064 514.226 477.453C517.909 464.39 521.764 451.355 525.792 438.35C537.25 407.587 548.081 376.745 558.286 345.824C558.214 346.307 558.397 346.675 558.837 346.926C559.204 346.191 559.571 345.458 559.938 344.723C559.439 353.199 561.092 353.382 564.895 345.274C563.503 336.847 559.831 335.379 553.88 340.868C530.006 341.052 506.14 341.602 482.283 342.52C483.632 347.078 481.98 350.014 477.326 351.332C476.431 349.199 475.88 346.996 475.674 344.723C473.019 345.123 471.366 344.021 470.717 341.418C469.927 342.466 469.009 342.649 467.964 341.969C467.564 338.479 466.095 335.541 463.558 333.157C464.605 332.366 464.788 331.449 464.109 330.404C462.569 331.01 461.099 331.377 459.703 331.505C457.104 328.095 456.92 324.79 459.152 321.592C458.785 320.857 458.417 320.123 458.05 319.389C459.694 317.565 461.529 315.912 463.558 314.432C462.456 314.065 461.355 313.697 460.253 313.33C462.337 312.259 464.54 311.524 466.862 311.127C479.34 310.577 491.824 310.393 504.313 310.577C504.459 314.317 505.561 314.684 507.617 311.678C513.223 315.126 519.281 315.861 525.792 313.881C527.838 316.228 530.223 316.779 532.952 315.533C531.736 316.779 532.102 317.698 534.053 318.287C534.602 314.233 536.071 314.233 538.459 318.287C540.103 316.452 542.122 315.351 544.517 314.983C545.978 315.264 547.079 315.998 547.822 317.186C548.648 316.496 549.567 315.945 550.576 315.533C549.107 314.065 549.107 312.596 550.576 311.127C559.388 310.761 568.199 310.393 577.011 310.026C540.843 309.841 504.86 309.29 469.065 308.374Z" fill="#27AE60"/>
<path fill-rule="evenodd" clip-rule="evenodd" d="M714.698 395.392C721.716 394.588 727.041 397.159 730.669 403.102C732.291 409.244 731.005 414.568 726.814 419.074C707.211 429.795 687.751 440.81 668.435 452.119C654.069 454.642 648.011 448.584 650.26 433.944C651.751 432.639 653.036 431.169 654.116 429.538C674.306 417.8 694.5 406.418 714.698 395.392Z" fill="#27AE60"/>
<path fill-rule="evenodd" clip-rule="evenodd" d="M301.64 395.392C306.318 395.037 310.724 395.954 314.858 398.145C332.813 409.307 351.171 419.771 369.932 429.538C378.052 441.627 375.115 449.704 361.12 453.771C359.251 453.331 357.416 452.78 355.613 452.118C336.332 440.825 316.872 429.81 297.234 419.074C289.356 409.47 290.825 401.576 301.64 395.392Z" fill="#27AE60"/>
<path fill-rule="evenodd" clip-rule="evenodd" d="M275.204 498.932C299.806 498.748 324.406 498.932 349.003 499.483C357.192 502.837 359.946 508.895 357.265 517.658C355.163 520.864 352.409 523.251 349.003 524.817C324.404 525.552 299.803 525.552 275.204 524.817C263.488 516.101 263.488 507.473 275.204 498.932Z" fill="#27AE60"/>
<path fill-rule="evenodd" clip-rule="evenodd" d="M673.943 498.932C698.546 498.748 723.145 498.932 747.743 499.483C756.896 504.494 758.915 511.653 753.801 520.962C752.248 522.38 750.596 523.665 748.844 524.817C723.877 525.552 698.91 525.552 673.943 524.817C666.176 519.926 664.157 513.133 667.885 504.44C669.79 502.345 671.809 500.509 673.943 498.932Z" fill="#27AE60"/>
<path fill-rule="evenodd" clip-rule="evenodd" d="M469.066 308.374C504.861 309.29 540.843 309.841 577.012 310.026C568.2 310.393 559.388 310.761 550.576 311.128C549.108 312.596 549.108 314.065 550.576 315.534C549.567 315.946 548.648 316.496 547.822 317.186C547.08 315.999 545.978 315.264 544.518 314.983C542.122 315.351 540.103 316.452 538.46 318.287C536.072 314.233 534.602 314.233 534.054 318.287C532.103 317.698 531.736 316.78 532.952 315.534C530.224 316.78 527.838 316.229 525.792 313.881C519.282 315.861 513.223 315.126 507.618 311.678C505.561 314.684 504.46 314.318 504.313 310.577C491.825 310.393 479.34 310.577 466.863 311.128C464.541 311.524 462.338 312.259 460.254 313.331C461.355 313.698 462.457 314.065 463.558 314.432C461.529 315.913 459.694 317.565 458.051 319.389C458.418 320.124 458.785 320.857 459.152 321.592C456.921 324.791 457.105 328.095 459.703 331.505C461.1 331.378 462.569 331.011 464.109 330.404C464.789 331.449 464.606 332.367 463.558 333.158C466.095 335.541 467.564 338.479 467.964 341.969C469.009 342.649 469.927 342.466 470.718 341.419C471.367 344.022 473.019 345.123 475.675 344.723C475.881 346.997 476.431 349.2 477.327 351.332C481.981 350.015 483.633 347.078 482.284 342.52C506.141 341.603 530.007 341.052 553.88 340.868C559.832 335.379 563.503 336.848 564.895 345.274C561.092 353.382 559.44 353.199 559.939 344.723C559.572 345.458 559.204 346.192 558.837 346.926C558.398 346.675 558.215 346.307 558.286 345.825C533.866 344.362 509.266 344.362 484.487 345.825C470.536 401.611 456.584 457.42 442.63 513.251C465.386 514.169 488.149 514.72 510.922 514.904C523.522 518.47 528.111 526.731 524.691 539.687C517.229 564.259 510.254 588.859 503.763 613.487C525.459 584.279 547.305 555.272 569.301 526.469C569.784 526.398 570.152 526.58 570.403 527.02C568.743 527.942 568.192 529.227 568.751 530.875C572.055 526.836 575.36 522.798 578.664 518.759C578.213 520.659 578.397 522.495 579.215 524.266C582.743 523.163 584.763 524.632 585.273 528.672C587.085 528.46 589.105 528.276 591.331 528.121C586.912 527.494 586.361 526.208 589.679 524.266C591.455 524.764 592.556 526.232 592.983 528.672C593.389 527.119 594.306 526.018 595.737 525.368C597.878 526.127 600.081 526.677 602.346 527.02C603.617 528.027 603.433 528.944 601.795 529.774C599.668 526.904 597.649 526.904 595.737 529.774C598.675 532.711 601.611 532.711 604.549 529.774C604.916 530.324 605.284 530.875 605.651 531.426C603.358 534.445 601.889 537.934 601.245 541.89C597.917 543.292 596.815 545.495 597.94 548.499C555.399 604.164 513.359 660.34 471.819 717.027C466.098 723.377 458.939 725.396 450.34 723.085C443.523 720.487 439.852 715.53 439.325 708.215C452.978 656.245 467.298 604.475 482.284 552.905C458.793 551.987 435.295 551.437 411.788 551.253C404.125 548.369 400.453 542.862 400.773 534.73C401.22 530.495 401.771 526.272 402.425 522.063C419.486 456.194 435.642 390.105 450.891 323.795C452.793 313.624 458.852 308.483 469.066 308.374Z" fill="#27AE60"/>
<path fill-rule="evenodd" clip-rule="evenodd" d="M658.522 570.528C664.577 570.245 670.084 571.897 675.044 575.485C692.157 585.692 709.413 595.606 726.814 605.225C733.528 614.102 732.426 621.812 723.51 628.356C720.205 629.091 716.901 629.091 713.596 628.356C693.628 617.379 673.802 606.18 654.116 594.761C649.185 590.094 647.9 584.586 650.26 578.239C652.539 575.038 655.293 572.468 658.522 570.528Z" fill="#27AE60"/>
<path fill-rule="evenodd" clip-rule="evenodd" d="M357.815 570.528C369.584 570.727 374.908 576.601 373.787 588.152C372.27 590.635 370.618 593.021 368.83 595.312C349.609 606.579 330.15 617.594 310.451 628.357C299.75 630.172 293.508 625.766 291.726 615.139C291.83 610.892 293.666 607.588 297.233 605.225C317.506 593.625 337.701 582.06 357.815 570.528Z" fill="#27AE60"/>
<path fill-rule="evenodd" clip-rule="evenodd" d="M402.976 631.111C413.678 629.48 420.287 633.886 422.803 644.329C422.144 645.755 421.593 647.223 421.151 648.735C408.712 668.533 396.227 688.36 383.7 708.215C377.935 711.804 371.877 712.355 365.525 709.867C360.878 705.9 359.226 700.943 360.569 694.997C373.642 672.941 387.779 651.646 402.976 631.111Z" fill="#27AE60"/>
<path fill-rule="evenodd" clip-rule="evenodd" d="M610.055 631.11C616.538 629.836 621.862 631.672 626.026 636.618C637.976 654.477 649.726 672.469 661.274 690.591C664.719 697.575 663.802 704.002 658.52 709.867C652.091 712.455 646.033 711.905 640.346 708.215C627.476 688.008 614.625 667.814 601.794 647.633C601.029 640.35 603.783 634.842 610.055 631.11Z" fill="#27AE60"/>
<path fill-rule="evenodd" clip-rule="evenodd" d="M829.253 389.885C848.35 439.866 855.509 491.636 850.732 545.195C834.091 673.347 768.185 765.688 653.014 822.22C643.554 826.403 634.007 830.259 624.376 833.786C625.559 831.82 627.394 830.535 629.883 829.93C626.373 829.811 623.068 830.729 619.97 832.684C615.996 831.48 611.956 831.296 607.853 832.133C609.476 832.915 610.21 834.2 610.056 835.989C603.885 837.892 598.01 837.341 592.432 834.336C591.775 831.653 591.775 828.715 592.432 825.524C589.984 824.806 588.698 823.154 588.577 820.568C585.872 824.602 582.935 824.602 579.765 820.568C579.398 821.302 579.031 822.036 578.664 822.771C576.818 822.153 575.349 821.051 574.258 819.466C573.083 820.227 571.797 820.778 570.403 821.118C571.72 821.839 571.72 822.39 570.403 822.771C568.387 821.089 567.285 821.639 567.098 824.423C567.031 826.308 567.766 827.776 569.301 828.829C567.963 831.138 567.044 830.954 566.547 828.278C566.177 830.012 565.26 831.481 563.794 832.684C562.692 832.317 561.957 831.583 561.591 830.481C562.808 828.948 564.277 827.662 565.997 826.626C563.363 825.865 563.363 824.763 565.997 823.321C564.988 822.909 564.069 822.359 563.243 821.669C559.502 821.768 555.83 821.768 552.228 821.669C550.097 824.828 547.343 825.746 543.967 824.423C544.334 824.79 544.702 825.158 545.068 825.524C542.915 827.806 540.345 828.54 537.358 827.727C538.093 827.361 538.826 826.993 539.561 826.626C536.296 825.701 535.929 824.599 538.459 823.321C536.793 821.093 535.325 821.277 534.053 823.872C531.002 821.481 527.698 821.298 524.14 823.321C525.321 824.736 526.789 825.103 528.546 824.423C529.851 825.913 531.321 827.199 532.952 828.278C530.014 826.81 527.078 826.81 524.14 828.278C521.17 825.312 517.866 822.742 514.227 820.568C514.777 820.201 515.328 819.833 515.879 819.466C522.63 818.615 529.423 818.064 536.256 817.814C533.687 817.447 531.116 817.079 528.546 816.712C540.965 816.132 553.082 814.48 564.895 811.756C682.842 785.416 761.965 715.287 802.266 601.371C813.291 563.483 817.146 524.931 813.832 485.714C815.727 488.091 816.644 491.029 816.586 494.526C815.938 466.596 810.981 439.425 801.716 413.016C802.097 411.699 802.648 411.699 803.368 413.016C802.735 409.406 803.101 406.102 804.469 403.103C805.775 405.17 806.876 407.373 807.774 409.712C808.141 406.407 808.509 403.103 808.875 399.798C809.859 401.132 810.777 401.132 811.629 399.798C811.706 397.437 812.257 395.234 813.281 393.189C814.016 393.924 814.75 394.657 815.484 395.392C815.434 393.395 815.617 391.56 816.035 389.885C818.296 392.568 820.315 392.2 822.093 388.783C823.101 389.695 823.835 390.797 824.296 392.088C825.452 390.318 827.104 389.584 829.253 389.885Z" fill="#27AE60"/>
<path fill-rule="evenodd" clip-rule="evenodd" d="M278.507 706.012C354.559 791.689 450.021 826.937 564.895 811.755C553.082 814.479 540.965 816.131 528.546 816.712C531.116 817.078 533.687 817.446 536.256 817.813C529.423 818.063 522.63 818.614 515.879 819.465C515.328 819.832 514.777 820.2 514.226 820.567C517.866 822.741 521.17 825.311 524.14 828.277C527.078 826.809 530.014 826.809 532.952 828.277C531.321 827.198 529.851 825.912 528.546 824.422C526.789 825.102 525.321 824.735 524.14 823.321C527.698 821.297 531.002 821.48 534.053 823.871C535.324 821.276 536.793 821.092 538.459 823.321C535.929 824.598 536.296 825.7 539.561 826.625C538.826 826.992 538.093 827.36 537.358 827.726C540.345 828.539 542.915 827.805 545.068 825.523C544.701 825.157 544.334 824.789 543.967 824.422C547.343 825.745 550.097 824.827 552.228 821.668C555.83 821.767 559.502 821.767 563.243 821.668C564.069 822.358 564.988 822.909 565.997 823.321C563.363 824.762 563.363 825.864 565.997 826.625C564.277 827.661 562.808 828.947 561.591 830.48C561.957 831.582 562.692 832.316 563.794 832.683C565.26 831.48 566.177 830.011 566.547 828.277C567.044 830.953 567.963 831.137 569.301 828.828C567.766 827.775 567.031 826.307 567.098 824.422C567.285 821.639 568.387 821.088 570.403 822.77C571.72 822.389 571.72 821.838 570.403 821.118C571.797 820.777 573.082 820.226 574.258 819.465C575.349 821.05 576.818 822.152 578.664 822.77C579.031 822.035 579.398 821.301 579.765 820.567C582.935 824.602 585.872 824.602 588.577 820.567C588.698 823.153 589.984 824.805 592.432 825.523C591.775 828.715 591.775 831.652 592.432 834.335C598.01 837.34 603.885 837.891 610.056 835.988C610.21 834.199 609.476 832.914 607.853 832.132C611.956 831.295 615.995 831.479 619.97 832.683C623.068 830.728 626.373 829.81 629.883 829.929C627.394 830.534 625.559 831.82 624.376 833.785C498.365 872.726 385.278 850.145 285.116 766.043C274.946 757.526 265.768 748.164 257.579 737.955C258.066 737.15 258.25 736.048 258.13 734.65C264.857 742.482 272.016 750.009 279.609 757.231C280.653 757.763 281.755 757.946 282.913 757.782C282.74 756.269 282.924 754.8 283.464 753.376C283.831 754.111 284.199 754.844 284.566 755.579C285.754 753.493 287.224 753.126 288.972 754.477C292.242 753.262 292.426 751.794 289.522 750.071C291.501 749.365 293.153 748.264 294.479 746.767C295.214 749.705 295.947 749.705 296.682 746.767C297.837 747.887 299.123 748.071 300.537 747.318C298.007 746.04 298.374 744.938 301.639 744.013C295.997 740.159 295.997 737.221 301.639 735.201C293.392 726.219 285.131 717.223 276.855 708.215C276.12 707.48 276.12 706.746 276.855 706.012C277.615 707.375 278.166 707.375 278.507 706.012Z" fill="#27AE60"/>
</svg>
