<svg width="83" height="103" viewBox="0 0 83 103" fill="none" xmlns="http://www.w3.org/2000/svg">
<path d="M78.7812 1.28639C63.2835 4.93602 47.3989 11.8258 34.2871 20.5849C26.1836 25.997 18.5745 32.4596 13.3943 38.3524C6.08605 46.6308 1.8086 54.9448 0.432933 63.5081C0.0245329 66.0717 -0.0399513 71.7687 0.325459 74.457C1.18525 80.8483 3.72163 87.1506 7.9131 93.3282C9.48221 95.6248 12.47 99.5593 12.6634 99.5593C12.8784 99.5593 18.9184 92.7763 21.7127 89.4115L24.4425 86.118L24.3351 82.5574C24.2706 80.2252 24.0556 78.1422 23.7547 76.5221C23.2173 73.5668 21.5623 68.0657 20.3585 65.1994C19.8857 64.0778 19.5203 63.1342 19.5632 63.0986C19.6922 62.9918 21.1753 65.1638 22.766 67.7808C25.0444 71.5195 26.721 75.3649 28.2041 80.154L28.3976 80.7771L29.9452 78.6229C33.3843 73.8161 39.2954 64.238 42.7561 57.8645C44.3682 54.927 44.3682 54.838 43.8308 51.6335C43.014 46.7732 41.3804 41.6637 39.0375 36.6611C38.1992 34.863 40.8 38.1743 42.9065 41.6103C44.0672 43.4797 46.0877 47.3963 46.84 49.2478C46.926 49.4259 47.012 49.5505 47.0765 49.5149C47.2055 49.3903 51.5904 40.738 54.2772 35.2902C58.7911 26.1395 59.178 25.3383 59.436 25.0179C59.6509 24.7152 59.6724 24.7152 59.5649 25.0535C59.393 25.5876 56.1903 34.5781 54.3632 39.652C50.924 49.141 46.2597 60.3035 43.4439 65.7335C42.928 66.7661 42.5196 67.6206 42.5626 67.6562C42.5841 67.674 43.3364 67.4782 44.1962 67.1933C47.5494 66.0895 53.5894 64.7365 56.6416 64.416C57.7809 64.2914 57.8239 64.2736 53.8473 65.6445C50.3867 66.8373 47.098 68.3149 43.7878 70.1486C40.1767 72.1426 39.8758 72.4096 38.5001 74.9911C34.5021 82.5218 27.0219 93.2748 20.595 100.752C19.4558 102.087 19.1119 101.963 24.3996 102.248C39.2309 103.031 52.7081 99.132 62.7891 91.1384C71.7524 84.0528 76.9757 74.368 78.7812 61.4607C79.512 56.1554 79.598 45.1175 78.9747 34.044C78.6522 28.08 78.8457 19.1073 79.4046 14.2826C79.8774 10.2591 80.8232 5.36329 81.683 2.62162C81.9839 1.64245 82.2204 0.787903 82.2204 0.71669C82.2204 0.503052 81.9194 0.556465 78.7812 1.28639Z" fill="#27AE60"/>
</svg>
