<svg width="134" height="100" viewBox="0 0 134 100" fill="none" xmlns="http://www.w3.org/2000/svg">
<path d="M59.1197 1.10615C57.782 1.83794 57.5408 2.47083 57.5408 5.27932C57.5408 7.45491 57.6066 7.85047 57.9574 8.24603L58.3741 8.7207H69.9092C79.9531 8.7207 81.4662 8.68115 81.7733 8.42403C82.0364 8.1867 82.1022 7.5538 82.1241 5.49688C82.1461 2.51039 81.861 1.69949 80.5671 1.06659C79.8654 0.730365 79.0978 0.710587 69.8215 0.710587C60.2601 0.710587 59.8215 0.730365 59.1197 1.10615ZM79.4268 4.80465L79.4925 6.44623H69.8215H60.1724V5.08154C60.1724 2.8664 59.1197 3.06418 69.9092 3.12351L79.361 3.18284L79.4268 4.80465Z" fill="#27AE60"/>
<path d="M57.7601 10.9952C57.5189 11.2128 57.3215 11.549 57.3215 11.7468C57.3215 12.1819 57.9136 12.6962 58.5276 12.8148C58.9224 12.8742 58.9662 13.0324 58.9004 14.6542C58.8347 16.7507 58.1768 20.2711 57.3873 22.7434C56.6855 24.9388 55.8522 26.8177 53.7469 30.892C50.9399 36.3309 49.5364 40.2866 48.9882 44.2224C48.7031 46.3584 48.6811 90.4437 48.9662 91.8084C49.7118 95.3091 51.9925 97.7616 55.5452 98.8296C57.4092 99.4032 59.8873 99.423 63.0233 98.9087C66.4882 98.3154 72.9356 98.3549 77.5627 98.9878C80.5013 99.3834 81.225 99.423 82.4531 99.245C85.4356 98.7901 88.2207 97.0892 89.5145 94.8938C90.94 92.4809 90.8742 93.7467 90.8742 68.3318C90.8742 53.2412 90.7864 44.6971 90.6329 43.6884C90.1066 40.1679 88.6373 36.1925 85.9399 30.9315C82.497 24.2663 81.1592 20.1129 80.6768 14.6146L80.5671 13.1708L81.3785 12.8346C82.0584 12.5379 82.2338 12.3599 82.2777 11.8457C82.4092 10.5799 82.6724 10.5997 69.7777 10.5997C58.4838 10.5997 58.1768 10.6195 57.7601 10.9952ZM77.9356 13.2499C77.9356 14.1993 78.4619 17.9373 78.8347 19.6976C79.6461 23.5148 80.7864 26.3628 84.0321 32.7511C84.997 34.6498 86.1812 37.2803 86.6636 38.5856C88.3522 43.1346 88.2864 41.8688 88.2426 68.1934C88.2426 81.0887 88.1329 91.9073 88.0452 92.2237C87.4531 94.0433 86.0057 95.6256 84.2075 96.3574C82.4312 97.0694 81.4443 97.1089 77.5847 96.5947C73.0233 96.0014 66.7733 95.9618 63.1329 96.5156C59.9969 97.01 57.5408 97.0298 56.0496 96.5551C54.5145 96.0805 52.7162 94.5971 52.0364 93.2324L51.5101 92.1842L51.4443 68.6879C51.4004 48.7318 51.4443 44.8948 51.7294 43.2335C52.168 40.5437 53.8566 36.1134 56.0057 31.96C59.5803 25.1168 60.7645 21.5963 61.4224 16.0782L61.7952 12.973H69.8654C76.6198 12.973 77.9356 13.0126 77.9356 13.2499Z" fill="#27AE60"/>
<path d="M60.326 29.1319C60.019 29.4681 59.1418 31.525 56.7515 37.498C55.5673 40.4449 54.7558 43.3128 54.4708 45.6268C54.1418 48.1782 54.1637 71.4767 54.4927 71.8327C54.8874 72.2481 56.1594 72.1887 56.4444 71.7338C56.576 71.4767 56.6637 67.7189 56.6637 60.8955C56.6637 48.8308 56.8611 45.4488 57.6506 42.6205C58.155 40.8207 59.8874 36.2718 61.6857 32.059C62.0585 31.1888 62.3655 30.2395 62.3655 29.9428C62.3655 28.9143 61.0716 28.4001 60.326 29.1319Z" fill="#27AE60"/>
<path d="M119.493 25.1565C117.256 25.9081 115.217 28.7759 114.734 31.8019C114.427 33.8786 114.646 34.3929 115.414 33.2853C116.05 32.336 117.388 31.2679 119.756 29.8044C121.949 28.4595 122.76 27.5497 122.76 26.4816C122.76 25.1763 121.225 24.5632 119.493 25.1565Z" fill="#27AE60"/>
<path d="M8.37394 32.1579C7.80377 32.6919 7.71605 32.8699 7.8257 33.5028C8.02307 34.5906 9.47044 35.6784 11.8169 36.5091C13.988 37.2606 15.3915 38.0122 16.6196 39.0407L17.4748 39.7725L17.3433 38.7242C17.0362 36.252 14.5362 33.0875 12.102 32.059C10.4353 31.3668 9.22921 31.3866 8.37394 32.1579Z" fill="#27AE60"/>
<path d="M105.743 33.4041C103.199 34.7885 102.081 39.0804 103.352 42.5811C103.638 43.3722 103.945 44.0249 104.054 44.0249C104.142 44.0249 104.295 43.6887 104.383 43.2733C104.624 42.0867 105.852 39.8913 107.3 38.1113C109.23 35.7181 109.493 34.4919 108.309 33.4239C107.651 32.8305 106.795 32.8107 105.743 33.4041Z" fill="#27AE60"/>
<path d="M121.795 38.2494C120.107 38.7636 118.616 39.4757 117.059 40.5239C114.646 42.1655 113.352 43.629 110.545 47.9011C108.155 51.5403 106.203 53.1225 104.098 53.1225C102.936 53.1225 102.146 52.3512 101.927 50.9865C101.686 49.5427 101.466 49.1669 100.611 48.8505C99.6682 48.4944 98.813 48.6131 97.5629 49.2658C96.4884 49.8196 94.2515 51.8963 93.9445 52.6281C93.8129 52.9643 93.7252 59.9262 93.7252 72.2677C93.7252 93.2918 93.7691 92.5995 92.3656 95.1113C91.7296 96.2783 91.7296 96.2783 92.234 96.1398C93.4621 95.7838 96.8612 94.1818 98.7472 93.0544C103.396 90.2855 107.081 86.3299 110.48 80.5151C114.515 73.5928 118.396 70.2108 124.844 68.0154C127.124 67.2441 129.361 66.1958 130.348 65.4443C133.155 63.2687 132.475 60.4602 128.945 59.8075C127.168 59.4713 125.063 59.8273 120.765 61.2513C115.392 62.9918 113.287 63.0313 112.146 61.3898C111.466 60.4404 111.642 58.423 112.519 56.6628C114.339 53.0632 117.059 50.6107 122.278 47.8418C125.524 46.1211 127.081 45.0135 128.089 43.6884C128.857 42.6797 128.923 42.4819 128.923 41.2557C128.923 39.7921 128.616 39.2185 127.409 38.4076C126.554 37.8341 123.506 37.755 121.795 38.2494Z" fill="#27AE60"/>
<path d="M37.5845 38.8823C37.0582 39.357 37.0143 40.2668 37.4748 41.0579C37.6503 41.3546 38.3301 42.1852 38.988 42.8577C39.6678 43.5499 40.4792 44.5982 40.852 45.1915L41.488 46.2793L41.7511 45.3893C42.8038 41.9479 39.6459 37.0232 37.5845 38.8823Z" fill="#27AE60"/>
<path d="M8.52763 43.7086C8.15483 43.847 7.56272 44.2624 7.23377 44.6382C6.68553 45.2117 6.61974 45.4095 6.70746 46.3984C6.8171 47.8224 7.40921 48.5938 8.92237 49.2464C10.0627 49.7607 10.6987 49.9189 15.4355 50.8089C18.6154 51.422 20.1285 51.956 21.9487 53.0438C22.7382 53.5185 23.4619 53.9141 23.5715 53.9141C23.8127 53.9141 22.782 51.7385 21.861 50.354C19.2733 46.3786 14.4487 43.4119 10.5671 43.4317C9.79956 43.4515 8.87851 43.5701 8.52763 43.7086Z" fill="#27AE60"/>
<path d="M30.3919 44.4203C29.4051 44.9543 28.9446 46.0025 29.0981 47.3276C29.2516 48.6726 29.9314 49.8395 31.9928 52.3513C33.9884 54.7444 34.734 56.0695 34.8656 57.5133C35.0191 58.8583 34.5147 59.768 33.3086 60.4009C32.5191 60.8163 32.234 60.8558 30.2384 60.7767C28.2428 60.6976 27.6946 60.5592 24.1419 59.4516C20.8305 58.4231 20.0191 58.2254 18.6595 58.2254C16.9051 58.2056 15.984 58.5023 15.2384 59.3725C13.8788 60.935 14.7998 63.2094 17.6288 65.1675C18.2867 65.6421 19.9095 66.6508 21.2472 67.4222C22.5849 68.2133 24.4928 69.5384 25.5454 70.468C28.5718 73.0985 30.063 75.2543 32.3218 80.3175C32.9577 81.7217 33.813 83.4819 34.2077 84.194C36.0498 87.5167 39.3393 91.1163 42.6069 93.371C44.12 94.3994 47.1683 96.041 47.5849 96.041C47.7165 96.041 47.6069 95.6059 47.2779 95.0126C45.9841 92.5601 46.0498 93.6676 45.9183 72.4062L45.8086 52.8457L44.6463 52.9051C42.3656 53.0039 40.7648 51.8766 38.1551 48.3363C36.4446 45.9827 35.1946 44.7763 33.9446 44.3016C32.87 43.8863 31.2472 43.9456 30.3919 44.4203Z" fill="#27AE60"/>
<path d="M129.032 50.7693C127.497 51.0461 125.852 51.8966 124.515 53.1228C123.243 54.2897 122.497 55.1995 122.695 55.3775C122.738 55.4171 123.374 55.2787 124.098 55.0611C125.085 54.7446 126.203 54.6062 128.594 54.5073C130.984 54.4282 131.949 54.3095 132.475 54.0524C134.252 53.202 133.923 51.323 131.927 50.789C130.962 50.5319 130.458 50.5121 129.032 50.7693Z" fill="#27AE60"/>
<path d="M1.83913 52.648C0.457549 53.1623 0.128601 54.3687 1.18123 55.1796C1.97071 55.7532 2.45316 55.8521 5.5672 55.951C7.05843 56.0103 8.17685 56.1488 8.7251 56.3663C9.20756 56.5443 9.62422 56.6432 9.69001 56.6036C9.86545 56.4256 8.85668 55.1598 7.9137 54.3687C6.61984 53.2809 5.15054 52.6876 3.52773 52.6085C2.78211 52.5689 2.01457 52.5887 1.83913 52.648Z" fill="#27AE60"/>
<path d="M14.6241 74.4631C12.5188 75.3333 12.5407 77.588 14.646 78.5769C15.6986 79.0713 16.51 79.2296 19.1635 79.4273C22.3214 79.6647 24.1416 80.0602 26.0714 80.9107C26.9267 81.2667 27.6504 81.5436 27.6942 81.504C27.9355 81.2865 25.6986 78.3791 24.4267 77.2518C21.4442 74.6015 17.2337 73.395 14.6241 74.4631Z" fill="#27AE60"/>
<path d="M121.905 76.0261C120.282 76.5205 118.879 77.3314 117.563 78.4983C116.357 79.5466 115.063 81.1486 115.26 81.3068C115.326 81.3662 116.05 81.1684 116.883 80.8915C118.199 80.4366 118.879 80.3575 122.015 80.219C124.449 80.1201 125.874 79.9817 126.401 79.7839C128.725 78.8741 128.879 76.7776 126.686 75.947C125.699 75.5712 123.221 75.6107 121.905 76.0261Z" fill="#27AE60"/>
</svg>
