<svg width="1024" height="1024" viewBox="0 0 1024 1024" fill="none" xmlns="http://www.w3.org/2000/svg">
<path opacity="0.093" d="M386.209 177.155C391.461 176.92 396.695 177.128 401.908 177.78L402.951 177.916L403.497 177.991L404.003 178.211C409.35 180.533 412.85 184.688 414.296 190.358L414.429 190.878L414.419 191.415C413.745 230.983 419.969 269.318 433.094 306.44C440.749 325.066 450.254 342.664 461.608 359.236C469.869 367.965 477.652 377.067 484.959 386.543L486.427 388.461L486.687 388.803L486.868 389.191C490.044 396.004 492.852 402.952 495.29 410.034L495.772 411.453L495.845 411.668L495.893 411.89L504.632 452.672L504.699 452.988L504.716 453.312C505.555 470.268 505.583 487.148 504.802 503.954C516.424 481.655 532.46 462.562 552.885 446.708L552.985 446.63L553.091 446.559C585.778 424.367 619.854 404.404 655.319 386.666C671.25 376.554 687.21 366.397 703.201 356.195L703.716 355.867L704.304 355.708C711.425 353.772 717.964 353.885 723.426 356.85C728.726 359.727 732.28 364.893 734.457 371.575L734.664 372.227L734.702 372.353L734.733 372.481C744.349 413.048 748.269 454.197 746.489 495.917L746.485 495.998L746.479 496.079C742.534 543.406 726.237 585.884 697.61 623.428L697.473 623.607L697.315 623.771C662.557 660.002 619.744 677.917 569.136 677.435H569.092L569.048 677.433C555.321 677.001 541.668 676.317 528.093 675.387C517.333 689.729 508.467 705.133 501.49 721.602L501.442 721.716L501.387 721.827C498.321 727.971 494.158 732.485 488.649 734.531C483.136 736.579 477.053 735.866 470.755 733.189L470.276 732.986L469.866 732.668C463.993 728.107 461.486 721.866 462.519 714.495C463.296 706.471 465.643 698.923 469.551 691.884C477.525 677.162 486.656 663.178 496.941 649.931C497.007 649.536 497.073 649.141 497.139 648.746C497.214 648.296 497.288 647.846 497.363 647.396C491.753 625.807 488.573 603.873 487.823 581.596C477.036 607.553 460.6 630.201 438.542 649.501L438.347 649.671L438.131 649.815C400.761 674.803 359.948 682.314 315.955 672.318C293.161 671.365 271.718 676.035 251.557 686.333C235.411 697.734 224.133 712.703 217.651 731.334C211.615 758.017 208.749 785.073 209.052 812.508C211.972 820.461 211.878 828.532 208.792 836.536C207.173 840.749 204.153 843.77 199.94 845.39L199.799 845.443L199.654 845.487C194.189 847.128 188.969 847.308 184.208 845.619C179.431 843.924 175.576 840.509 172.562 835.803L171.972 834.883L171.933 833.791C170.958 806.993 170.958 780.193 171.933 753.395L171.94 753.184L171.97 752.975C175.458 728.533 183.398 705.706 195.78 684.524L195.977 684.188L196.235 683.895C207.537 671.099 220.168 659.953 234.124 650.465L234.366 650.3L234.63 650.172C258.552 638.59 283.864 632.387 310.529 631.568L311.064 631.553L311.585 631.677C348.645 640.559 378.817 638.058 402.548 624.861C426.257 611.677 444.225 587.432 456.108 551.389C466.169 514.711 468.086 477.543 461.858 439.845C459.075 430.534 456.275 421.199 453.459 411.844C427.059 383.045 407.086 350.294 393.559 313.617L393.527 313.53L393.499 313.443C384.971 286.583 379.091 259.144 375.86 231.129L375.85 231.038L375.844 230.946C374.86 216.683 374.86 202.421 375.844 188.158L375.896 187.413L376.212 186.736C378.029 182.858 380.757 179.794 384.381 177.691L385.229 177.199L386.209 177.155ZM700.988 405.245C670.34 424.353 638.932 442.34 606.769 459.207C583.132 472.423 562.986 489.703 546.307 511.065C529.579 541.144 524.381 573.014 530.721 606.844C576.677 557.53 618.242 504.953 655.416 449.108L656.097 448.086L657.233 447.622C664.856 444.507 671.992 443.67 677.713 446.867C683.47 450.084 686.367 456.58 687.469 464.618L687.554 465.234L687.446 465.848C685.951 474.423 682.557 482.262 677.3 489.325L673.699 494.369C637.977 544.219 599.395 591.881 557.958 637.359C586.967 639.212 611.953 634.297 633.083 622.82C656.084 610.327 674.857 589.874 689.299 561.145C703.558 522.877 709.282 483.289 706.473 442.34C704.718 432.73 703.742 423.007 703.546 413.175C702.962 410.267 702.106 407.63 700.988 405.245Z" fill="#27AE60" stroke="#27AE60" stroke-width="8"/>
<path opacity="0.097" d="M455.407 177.252C463.338 175.441 470.424 175.863 475.768 179.749C481.12 183.642 483.668 190.241 484.316 198.309L484.331 198.493L484.329 198.679C483.956 228.333 489.191 256.919 500.038 284.465C501.702 288.278 503.779 290.592 506.084 291.872C508.13 293.008 510.719 293.533 514.06 293.171C542.668 262.721 577.586 243.709 618.703 236.203L618.739 236.196L621.467 235.766C677.88 227.184 729.496 239.21 776.099 271.815L776.284 271.945L776.454 272.096C819.147 309.816 844.133 357.066 851.325 413.681L851.337 413.773L851.345 413.866C856.09 473.242 849.23 531.061 830.768 587.295C810.348 653.067 777.303 711.803 731.653 763.471L731.573 763.562L731.488 763.646C683.512 811.765 625.285 837.181 557.004 839.824C480.641 844.074 411.303 824.406 349.138 780.848L349.101 780.821L349.064 780.795C339.878 774.045 331.113 766.751 322.771 758.914C314.372 753.679 307.322 752.161 301.371 753.429C295.436 754.694 289.713 758.919 284.358 767.053C282.205 772.429 280.383 777.904 278.893 783.478C276.286 801.054 274.854 818.766 274.599 836.615L274.576 838.158L273.524 839.286C268.607 844.558 263.071 847.78 256.945 847.78C250.849 847.78 245.211 844.587 240.074 839.363L238.973 838.243L238.928 836.673C238.681 828.069 237.508 819.622 235.407 811.324L235.283 810.831L235.285 810.322C235.406 785.162 241.653 761.671 254.013 739.913L254.224 739.542L254.508 739.224C267.596 724.569 281.942 715.815 297.569 713.582C312.706 711.42 328.456 715.459 344.683 725.151L346.255 726.106L346.574 726.305L346.851 726.558C375.083 752.396 407.121 772.012 442.989 785.422C489.128 798.76 536.089 802.589 583.904 796.913C621.97 790.734 655.729 775.518 685.256 751.242C712.989 725.919 735.742 696.932 753.529 664.267C782.547 609.999 801.82 552.188 811.354 490.815C817.221 445.093 811.5 401.193 794.194 359.045C780.025 331.059 761.626 309.995 739.061 295.656C716.473 281.304 689.49 273.55 657.962 272.539C610.059 272.685 570.127 290.416 537.906 325.848L537.433 326.367L536.811 326.695C519.167 335.989 501.269 335.985 483.568 326.698L482.99 326.395L482.538 325.923C469.133 311.93 459.82 295.568 454.629 276.893L454.626 276.885L454.624 276.877C448.801 255.591 445.597 233.911 445.017 211.842L445.014 211.727L445.018 211.611C445.139 207.728 445.261 203.845 445.382 199.961C445.503 196.077 445.623 192.192 445.745 188.309L445.771 187.483L446.122 186.736C447.94 182.858 450.666 179.794 454.29 177.691L454.815 177.387L455.407 177.252Z" fill="#27AE60" stroke="#27AE60" stroke-width="8"/>
<path opacity="0.893" d="M384.229 188.579C387.528 185.137 391.466 182.695 395.92 183.1C400.366 183.504 403.812 186.609 406.464 190.583L407.149 191.609L407.137 192.844C406.686 237.179 414.602 279.872 430.887 320.954L431.707 323.021L430.384 324.809C428.196 327.764 425.06 329.283 421.406 329.341L416.558 329.418L416.578 329.298C416.44 329.547 416.305 329.8 416.176 330.056L412.237 337.862L408.905 329.778C390.689 285.572 382.093 239.389 383.117 191.262L383.15 189.704L384.229 188.579Z" fill="#27AE60" stroke="#27AE60" stroke-width="8"/>
<path opacity="0.892" d="M560.452 267.522C565.625 268.504 570.456 270.382 574.922 273.149L579 275.677L575.781 279.233C575.539 279.501 575.287 279.757 575.029 280.004L576.736 282.952L573.518 285.015C565.539 290.128 557.926 295.837 550.682 302.143L549.735 302.966L548.487 303.102C543.951 303.595 539.868 302.247 536.564 299.115L534.812 297.453L535.243 295.921L533.979 294.305C532.61 292.551 532.075 290.432 532.465 288.231L532.67 287.078L533.465 286.217C540.465 278.632 548.625 272.514 557.92 267.873L559.127 267.271L560.452 267.522Z" fill="#27AE60" stroke="#27AE60" stroke-width="8"/>
<path opacity="0.936" d="M464.216 183.122C468.039 183.122 471.319 185.204 474.049 188.106L474.588 188.697L475.581 189.821L475.591 191.321C475.786 223.305 481.038 254.388 491.352 284.589C494.42 291.873 499.225 297.61 505.836 301.878C510.61 302.658 515.073 301.897 519.363 299.564C523.991 294.723 528.804 290.164 533.804 285.889L542.291 278.632L541.774 281.541C541.78 281.536 541.786 281.531 541.791 281.525L541.995 281.321C542.001 281.315 542.007 281.309 542.013 281.303C542.019 281.297 542.025 281.291 542.031 281.285L542.272 281.044C542.278 281.038 542.284 281.031 542.29 281.025C542.296 281.019 542.303 281.014 542.309 281.008L542.846 280.471C542.852 280.465 542.857 280.458 542.863 280.452C542.869 280.446 542.876 280.441 542.882 280.435L543.419 279.897C543.425 279.891 543.431 279.885 543.437 279.879C543.443 279.873 543.449 279.867 543.455 279.861L543.715 279.602C543.721 279.596 543.726 279.589 543.732 279.583C543.738 279.577 543.745 279.571 543.751 279.565L543.77 279.547C547.128 276.129 551.349 274.668 556.056 275.527L562.863 276.771L558.388 282.049C555.688 285.233 552.597 287.94 549.126 290.161C549.054 290.519 549.047 290.886 549.103 291.281L549.618 294.93L556.633 294.168L551.284 301.485C543.623 311.965 533.858 319.929 522.047 325.336L521.654 325.517L521.232 325.608C507.683 328.555 495.312 325.883 484.456 317.597L484.044 317.282L483.726 316.872C471.142 300.689 462.874 282.401 458.934 262.062C454.123 238.665 452.154 215.042 453.028 191.199L453.079 189.826L453.964 188.773C456.693 185.525 460.105 183.122 464.216 183.122Z" fill="#27AE60" stroke="#27AE60" stroke-width="8"/>
<path opacity="0.094" d="M711.986 385.045C715.262 393.354 717.29 401.975 718.072 410.896C720.599 437.674 721.577 464.53 721.003 491.462L721 491.586L720.99 491.709C720.388 498.937 719.905 506.175 719.542 513.424L719.531 513.638L719.498 513.849C713.768 550.072 699.141 582.299 675.653 610.456L675.576 610.549L675.493 610.637C652.546 634.987 624.211 648.774 590.666 651.929L590.608 651.935L590.55 651.938C575.329 652.92 560.105 652.92 544.884 651.938L544.828 651.935L544.773 651.93C541.342 651.612 538.031 650.784 534.854 649.449L529.964 647.395L533.283 643.258C557.972 612.49 583.481 582.363 609.81 552.879C632.506 524.921 653.553 495.774 672.954 465.44C672.88 462.492 672.09 461.441 671.613 461.077C671.107 460.69 669.845 460.208 667.04 460.705C651.609 484.673 635.086 507.858 617.468 530.261L617.44 530.296L617.411 530.33C587.71 566.411 557.335 601.891 526.282 636.77L521.423 642.229L519.444 635.192C508.139 594.993 508.425 559.163 520.716 527.935C533.009 496.701 557.125 470.542 592.61 449.347L592.664 449.314L592.719 449.284C592.77 449.256 592.821 449.227 592.872 449.198C592.923 449.17 592.974 449.142 593.025 449.113C593.077 449.085 593.128 449.057 593.18 449.028C593.231 449 593.282 448.971 593.333 448.942C593.384 448.914 593.435 448.886 593.486 448.857C593.538 448.829 593.589 448.8 593.641 448.771L593.947 448.602C593.998 448.573 594.049 448.544 594.101 448.516C594.152 448.487 594.204 448.459 594.255 448.431C594.306 448.402 594.357 448.374 594.408 448.346C594.459 448.317 594.51 448.288 594.562 448.26C594.613 448.231 594.665 448.203 594.716 448.175C594.767 448.146 594.818 448.117 594.869 448.089C594.92 448.06 594.971 448.032 595.022 448.004C595.074 447.975 595.126 447.947 595.177 447.919C595.228 447.891 595.279 447.861 595.33 447.833C595.381 447.805 595.432 447.776 595.483 447.748C595.535 447.72 595.586 447.691 595.637 447.662C595.688 447.634 595.74 447.606 595.791 447.577C595.842 447.549 595.893 447.521 595.944 447.492C595.995 447.464 596.047 447.435 596.098 447.406C596.149 447.378 596.201 447.35 596.252 447.321C596.303 447.293 596.354 447.265 596.405 447.236C596.456 447.208 596.507 447.179 596.559 447.15C596.61 447.122 596.662 447.094 596.713 447.065C596.764 447.037 596.815 447.008 596.866 446.979L597.173 446.81C597.224 446.781 597.276 446.752 597.327 446.724C597.378 446.695 597.429 446.667 597.48 446.639C597.532 446.61 597.583 446.581 597.634 446.553C597.685 446.524 597.737 446.496 597.788 446.468C597.839 446.439 597.89 446.411 597.941 446.383C597.993 446.354 598.044 446.325 598.095 446.297C598.146 446.268 598.198 446.24 598.249 446.212C598.3 446.184 598.351 446.154 598.402 446.126L598.709 445.956C598.76 445.928 598.812 445.899 598.863 445.87L599.17 445.7C599.221 445.672 599.273 445.643 599.324 445.614C599.375 445.586 599.426 445.558 599.478 445.529C599.529 445.501 599.58 445.472 599.631 445.443C599.682 445.415 599.734 445.387 599.785 445.358C599.836 445.33 599.887 445.302 599.938 445.273C599.99 445.245 600.041 445.216 600.092 445.188C600.143 445.159 600.194 445.131 600.245 445.103C600.296 445.074 600.348 445.045 600.399 445.017L600.706 444.847C600.757 444.818 600.809 444.789 600.86 444.761L601.167 444.591C601.218 444.562 601.269 444.533 601.32 444.505C601.372 444.476 601.423 444.448 601.475 444.42C601.526 444.391 601.577 444.362 601.628 444.334C601.679 444.306 601.73 444.277 601.781 444.249C601.832 444.221 601.884 444.193 601.936 444.164C601.987 444.136 602.038 444.107 602.089 444.078C602.14 444.05 602.191 444.022 602.242 443.993C602.293 443.965 602.345 443.936 602.396 443.907L602.703 443.737C602.754 443.709 602.805 443.68 602.856 443.651C602.908 443.623 602.96 443.595 603.011 443.566C603.062 443.538 603.113 443.509 603.164 443.48C603.215 443.452 603.266 443.424 603.317 443.396C603.369 443.367 603.42 443.339 603.472 443.311C603.523 443.282 603.574 443.253 603.625 443.225C603.676 443.196 603.727 443.168 603.778 443.14C603.83 443.111 603.881 443.083 603.933 443.055C603.984 443.026 604.035 442.997 604.086 442.969C604.137 442.94 604.188 442.912 604.239 442.884C604.29 442.855 604.341 442.826 604.393 442.798C604.444 442.769 604.496 442.741 604.547 442.713C604.598 442.685 604.649 442.656 604.7 442.628C604.751 442.6 604.802 442.57 604.854 442.542C604.905 442.514 604.957 442.485 605.008 442.457C605.059 442.429 605.11 442.4 605.161 442.371C605.212 442.343 605.263 442.315 605.314 442.286C605.366 442.258 605.418 442.23 605.469 442.201C605.52 442.173 605.571 442.144 605.622 442.115C605.673 442.087 605.724 442.059 605.775 442.03C605.827 442.002 605.878 441.973 605.929 441.944C605.98 441.916 606.032 441.888 606.083 441.859C606.134 441.831 606.185 441.803 606.236 441.774C606.288 441.746 606.338 441.717 606.39 441.688C606.441 441.66 606.493 441.632 606.544 441.604C606.595 441.575 606.646 441.547 606.697 441.519C606.748 441.49 606.799 441.461 606.851 441.433C606.902 441.404 606.953 441.376 607.004 441.348C607.055 441.319 607.107 441.29 607.158 441.262L607.465 441.092C607.516 441.063 607.568 441.034 607.619 441.006C607.67 440.977 607.721 440.949 607.772 440.921C607.824 440.892 607.875 440.863 607.926 440.835C607.977 440.807 608.029 440.778 608.08 440.75C608.131 440.722 608.182 440.693 608.233 440.665C608.285 440.637 608.336 440.608 608.387 440.579C608.438 440.551 608.489 440.523 608.54 440.494C608.591 440.466 608.643 440.438 608.694 440.409C608.746 440.381 608.796 440.352 608.848 440.323C608.899 440.295 608.95 440.267 609.001 440.238C609.052 440.21 609.104 440.181 609.155 440.152L609.462 439.982C609.513 439.954 609.565 439.925 609.616 439.896C609.667 439.868 609.718 439.84 609.77 439.812C609.821 439.783 609.872 439.754 609.923 439.726C609.974 439.697 610.025 439.669 610.076 439.641C610.127 439.612 610.179 439.584 610.23 439.556C610.282 439.527 610.333 439.498 610.384 439.47C610.435 439.441 610.486 439.413 610.537 439.385C610.588 439.356 610.64 439.327 610.691 439.299L610.998 439.129C611.049 439.1 611.101 439.071 611.152 439.043L611.459 438.873C611.51 438.845 611.561 438.816 611.612 438.787C611.664 438.759 611.715 438.731 611.767 438.702C611.818 438.674 611.869 438.645 611.92 438.616C611.971 438.588 612.022 438.56 612.073 438.531C612.124 438.503 612.176 438.475 612.228 438.446C612.279 438.418 612.33 438.389 612.381 438.36C612.432 438.332 612.483 438.304 612.534 438.275C612.585 438.247 612.637 438.218 612.688 438.189L612.995 438.02C613.046 437.991 613.097 437.962 613.148 437.934C613.2 437.905 613.252 437.877 613.303 437.849C613.354 437.82 613.405 437.792 613.456 437.764C613.507 437.735 613.558 437.706 613.609 437.678C613.661 437.649 613.712 437.621 613.764 437.593C613.815 437.564 613.866 437.535 613.917 437.507L614.224 437.337C614.275 437.308 614.327 437.279 614.378 437.251C614.429 437.223 614.48 437.194 614.531 437.166C614.582 437.138 614.633 437.109 614.685 437.08C614.736 437.052 614.788 437.024 614.839 436.995C614.89 436.967 614.941 436.939 614.992 436.91C615.043 436.882 615.094 436.853 615.146 436.824C615.197 436.796 615.249 436.768 615.3 436.739C615.351 436.711 615.402 436.682 615.453 436.653L615.76 436.483C615.811 436.455 615.863 436.426 615.914 436.397L616.221 436.228C616.272 436.199 616.324 436.17 616.375 436.142C616.426 436.113 616.477 436.085 616.528 436.057C616.58 436.028 616.63 435.999 616.682 435.971C616.733 435.942 616.785 435.914 616.836 435.886C616.887 435.857 616.938 435.829 616.989 435.801C617.04 435.772 617.091 435.743 617.143 435.715C617.194 435.686 617.245 435.658 617.296 435.63C617.347 435.601 617.399 435.572 617.45 435.544L617.757 435.374C617.808 435.346 617.86 435.317 617.911 435.288C617.962 435.26 618.013 435.232 618.064 435.203C618.116 435.175 618.167 435.146 618.218 435.117C618.269 435.089 618.321 435.061 618.372 435.032C618.423 435.004 618.474 434.976 618.525 434.947C618.577 434.919 618.628 434.89 618.679 434.861C618.73 434.833 618.781 434.805 618.832 434.776C618.883 434.748 618.935 434.72 618.986 434.691C619.038 434.663 619.088 434.634 619.14 434.605C619.191 434.577 619.242 434.549 619.293 434.521C619.344 434.492 619.396 434.463 619.447 434.435L619.754 434.265C619.805 434.236 619.856 434.207 619.907 434.179C619.958 434.15 620.01 434.122 620.062 434.094C620.113 434.065 620.164 434.036 620.215 434.008C620.266 433.979 620.317 433.951 620.368 433.923C620.419 433.894 620.471 433.866 620.522 433.838C620.574 433.809 620.625 433.78 620.676 433.752C620.727 433.724 620.778 433.695 620.829 433.667C620.88 433.639 620.932 433.61 620.983 433.582C621.035 433.554 621.086 433.525 621.137 433.496C621.188 433.468 621.239 433.44 621.29 433.411C621.341 433.383 621.392 433.354 621.443 433.325C621.495 433.297 621.546 433.269 621.598 433.24C621.649 433.212 621.7 433.184 621.751 433.155C621.802 433.127 621.853 433.098 621.904 433.069C621.956 433.041 622.007 433.013 622.059 432.984C622.11 432.956 622.161 432.927 622.212 432.898C622.263 432.87 622.314 432.842 622.365 432.813C622.416 432.785 622.468 432.757 622.52 432.729C622.571 432.7 622.622 432.671 622.673 432.643C622.724 432.614 622.775 432.586 622.826 432.558C622.877 432.529 622.928 432.5 622.979 432.472C623.031 432.443 623.083 432.415 623.134 432.387C623.185 432.358 623.236 432.33 623.287 432.302C623.338 432.273 623.389 432.244 623.44 432.216C623.492 432.187 623.544 432.159 623.595 432.131C623.646 432.102 623.697 432.074 623.748 432.046C623.799 432.017 623.85 431.988 623.901 431.96C623.953 431.932 624.004 431.903 624.056 431.875C624.107 431.847 624.158 431.817 624.209 431.789L624.516 431.619C624.567 431.591 624.619 431.562 624.67 431.533C624.721 431.505 624.772 431.477 624.823 431.448C624.874 431.42 624.925 431.391 624.977 431.362C625.028 431.334 625.08 431.306 625.131 431.277C625.182 431.249 625.233 431.221 625.284 431.192C625.335 431.164 625.386 431.135 625.438 431.106C625.489 431.078 625.541 431.05 625.592 431.021C625.643 430.993 625.694 430.964 625.745 430.936L626.052 430.766C626.103 430.737 626.155 430.708 626.206 430.68L626.513 430.51C626.564 430.481 626.616 430.452 626.667 430.424C626.718 430.395 626.769 430.367 626.82 430.339C626.872 430.31 626.922 430.281 626.974 430.253C627.025 430.225 627.076 430.196 627.127 430.168C627.178 430.14 627.23 430.111 627.281 430.083C627.332 430.055 627.383 430.026 627.435 429.997C627.486 429.969 627.537 429.94 627.588 429.912C627.639 429.884 627.691 429.855 627.742 429.826L628.049 429.656C628.1 429.628 628.152 429.599 628.203 429.57L628.51 429.4C628.561 429.372 628.612 429.343 628.663 429.314C628.714 429.286 628.766 429.258 628.817 429.229C628.869 429.201 628.92 429.172 628.971 429.144C629.022 429.115 629.073 429.087 629.124 429.059C629.175 429.03 629.227 429.002 629.278 428.974C629.329 428.945 629.38 428.916 629.432 428.888C629.483 428.859 629.534 428.831 629.585 428.803C629.636 428.774 629.688 428.745 629.739 428.717L630.046 428.547C630.097 428.518 630.148 428.489 630.199 428.461C630.25 428.432 630.302 428.404 630.354 428.376C630.405 428.348 630.456 428.318 630.507 428.29C630.558 428.262 630.609 428.233 630.66 428.205C630.711 428.177 630.763 428.149 630.814 428.12C630.866 428.092 630.917 428.063 630.968 428.034C631.019 428.006 631.07 427.978 631.121 427.949C631.172 427.921 631.224 427.893 631.275 427.864C631.327 427.836 631.378 427.807 631.429 427.778C631.48 427.75 631.531 427.722 631.582 427.693C631.633 427.665 631.684 427.636 631.735 427.607C631.787 427.579 631.838 427.551 631.89 427.522C631.941 427.494 631.992 427.466 632.043 427.438C632.094 427.409 632.145 427.38 632.196 427.352C632.247 427.323 632.299 427.295 632.351 427.267C632.402 427.238 632.453 427.209 632.504 427.181C632.555 427.152 632.606 427.124 632.657 427.096C632.708 427.067 632.76 427.039 632.812 427.011C632.863 426.982 632.914 426.953 632.965 426.925L633.271 426.755C633.323 426.726 633.375 426.697 633.426 426.669C633.477 426.641 633.528 426.612 633.579 426.584C633.63 426.556 633.681 426.526 633.732 426.498C633.784 426.47 633.836 426.442 633.887 426.413C633.938 426.385 633.989 426.357 634.04 426.328C634.091 426.3 634.142 426.271 634.193 426.242C634.244 426.214 634.296 426.186 634.347 426.157C634.398 426.129 634.45 426.1 634.501 426.071L634.808 425.901C634.859 425.873 634.911 425.844 634.962 425.815C635.013 425.787 635.064 425.759 635.115 425.73C635.166 425.702 635.217 425.673 635.269 425.645C635.32 425.616 635.372 425.588 635.423 425.56C635.474 425.531 635.525 425.503 635.576 425.475C635.627 425.446 635.678 425.417 635.729 425.389C635.781 425.36 635.832 425.332 635.883 425.304C635.934 425.275 635.986 425.247 636.037 425.219C636.088 425.19 636.139 425.161 636.19 425.133C636.242 425.104 636.293 425.076 636.344 425.048C636.395 425.019 636.447 424.99 636.498 424.962L636.805 424.792C636.856 424.764 636.908 424.735 636.959 424.706C637.01 424.678 637.061 424.649 637.112 424.621C637.163 424.593 637.214 424.564 637.266 424.535C637.317 424.507 637.368 424.479 637.419 424.45C637.47 424.422 637.522 424.394 637.573 424.365C637.624 424.337 637.675 424.308 637.727 424.279C637.778 424.251 637.829 424.223 637.88 424.194C637.931 424.166 637.983 424.137 638.034 424.108L638.341 423.938C638.392 423.91 638.444 423.881 638.495 423.853L638.802 423.683C638.853 423.654 638.904 423.625 638.955 423.597C639.006 423.568 639.058 423.54 639.109 423.512C639.161 423.483 639.212 423.454 639.263 423.426C639.314 423.397 639.365 423.369 639.416 423.341C639.467 423.312 639.519 423.284 639.57 423.256C639.621 423.227 639.672 423.198 639.724 423.17C639.775 423.142 639.826 423.113 639.877 423.085C639.928 423.057 639.979 423.027 640.03 422.999C640.081 422.971 640.133 422.943 640.185 422.914C640.236 422.886 640.287 422.857 640.338 422.829C640.389 422.801 640.44 422.772 640.491 422.743C640.542 422.715 640.594 422.687 640.646 422.658C640.697 422.63 640.748 422.602 640.799 422.573C640.85 422.545 640.901 422.516 640.952 422.487C641.003 422.459 641.055 422.431 641.106 422.402C641.158 422.374 641.209 422.345 641.26 422.316L641.566 422.146C641.618 422.118 641.669 422.089 641.721 422.061C641.772 422.032 641.823 422.004 641.874 421.976C641.925 421.947 641.976 421.918 642.027 421.89C642.079 421.861 642.13 421.833 642.182 421.805C642.233 421.776 642.284 421.748 642.335 421.72C642.386 421.691 642.437 421.662 642.488 421.634C642.539 421.605 642.591 421.577 642.643 421.549C642.694 421.52 642.745 421.491 642.796 421.463L643.103 421.293C643.154 421.265 643.206 421.235 643.257 421.207L643.563 421.037C643.615 421.009 643.667 420.98 643.718 420.951C643.769 420.923 643.82 420.895 643.871 420.866C643.922 420.838 643.973 420.809 644.024 420.78C644.076 420.752 644.128 420.724 644.179 420.695C644.23 420.667 644.281 420.639 644.332 420.61C644.383 420.582 644.434 420.553 644.485 420.524C644.536 420.496 644.588 420.468 644.639 420.439C644.69 420.411 644.742 420.382 644.793 420.354L645.1 420.184C645.151 420.155 645.203 420.126 645.254 420.098C645.305 420.069 645.356 420.041 645.407 420.013C645.458 419.984 645.509 419.955 645.561 419.927C645.612 419.898 645.664 419.87 645.715 419.842C645.766 419.813 645.817 419.785 645.868 419.757C645.919 419.728 645.97 419.699 646.021 419.671C646.073 419.643 646.124 419.614 646.175 419.586C646.226 419.557 646.278 419.529 646.329 419.501C646.38 419.473 646.431 419.443 646.482 419.415C646.533 419.387 646.585 419.358 646.636 419.33C646.687 419.302 646.739 419.273 646.79 419.244L647.097 419.074C647.148 419.046 647.199 419.017 647.25 418.988C647.301 418.96 647.353 418.932 647.404 418.903C647.455 418.875 647.506 418.846 647.558 418.817C647.609 418.789 647.66 418.761 647.711 418.732C647.762 418.704 647.814 418.676 647.865 418.647C647.916 418.619 647.967 418.59 648.019 418.562C648.07 418.533 648.121 418.505 648.172 418.477C648.223 418.448 648.275 418.42 648.326 418.392C648.377 418.363 648.428 418.334 648.479 418.306C648.531 418.277 648.582 418.249 648.633 418.221C648.684 418.192 648.735 418.163 648.786 418.135C648.837 418.106 648.889 418.078 648.94 418.05C648.992 418.021 649.043 417.993 649.094 417.965C649.145 417.936 649.196 417.907 649.247 417.879C649.298 417.85 649.35 417.822 649.401 417.794C649.453 417.766 649.504 417.736 649.555 417.708C649.606 417.68 649.657 417.651 649.708 417.623C649.759 417.595 649.811 417.567 649.862 417.538C649.913 417.51 649.964 417.481 650.016 417.452C650.067 417.424 650.118 417.396 650.169 417.367C650.22 417.339 650.271 417.31 650.322 417.281C650.373 417.253 650.425 417.225 650.477 417.196C650.528 417.168 650.579 417.14 650.63 417.111C650.681 417.083 650.732 417.054 650.783 417.025C650.834 416.997 650.886 416.969 650.938 416.94C650.989 416.912 651.04 416.884 651.091 416.855C651.142 416.827 651.193 416.798 651.244 416.77C651.295 416.741 651.347 416.713 651.398 416.685C651.45 416.656 651.501 416.627 651.552 416.599L651.858 416.429C651.91 416.4 651.961 416.371 652.013 416.343C652.064 416.314 652.115 416.286 652.166 416.258C652.217 416.229 652.268 416.2 652.319 416.172C652.371 416.143 652.422 416.115 652.474 416.087C652.525 416.059 652.576 416.03 652.627 416.002C652.678 415.974 652.729 415.944 652.78 415.916C652.831 415.888 652.883 415.859 652.934 415.831C652.985 415.803 653.037 415.775 653.088 415.746C653.139 415.718 653.19 415.689 653.241 415.66C653.292 415.632 653.343 415.604 653.395 415.575C653.446 415.547 653.498 415.518 653.549 415.489L653.855 415.319C653.907 415.291 653.959 415.262 654.01 415.233C654.061 415.205 654.112 415.177 654.163 415.148C654.214 415.12 654.265 415.091 654.316 415.062C654.367 415.034 654.419 415.006 654.47 414.978C654.521 414.949 654.573 414.921 654.624 414.893C654.675 414.864 654.726 414.835 654.777 414.807C654.828 414.778 654.88 414.75 654.931 414.722C654.982 414.693 655.034 414.664 655.085 414.636L655.392 414.466C655.443 414.437 655.495 414.408 655.546 414.38L655.853 414.21C655.904 414.182 655.955 414.152 656.006 414.124C656.057 414.096 656.109 414.068 656.16 414.039C656.211 414.011 656.262 413.982 656.313 413.953C656.365 413.925 656.416 413.897 656.467 413.868C656.518 413.84 656.57 413.812 656.621 413.783C656.672 413.755 656.723 413.726 656.774 413.697C656.825 413.669 656.877 413.641 656.928 413.612C656.979 413.584 657.031 413.555 657.082 413.526L657.389 413.356C657.44 413.328 657.491 413.299 657.542 413.271C657.593 413.242 657.645 413.214 657.696 413.186C657.747 413.157 657.798 413.128 657.85 413.1C657.901 413.071 657.952 413.043 658.003 413.015C658.054 412.986 658.106 412.958 658.157 412.93C658.208 412.901 658.259 412.872 658.311 412.844C658.362 412.815 658.413 412.787 658.464 412.759C658.515 412.73 658.567 412.702 658.618 412.674C658.669 412.645 658.72 412.616 658.771 412.588C658.823 412.56 658.874 412.531 658.925 412.503C658.976 412.475 659.027 412.445 659.078 412.417C659.129 412.389 659.181 412.36 659.232 412.332C659.283 412.304 659.335 412.275 659.386 412.247C659.437 412.219 659.488 412.19 659.539 412.161C659.59 412.133 659.642 412.105 659.693 412.076C659.744 412.048 659.796 412.019 659.847 411.99L660.153 411.82C660.205 411.792 660.256 411.763 660.308 411.734L660.614 411.564C660.665 411.536 660.717 411.507 660.769 411.479C660.82 411.45 660.871 411.422 660.922 411.394C660.973 411.365 661.024 411.336 661.075 411.308C661.126 411.279 661.178 411.251 661.229 411.223C661.281 411.194 661.332 411.166 661.383 411.138C661.434 411.109 661.485 411.08 661.536 411.052C661.587 411.023 661.638 410.995 661.689 410.967C661.741 410.938 661.793 410.909 661.844 410.881L662.15 410.711C662.202 410.682 662.253 410.653 662.305 410.625C662.356 410.597 662.407 410.568 662.458 410.54C662.509 410.512 662.56 410.483 662.611 410.454C662.663 410.426 662.714 410.398 662.766 410.369C662.817 410.341 662.868 410.313 662.919 410.284C662.97 410.256 663.021 410.227 663.072 410.198C663.123 410.17 663.175 410.142 663.226 410.113C663.277 410.085 663.329 410.057 663.38 410.028C663.431 410 663.482 409.971 663.533 409.942C663.584 409.914 663.635 409.886 663.687 409.857C663.738 409.829 663.79 409.8 663.841 409.771L664.147 409.602C664.199 409.573 664.251 409.544 664.302 409.516C664.353 409.487 664.404 409.459 664.455 409.431C664.506 409.402 664.557 409.373 664.608 409.345C664.659 409.316 664.711 409.288 664.762 409.26C664.813 409.231 664.865 409.203 664.916 409.175C664.967 409.146 665.018 409.117 665.069 409.089C665.12 409.06 665.172 409.032 665.223 409.004C665.274 408.975 665.326 408.946 665.377 408.918L665.684 408.748C665.735 408.72 665.786 408.691 665.837 408.662C665.888 408.634 665.94 408.606 665.991 408.577C666.042 408.549 666.093 408.521 666.145 408.492C666.196 408.464 666.247 408.435 666.298 408.406C666.349 408.378 666.401 408.35 666.452 408.321C666.503 408.293 666.554 408.264 666.605 408.235C666.657 408.207 666.708 408.179 666.759 408.15C666.81 408.122 666.862 408.094 666.913 408.065C666.964 408.037 667.015 408.008 667.066 407.979C667.117 407.951 667.169 407.923 667.22 407.895C667.271 407.866 667.322 407.837 667.373 407.809C667.424 407.78 667.476 407.752 667.527 407.724C667.578 407.695 667.63 407.667 667.681 407.639C667.732 407.61 667.783 407.581 667.834 407.553C667.885 407.524 667.937 407.496 667.988 407.468C668.039 407.439 668.091 407.411 668.142 407.383C668.193 407.354 668.244 407.325 668.295 407.297C668.346 407.268 668.398 407.24 668.449 407.212C668.5 407.184 668.551 407.154 668.603 407.126L668.909 406.956C668.96 406.928 669.012 406.899 669.063 406.87C669.115 406.842 669.166 406.814 669.217 406.785C669.268 406.757 669.319 406.728 669.37 406.699C669.421 406.671 669.473 406.643 669.524 406.614C669.575 406.586 669.627 406.558 669.678 406.529C669.729 406.501 669.78 406.472 669.831 406.443C669.882 406.415 669.934 406.387 669.985 406.358C670.036 406.33 670.088 406.301 670.139 406.272L670.445 406.103C670.497 406.074 670.548 406.045 670.6 406.017L670.906 405.847C670.957 405.818 671.009 405.789 671.061 405.761C671.112 405.732 671.163 405.704 671.214 405.676C671.24 405.661 671.266 405.646 671.293 405.631C683.104 398.521 694.669 391.052 705.989 383.222L710.137 380.354L711.986 385.045ZM700.987 405.244C670.338 424.352 638.931 442.34 606.768 459.207C583.13 472.423 562.983 489.703 546.304 511.066C529.577 541.145 524.381 573.014 530.72 606.843C576.676 557.529 618.242 504.952 655.416 449.107L656.096 448.086L657.232 447.621C664.855 444.506 671.991 443.67 677.712 446.867C683.469 450.084 686.366 456.579 687.468 464.617L687.553 465.234L687.445 465.848C685.947 474.442 682.541 482.297 677.264 489.372C640.547 541.035 600.777 590.364 557.957 637.359C586.965 639.212 611.952 634.297 633.082 622.82C656.083 610.327 674.856 589.874 689.298 561.144C703.557 522.876 709.282 483.29 706.473 442.341C704.718 432.73 703.741 423.007 703.545 413.174C702.961 410.266 702.105 407.629 700.987 405.244Z" fill="#27AE60" stroke="#27AE60" stroke-width="8"/>
<path opacity="0.864" d="M725.195 370.769C737.896 411.95 742.074 454.24 737.733 497.602L737.731 497.617L737.73 497.633C735.939 514.217 732.739 530.466 728.128 546.379L726.821 550.888L722.577 548.883C721.845 548.537 721.184 548.13 720.592 547.671C720.427 548.156 720.282 548.652 720.154 549.157L712.276 548.124C712.39 539.893 713.056 531.923 714.277 524.22C712.375 520.799 711.455 517.081 711.549 513.129L711.55 513.076L711.553 513.023C711.92 505.687 712.408 498.361 713.018 491.045C714.782 468.671 714.782 446.066 713.016 423.231L713.012 423.167C712.753 418.924 713.016 414.71 713.801 410.533L716.694 410.446C717.101 404.578 717.763 398.747 718.682 392.95C715.363 385.768 714.995 378.264 717.587 370.657L721.563 358.99L725.195 370.769ZM719.188 410.185C718.702 410.185 718.28 410.277 717.927 410.41L720.243 410.341C719.936 410.247 719.584 410.185 719.188 410.185Z" fill="#27AE60" stroke="#27AE60" stroke-width="8"/>
<path opacity="0.549" d="M495.073 446.498C497.515 454.363 498.538 462.592 498.162 471.162L490.29 471.977C488.303 464.193 487.294 456.099 487.253 447.703L495.073 446.498Z" fill="#27AE60" stroke="#27AE60" stroke-width="8"/>
<path opacity="0.894" d="M423.039 317.053C423.614 317.788 424.087 318.561 424.46 319.364L428.033 314.539L430.823 320.801C442.19 346.317 457.551 369.062 476.916 389.055L478.803 390.98L479.229 391.411L479.509 391.948C488.283 408.8 493.482 426.681 495.098 445.562L495.243 447.393L495.253 447.528V447.665C495.291 455.439 496.225 462.88 498.042 469.998L498.153 470.434L498.165 470.884C499.416 519.067 488.82 564.411 466.389 606.851L466.308 607.004L466.214 607.149C439.467 648.625 401.037 669.213 351.392 668.696L351.213 668.694L351.035 668.677C331.325 666.705 311.555 665.74 291.728 665.783L291.348 665.784L290.975 665.714C286.691 664.903 282.754 663.214 279.195 660.667L272.822 656.105L273.489 655.882C271.321 655.37 269.15 654.7 266.98 653.866L257.922 650.385L266.802 646.472C271.713 644.307 277 642.994 282.635 642.506L282.713 642.499L282.792 642.495C297.427 641.809 312.07 641.551 326.719 641.723L329.649 641.763L330.157 641.771L330.648 641.906C337.694 643.846 345.086 644.775 352.839 644.676H352.887C357.25 644.673 361.309 644.217 365.078 643.326L365.366 643.258L365.661 643.233C402.566 640.112 429.764 622.462 447.653 590.021C475.003 533.885 480.267 475.805 463.459 415.588C457.69 403.386 449.803 392.748 439.774 383.649L439.486 383.388L439.254 383.075C426.986 366.596 416.872 348.835 408.914 329.797L408.203 328.098L409.033 326.453C411.037 322.482 413.859 319.106 417.448 316.345L420.595 313.925L423.039 317.053Z" fill="#27AE60" stroke="#27AE60" stroke-width="8"/>
<path opacity="0.969" d="M708.385 363.08C711.824 361.86 715.39 361.497 718.614 362.908C721.9 364.346 723.949 367.235 725.145 370.614L725.607 371.924L725.16 373.238C723.118 379.23 723.525 384.905 726.393 390.519L726.991 391.69L726.776 392.989C725.763 399.13 725.051 405.313 724.637 411.538L724.612 411.896L724.525 412.243C724.26 413.302 723.935 414.367 723.495 415.246C723.28 415.677 722.931 416.283 722.382 416.832C722.072 417.142 721.599 417.525 720.973 417.805C720.889 419.424 720.898 421.049 720.997 422.681L713.124 423.895C712.638 421.952 712.152 420.01 711.667 418.068C711.182 416.127 710.697 414.185 710.211 412.243L710.134 411.936L710.106 411.621C709.541 405.148 708.255 398.857 706.256 392.741C696.153 399.613 685.858 406.204 675.373 412.515L675.313 412.551L675.253 412.584C662.145 419.866 649.037 427.149 635.929 434.432C622.84 441.703 609.752 448.974 596.663 456.245C562.334 476.76 539.651 501.67 528.16 530.865C517.37 558.281 516.286 589.89 525.251 625.885C554.508 592.887 583.16 559.352 611.209 525.278C628.999 502.654 645.665 479.227 661.204 454.992L662.058 453.662L663.589 453.273C668.229 452.097 672.935 452.017 676.474 454.724C680.071 457.474 681.088 462.033 680.95 466.735L680.917 467.839L680.324 468.77C660.573 499.732 639.123 529.471 615.973 557.983L615.913 558.057L615.851 558.126C590.907 586.056 566.704 614.566 543.237 643.651C543.969 643.785 544.709 643.887 545.458 643.958C560.301 644.914 575.145 644.913 589.988 643.957C621.543 640.974 648.016 628.089 669.588 605.237C692.105 578.212 706.098 547.356 711.597 512.6L719.547 513.319C719.479 516.174 720.218 518.782 721.815 521.241L722.664 522.548L722.405 524.084C721.948 526.796 721.565 529.547 721.254 532.338L723.993 528.96L724.638 539.189C724.739 540.796 725.266 541.306 725.995 541.65L729.146 543.139L728.103 546.464C714.302 590.446 692.247 622.997 661.699 643.654C631.155 664.309 592.576 672.764 546.31 669.414L546.212 669.406C539.059 668.711 532.01 667.847 525.065 666.821C511.339 685.286 499.321 704.836 489.005 725.472L487.986 727.508L485.716 727.673C480.345 728.062 475.187 727.149 472.103 723.242C469.067 719.397 469.222 714.117 470.639 708.814L470.739 708.441L470.908 708.094C480.596 688.225 492.041 669.522 505.242 651.988C502.439 634.191 499.616 616.302 496.77 598.325L496.756 598.24L496.746 598.156C489.905 538.613 510.137 490.384 557.262 453.985L557.335 453.928L557.412 453.874C590.313 430.835 624.899 410.371 661.165 392.481C668.876 387.662 676.588 382.843 684.299 378.023C692.066 373.169 699.834 368.313 707.602 363.458L707.973 363.227L708.385 363.08Z" fill="#27AE60" stroke="#27AE60" stroke-width="8"/>
<path opacity="0.396" d="M329.885 641.772C341.908 642.674 353.952 643.156 366.018 643.218L366.917 651.111C362.489 652.158 357.809 652.672 352.892 652.675L352.891 652.674C344.443 652.777 336.316 651.764 328.524 649.618L329.885 641.772Z" fill="#27AE60" stroke="#27AE60" stroke-width="8"/>
<path opacity="0.965" d="M269.85 646.398C274.1 648.032 278.235 648.904 282.271 649.056C282.733 648.189 283.769 646.69 285.783 646.287C288.008 645.842 289.628 647.077 290.324 647.732C291.111 648.473 291.747 649.416 292.266 650.311L293.618 652.643L291.964 654.771C291.287 655.641 290.549 656.436 289.756 657.16C290.635 657.446 291.536 657.678 292.462 657.854L292.014 665.772C265.148 667.763 243.337 678.911 226.337 699.3L224.464 701.547L221.755 700.442C219.836 699.661 218.136 698.34 217.128 696.324C216.83 695.729 216.616 695.117 216.471 694.498C215.207 694.033 214.052 693.253 213.055 692.182L210.728 689.683L212.832 686.992C218.416 679.852 224.821 673.56 232.038 668.121L225.056 666.451L232.701 661.366C243.376 654.266 254.978 649.222 267.487 646.241L268.693 645.953L269.85 646.398Z" fill="#27AE60" stroke="#27AE60" stroke-width="8"/>
<path opacity="0.902" d="M247.211 658.955C248.131 659.876 249.111 661.318 249.111 663.239C249.111 665.161 248.132 666.604 247.211 667.524L246.849 667.887L246.406 668.146C237.927 673.121 230.468 679.125 224.014 686.16L225.272 685.926L224.292 691.594C224.216 692.033 224.215 692.331 224.232 692.513C224.241 692.602 224.254 692.661 224.264 692.695C224.273 692.728 224.281 692.743 224.282 692.746C224.283 692.748 224.283 692.749 224.284 692.75C224.286 692.752 224.296 692.764 224.318 692.783C224.367 692.825 224.498 692.922 224.773 693.034L229.551 694.981L226.475 699.123C214.681 715.005 207.411 732.821 204.65 752.636L204.648 752.651C200.809 779.457 199.847 806.358 201.766 833.362L201.916 835.479L200.247 836.791C197.108 839.257 193.572 840.746 189.783 840.367C186.003 839.989 182.817 837.836 180.19 834.812L179.277 833.759L179.215 832.367C177.954 804.006 178.443 775.683 180.68 747.399L180.689 747.278L180.706 747.157C185.803 710.895 203.137 682.233 232.608 661.429L234.086 660.385L235.846 660.806C237.504 661.202 239.369 660.865 241.74 658.779L244.558 656.302L247.211 658.955Z" fill="#27AE60" stroke="#27AE60" stroke-width="8"/>
<path opacity="0.947" d="M557.727 267.977C606.089 240.433 657.316 234 711.164 248.685L713.729 249.399L713.807 249.421L713.883 249.446C770.712 268.114 809.739 305.652 830.714 361.81L830.741 361.883L830.766 361.956C844.223 402.757 848.652 444.596 844.052 487.436L844.048 487.479L844.042 487.521C832.595 576.18 801.286 656.9 750.133 729.625L750.069 729.717L750 729.805C686.932 809.598 604.251 843.406 502.467 831.067C436.073 825.079 378.558 799.557 330.057 754.545C316.589 746.015 305.743 743.754 297.088 746.3C288.441 748.843 280.719 756.557 274.371 770.925C272.818 776.416 271.432 781.953 270.215 787.538C269.976 794.699 269.738 801.859 269.499 809.02C269.256 816.302 269.014 823.584 268.771 830.866L268.744 831.664L268.413 832.391C266.903 835.706 264.633 838.412 261.354 839.762C258.098 841.102 254.554 840.814 251.082 839.609L250.49 839.404L249.989 839.027C247.584 837.219 245.88 834.836 244.948 831.969L244.815 831.562L244.772 831.136C242.468 808.366 244.456 786.008 250.732 764.091L250.812 763.815L250.929 763.554C260.605 742.007 273.356 728.058 289.602 723.09C305.833 718.126 324.364 722.494 344.763 734.824L345.082 735.018L345.36 735.267C407.382 790.749 480.077 814.669 563.715 807.087L563.751 807.084L563.788 807.081C626.519 802.555 678.178 776.62 718.988 729.179C775.216 655.848 808.908 573.046 820.083 480.702L820.084 480.693C826.855 425.785 815.438 375.305 785.812 329.084C758.991 293.338 723.35 272.819 678.655 267.413L678.644 267.411C641.591 262.817 606.454 268.755 573.131 285.233L569.773 286.894L567.896 283.651C567.87 283.605 567.798 283.446 567.283 283.29L555.694 279.773L564.096 276.77C562.436 276.181 560.725 275.717 558.961 275.382L548.28 273.356L557.727 267.977Z" fill="#27AE60" stroke="#27AE60" stroke-width="8"/>
</svg>
