<svg width="1024" height="1024" viewBox="0 0 1024 1024" fill="none" xmlns="http://www.w3.org/2000/svg">
<path fill-rule="evenodd" clip-rule="evenodd" d="M610.747 182.445C609.861 183.25 608.953 184.157 608.024 185.169C602.63 183.067 597.183 181.252 591.682 179.722C591.981 181.322 591.527 182.683 590.32 183.807C581.538 180.151 573.141 176.972 565.127 174.274C563.938 174.594 562.803 175.049 561.723 175.636C560.888 173.621 560.434 171.805 560.361 170.189C559.419 170.904 558.738 171.812 558.318 172.913C556.797 172.688 555.208 172.234 553.552 171.551C551.783 172.354 550.649 173.716 550.147 175.636C549.694 175.183 549.239 174.728 548.786 174.274C546.39 178.582 543.667 179.035 540.615 175.636C540.217 178.123 540.445 180.619 541.296 183.126C541.303 186.072 539.941 188.114 537.21 189.254C537.495 190.052 537.95 190.733 538.572 191.297C608.285 217.958 678.19 244.741 748.289 271.643C751.865 272.998 755.497 273.451 759.183 273.005C764.934 269.629 770.835 266.45 776.887 263.472C776.433 263.019 775.978 262.564 775.525 262.11C777.34 260.748 779.157 259.387 780.972 258.025C778.75 256.241 776.479 255.56 774.163 255.982C771.724 258.587 769 260.857 765.992 262.791C763.502 260.536 761.685 257.812 760.545 254.62C759.747 254.905 759.066 255.36 758.502 255.982C757.594 253.259 757.594 250.535 758.502 247.811C760.687 247.038 761.594 245.676 761.226 243.726C753.763 240.827 746.273 237.876 738.756 234.874C737.616 233.498 737.163 231.908 737.395 230.108C758.901 238.367 780.237 246.992 801.399 255.982C803.391 262.257 801.575 267.251 795.952 270.962C795.043 269.6 794.136 268.238 793.228 266.877C791.951 272.331 791.723 277.778 792.547 283.218C790.594 279.011 789.46 274.926 789.143 270.962C788.021 275.435 787.34 279.974 787.1 284.58C787.003 278.02 784.961 276.886 780.972 281.175C782.721 282.942 782.493 284.531 780.291 285.942C778.651 284.619 777.971 283.258 778.248 281.856C777.185 283.53 776.504 285.345 776.206 287.303C775.984 374.514 775.303 459.853 774.163 543.321C774.163 456.166 774.163 369.011 774.163 281.856C772.348 281.856 770.531 281.856 768.716 281.856C683.104 250.027 597.765 217.797 512.698 185.169C477.606 198.837 442.199 212.002 406.478 224.661C404.043 225.049 401.773 224.595 399.669 223.299C401.578 221.471 401.125 220.336 398.307 219.895C403.015 220.061 406.647 218.244 409.202 214.447C409.05 212.102 408.369 211.876 407.159 213.766C404.453 212.789 401.955 211.427 399.669 209.681C398.337 210.331 397.203 211.238 396.264 212.405C395.193 210.756 394.284 209.394 393.541 208.319C392.352 208.639 391.216 209.094 390.136 209.681C389.123 207.651 388.216 205.608 387.413 203.553C390.538 202.213 390.083 201.079 386.051 200.148C380.8 203.281 375.353 204.642 369.709 204.234C376.269 201.633 382.625 198.683 388.775 195.382C382.427 196.94 376.072 198.983 369.709 201.51C368.883 201.341 368.429 200.888 368.348 200.148C413.253 182.893 458.192 165.417 503.166 147.719C509.521 146.811 515.875 146.811 522.231 147.719C551.911 159.402 581.417 170.977 610.747 182.445Z" fill="#27AE60"/>
<path fill-rule="evenodd" clip-rule="evenodd" d="M406.478 224.66C356.375 244.475 305.988 263.995 255.318 283.218C254.998 282.405 254.318 281.951 253.276 281.856C251.613 282.907 250.251 284.269 249.19 285.941C247.601 283.671 246.013 281.402 244.424 279.132C238.734 273.669 232.832 268.449 226.721 263.472C232.379 258.264 238.961 254.86 246.467 253.258C247.488 254.111 248.624 254.792 249.871 255.301C247.46 256.029 247.006 257.165 248.509 258.705C250.193 259.721 252.009 260.175 253.957 260.067C253.6 262.08 254.053 263.895 255.318 265.514C257.146 263.605 258.282 264.059 258.723 266.876C261.841 265.821 264.339 266.955 266.213 270.281C272.229 270.793 278.13 270.112 283.916 268.238C284.37 267.557 284.824 266.876 285.278 266.195C283.484 263.997 281.216 262.408 278.469 261.429C276.695 258.584 277.375 256.314 280.512 254.62C283.724 256.281 285.767 258.097 286.64 260.067C290.13 259.744 290.13 259.064 286.64 258.024C288.229 257.344 289.363 256.209 290.044 254.62C291.406 255.073 292.768 255.528 294.13 255.982C294.801 246.272 289.581 242.187 278.469 243.726C278.469 242.364 278.469 241.002 278.469 239.64C272.361 239.936 266.914 241.978 262.127 245.768C265.759 247.584 265.759 249.4 262.127 251.215C260.367 251.883 258.55 252.11 256.68 251.896C256.68 250.535 256.68 249.173 256.68 247.811C253.454 248.289 250.276 248.516 247.148 248.492C248.172 247.578 248.627 246.444 248.509 245.087C288.729 230.507 328.674 215.527 368.348 200.148C368.429 200.888 368.883 201.341 369.709 201.51C376.072 198.982 382.427 196.94 388.774 195.382C382.625 198.683 376.269 201.632 369.709 204.234C375.353 204.642 380.8 203.28 386.051 200.148C390.083 201.078 390.538 202.213 387.413 203.553C388.216 205.608 389.123 207.65 390.136 209.681C391.216 209.094 392.352 208.639 393.541 208.319C394.284 209.393 395.193 210.755 396.264 212.404C397.203 211.237 398.337 210.33 399.669 209.681C401.955 211.427 404.453 212.788 407.159 213.766C408.369 211.876 409.05 212.102 409.201 214.447C406.647 218.244 403.015 220.06 398.307 219.894C401.125 220.335 401.578 221.471 399.669 223.299C401.773 224.595 404.043 225.049 406.478 224.66Z" fill="#27AE60"/>
<path fill-rule="evenodd" clip-rule="evenodd" d="M610.747 182.445C653.058 198.563 695.274 214.451 737.395 230.108C737.163 231.908 737.617 233.497 738.756 234.874C746.273 237.875 753.763 240.826 761.226 243.725C761.594 245.676 760.687 247.037 758.502 247.811C757.594 250.534 757.594 253.258 758.502 255.982C759.066 255.359 759.747 254.904 760.545 254.62C761.685 257.812 763.502 260.535 765.992 262.791C769 260.857 771.724 258.587 774.163 255.982C776.479 255.559 778.75 256.24 780.972 258.024C779.157 259.386 777.34 260.748 775.525 262.11C775.978 262.563 776.433 263.018 776.887 263.472C770.835 266.45 764.934 269.628 759.183 273.004C755.497 273.451 751.865 272.997 748.289 271.642C678.19 244.74 608.285 217.958 538.572 191.296C537.95 190.733 537.495 190.052 537.21 189.254C539.941 188.114 541.303 186.071 541.296 183.126C540.445 180.618 540.217 178.122 540.615 175.636C543.667 179.035 546.39 178.581 548.786 174.274C549.239 174.727 549.694 175.182 550.148 175.636C550.649 173.716 551.783 172.354 553.552 171.55C555.208 172.234 556.797 172.687 558.318 172.912C558.738 171.812 559.419 170.903 560.361 170.188C560.435 171.805 560.888 173.62 561.723 175.636C562.803 175.049 563.938 174.594 565.127 174.274C573.141 176.972 581.538 180.15 590.321 183.806C591.527 182.683 591.981 181.321 591.682 179.721C597.183 181.252 602.63 183.067 608.024 185.168C608.953 184.156 609.861 183.249 610.747 182.445Z" fill="#27AE60"/>
<path fill-rule="evenodd" clip-rule="evenodd" d="M801.399 255.981C804.713 257.712 806.756 260.436 807.527 264.152C808.829 367.669 808.375 471.166 806.165 574.642C798.174 627.046 778.428 674.256 746.927 716.269C744.243 712.875 741.747 713.33 739.437 717.63C739.291 714.048 739.065 710.643 738.756 707.417C740.411 704.563 741.546 704.79 742.161 708.098C742.594 705.972 743.728 704.383 745.565 703.332C742.748 702.89 742.294 701.755 744.203 699.927C745.257 698.278 746.392 698.278 747.608 699.927C749.81 698.516 750.037 696.927 748.289 695.161C757.859 692.147 758.314 688.969 749.651 685.628C750.104 685.175 750.559 684.72 751.012 684.266C748.914 679.623 745.735 677.807 741.48 678.819C742.079 676.145 743.215 673.195 744.884 669.968C746.144 669.223 747.278 668.316 748.289 667.244C746.735 665.984 746.735 664.849 748.289 663.839C747.835 663.612 747.38 663.386 746.927 663.159C741.472 672.249 735.344 680.873 728.543 689.033C727.652 690.661 726.971 690.661 726.5 689.033C750.792 653.607 765.545 614.568 770.758 571.918C770.143 576.517 769.236 581.057 768.035 585.536C767.403 584.727 767.175 583.819 767.354 582.813C768.441 573.757 769.349 564.678 770.077 555.577C770.918 555.728 771.599 556.181 772.12 556.938C772.364 552.138 773.045 547.598 774.163 543.32C775.303 459.852 775.984 374.514 776.206 287.303C776.504 285.344 777.185 283.529 778.248 281.856C777.97 283.257 778.651 284.619 780.291 285.941C782.493 284.53 782.72 282.941 780.972 281.175C784.961 276.885 787.003 278.019 787.1 284.579C787.34 279.974 788.021 275.435 789.143 270.961C789.46 274.925 790.594 279.011 792.547 283.217C791.723 277.777 791.951 272.33 793.228 266.876C794.136 268.238 795.043 269.599 795.952 270.961C801.574 267.25 803.391 262.257 801.399 255.981Z" fill="#27AE60"/>
<path fill-rule="evenodd" clip-rule="evenodd" d="M255.319 283.218C253.754 283.614 252.846 284.749 252.595 286.623C253.719 375.796 254.4 464.993 254.638 554.216C258.431 598.086 271.823 638.486 294.811 675.416C293.086 674.616 291.724 674.616 290.726 675.416C297.036 686.003 303.845 696.217 311.153 706.056C310.925 706.737 310.699 707.418 310.472 708.099C309.11 706.737 307.748 705.375 306.386 704.013C305.522 706.01 304.386 707.826 302.982 709.46C303.435 710.369 303.89 711.276 304.344 712.184C302.62 713.851 301.03 715.666 299.577 717.631C298.216 717.178 296.854 716.723 295.492 716.269C293.997 718.267 291.954 719.403 289.364 719.674C294.171 727.033 299.618 733.842 305.705 740.101C303.788 740.53 301.973 740.076 300.258 738.739C293.199 731.087 286.617 723.144 280.512 714.908C280.695 717.208 281.376 719.478 282.555 721.717C248.432 678.677 227.324 629.652 219.231 574.643C216.564 540.195 215.428 505.695 215.827 471.146C216.956 480.435 217.637 489.967 217.87 499.744C218.778 423.937 218.778 348.131 217.87 272.324C217.348 271.567 216.667 271.113 215.827 270.962C216.619 264.719 219.343 259.498 223.998 255.301C232.202 251.893 240.373 248.488 248.51 245.088C248.627 246.444 248.172 247.579 247.148 248.492C250.276 248.517 253.455 248.289 256.681 247.811C256.681 249.173 256.681 250.535 256.681 251.897C258.55 252.111 260.367 251.883 262.128 251.216C265.76 249.401 265.76 247.584 262.128 245.769C266.915 241.979 272.362 239.936 278.469 239.641C278.469 241.002 278.469 242.364 278.469 243.726C289.582 242.187 294.801 246.273 294.13 255.982C292.768 255.529 291.407 255.074 290.045 254.62C289.364 256.21 288.229 257.344 286.64 258.025C290.131 259.064 290.131 259.745 286.64 260.068C285.767 258.097 283.725 256.282 280.512 254.62C277.376 256.314 276.695 258.585 278.469 261.429C281.216 262.409 283.485 263.998 285.278 266.196C284.825 266.877 284.37 267.557 283.917 268.238C278.13 270.112 272.23 270.793 266.213 270.281C264.339 266.956 261.842 265.821 258.723 266.877C258.282 264.059 257.146 263.606 255.319 265.515C254.054 263.896 253.6 262.08 253.957 260.068C252.01 260.175 250.193 259.722 248.51 258.706C247.007 257.166 247.46 256.03 249.872 255.301C248.624 254.792 247.489 254.111 246.467 253.259C238.961 254.86 232.379 258.265 226.721 263.472C232.833 268.449 238.735 273.669 244.425 279.133C246.014 281.403 247.602 283.672 249.191 285.942C250.252 284.269 251.613 282.908 253.276 281.856C254.318 281.952 254.999 282.405 255.319 283.218Z" fill="#27AE60"/>
<path opacity="0.65" fill-rule="evenodd" clip-rule="evenodd" d="M215.826 270.962C216.666 271.113 217.347 271.567 217.869 272.324C218.777 348.131 218.777 423.937 217.869 499.744C217.636 489.967 216.955 480.435 215.826 471.146C215.826 404.418 215.826 337.69 215.826 270.962Z" fill="#27AE60"/>
<path opacity="0.686" fill-rule="evenodd" clip-rule="evenodd" d="M768.716 281.855C770.531 281.855 772.348 281.855 774.163 281.855C774.163 369.01 774.163 456.165 774.163 543.32C773.045 547.598 772.364 552.138 772.12 556.938C771.599 556.181 770.918 555.728 770.078 555.577C770.986 464.79 771.893 374.004 772.801 283.217C771.043 283.54 769.681 283.087 768.716 281.855Z" fill="#27AE60"/>
<path fill-rule="evenodd" clip-rule="evenodd" d="M587.597 559.663C585.156 558.561 582.433 557.88 579.426 557.62C583.511 557.167 587.597 556.712 591.682 556.258C592.849 555.32 593.756 554.186 594.406 552.854C588.057 547.747 581.475 544.115 574.659 541.96C574.45 545.68 575.131 549.311 576.702 552.854C575.794 554.669 574.432 556.031 572.617 556.939C563.181 551.33 556.372 544.068 552.19 535.151C553.948 531.802 556.672 529.759 560.361 529.022C557.637 528.569 554.913 528.114 552.19 527.661C553.214 526.747 553.669 525.613 553.552 524.256C583.276 522.898 613.235 522.444 643.43 522.894C643.43 502.921 643.43 482.949 643.43 462.975C614.375 463.203 585.324 462.975 556.275 462.294C549.1 460.113 544.788 455.347 543.338 447.996C542.657 419.402 542.43 390.804 542.657 362.202C522.68 361.975 502.706 362.202 482.738 362.883C482.256 365.098 482.256 367.594 482.738 370.373C481.692 369.334 481.011 367.972 480.696 366.288C479.125 370.661 478.217 375.199 477.972 379.906C477.26 377.559 475.898 375.744 473.887 374.459C472.6 375.01 471.691 375.918 471.163 377.182C468.42 373.164 466.832 369.078 466.397 364.926C464.669 367.915 464.669 370.865 466.397 373.778C465.513 377.156 464.151 377.61 462.311 375.14C462.227 368.592 462.68 361.783 463.673 354.713C460.455 350.142 456.37 346.51 451.417 343.818C450.125 342.978 448.99 343.204 448.012 344.499C447.726 342.377 447.046 340.562 445.97 339.052C448.241 331.558 453.235 327.246 460.949 326.115C494.994 325.207 529.039 325.207 563.084 326.115C573.14 327.399 578.814 333.074 580.107 343.137C580.788 370.369 581.015 397.605 580.788 424.845C608.481 424.618 636.17 424.845 663.857 425.526C673.721 427.776 679.394 433.904 680.88 443.91C681.788 476.593 681.788 509.276 680.88 541.96C679.443 550.547 674.677 556.222 666.581 558.982C640.257 559.663 613.928 559.89 587.597 559.663Z" fill="#27AE60"/>
<path fill-rule="evenodd" clip-rule="evenodd" d="M445.97 339.052C447.046 340.562 447.727 342.377 448.013 344.499C448.991 343.204 450.125 342.978 451.417 343.818C456.37 346.51 460.455 350.142 463.673 354.712C462.681 361.783 462.227 368.592 462.312 375.139C464.151 377.61 465.513 377.156 466.397 373.778C464.669 370.865 464.669 367.915 466.397 364.926C466.833 369.078 468.421 373.163 471.163 377.182C471.692 375.918 472.6 375.01 473.887 374.458C475.898 375.744 477.26 377.559 477.972 379.906C478.217 375.199 479.126 370.66 480.696 366.288C481.012 367.972 481.693 369.334 482.739 370.373C482.966 395.798 482.739 421.217 482.058 446.634C480.611 454.889 475.845 460.109 467.759 462.294C439.165 462.975 410.567 463.203 381.966 462.975C381.966 465.245 381.966 467.514 381.966 469.784C380.982 469.215 380.301 468.308 379.923 467.061C379.528 469.163 378.621 470.979 377.199 472.508C372.41 471.278 368.097 469.235 364.262 466.38C364.973 461.289 364.065 456.296 361.539 451.4C361.992 450.946 362.447 450.492 362.9 450.038C359.2 447.56 355.796 444.61 352.687 441.186C351.847 439.894 352.073 438.76 353.368 437.782C352.077 437.124 350.715 436.898 349.282 437.101C348.209 472.935 347.528 508.797 347.24 544.683C346.774 541.797 345.64 541.343 343.835 543.321C343.608 509.274 343.835 475.229 344.516 441.186C347.012 433.243 352.234 428.022 360.177 425.526C388.317 424.845 416.461 424.618 444.608 424.845C444.171 396.144 444.625 367.546 445.97 339.052Z" fill="#27AE60"/>
<path fill-rule="evenodd" clip-rule="evenodd" d="M381.965 469.784C381.965 487.488 381.965 505.191 381.965 522.894C411.929 522.667 441.888 522.894 471.844 523.575C473.72 525.908 475.991 527.725 478.653 529.023C480.306 532.224 481.442 535.629 482.057 539.236C482.738 566.014 482.966 592.797 482.738 619.582C481.898 619.431 481.217 618.977 480.696 618.22C480.019 615.074 479.793 611.897 480.015 608.688C477.039 608.159 474.543 606.797 472.525 604.602C470.09 605.692 467.82 606.146 465.716 605.964C464.263 605.023 462.673 604.342 460.949 603.921C461.403 603.468 461.858 603.013 462.311 602.56C459.344 601.958 458.437 600.596 459.588 598.474C458.508 596.997 457.599 595.407 456.864 593.708C461.082 590.946 461.535 587.995 458.226 584.856C459.144 582.472 459.597 580.203 459.588 578.047C457.091 576.004 454.594 573.962 452.098 571.919C451.644 573.734 451.189 575.551 450.736 577.366C450.283 576.913 449.828 576.458 449.374 576.004C449.109 569.307 448.428 562.726 447.331 556.258C447.785 555.805 448.24 555.35 448.693 554.897C442.859 555.519 436.957 555.519 430.99 554.897C428.172 554.455 427.719 553.32 429.628 551.492C428.435 550.469 427.073 549.789 425.543 549.449C428.266 548.996 430.99 548.541 433.714 548.088C430.368 546.516 430.368 544.7 433.714 542.64C439.772 540.421 445.673 537.925 451.417 535.151C452.712 536.275 454.074 536.501 455.502 535.831C451.617 531.615 452.071 527.983 456.864 524.937C431.898 524.029 406.931 524.029 381.965 524.937C383.26 525.915 383.486 527.049 382.646 528.342C379.536 527.719 375.905 527.266 371.752 526.98C368.7 527.225 368.019 528.359 369.709 530.384C368.347 530.838 366.986 531.293 365.624 531.746C368.406 534.482 371.129 537.206 373.794 539.917C371.003 540.633 368.507 541.768 366.305 543.321C365.016 547.607 363.427 551.692 361.538 555.578C357.561 556.06 354.383 554.698 352.006 551.492C351.615 552.445 351.161 553.354 350.644 554.216C347.301 551.312 345.032 547.68 343.835 543.321C345.639 541.343 346.774 541.798 347.239 544.683C347.528 508.797 348.209 472.936 349.282 437.101C350.715 436.898 352.077 437.124 353.368 437.782C352.072 438.76 351.846 439.894 352.687 441.187C355.796 444.61 359.2 447.56 362.9 450.038C362.447 450.492 361.992 450.947 361.538 451.4C364.064 456.296 364.973 461.289 364.262 466.38C368.097 469.236 372.41 471.278 377.199 472.508C378.621 470.979 379.528 469.163 379.923 467.061C380.301 468.308 380.982 469.215 381.965 469.784Z" fill="#27AE60"/>
<path fill-rule="evenodd" clip-rule="evenodd" d="M482.739 619.582C482.739 620.944 482.739 622.306 482.739 623.667C502.712 623.667 522.684 623.667 542.658 623.667C542.43 595.066 542.658 566.468 543.339 537.874C544.247 535.151 545.154 532.427 546.062 529.703C548.775 528.117 551.271 526.302 553.552 524.256C553.669 525.613 553.214 526.747 552.19 527.661C554.914 528.114 557.638 528.569 560.361 529.022C556.672 529.759 553.948 531.802 552.19 535.151C556.372 544.068 563.181 551.33 572.617 556.939C574.433 556.031 575.794 554.669 576.703 552.854C575.131 549.311 574.45 545.68 574.66 541.96C581.476 544.115 588.057 547.747 594.406 552.854C593.757 554.186 592.85 555.32 591.683 556.258C587.597 556.712 583.512 557.167 579.426 557.62C582.433 557.88 585.157 558.561 587.597 559.663C582.055 558.312 579.331 560.355 579.426 565.791C580.954 591.416 581.182 617.064 580.107 642.732C578.954 652.964 573.281 658.638 563.085 659.755C529.493 660.663 495.903 660.663 462.312 659.755C452.793 658.866 447.118 653.645 445.289 644.094C444.608 615.954 444.381 587.81 444.608 559.663C416.007 559.89 387.409 559.663 358.815 558.982C355.533 558.165 352.81 556.577 350.645 554.216C351.162 553.354 351.615 552.445 352.006 551.492C354.384 554.698 357.561 556.06 361.539 555.578C363.428 551.692 365.017 547.607 366.305 543.321C368.507 541.768 371.003 540.633 373.795 539.917C371.13 537.206 368.406 534.482 365.624 531.746C366.986 531.293 368.348 530.838 369.71 530.384C368.02 528.359 368.701 527.225 371.752 526.98C375.906 527.266 379.536 527.719 382.647 528.342C383.487 527.049 383.261 525.915 381.966 524.937C406.932 524.029 431.899 524.029 456.865 524.937C452.071 527.983 451.618 531.615 455.503 535.831C454.074 536.501 452.713 536.275 451.417 535.151C445.673 537.925 439.773 540.421 433.714 542.64C430.368 544.699 430.368 546.516 433.714 548.088C430.991 548.541 428.267 548.996 425.543 549.449C427.074 549.789 428.436 550.469 429.629 551.492C427.719 553.32 428.173 554.455 430.991 554.897C436.958 555.519 442.86 555.519 448.694 554.897C448.24 555.35 447.786 555.805 447.332 556.258C448.428 562.726 449.109 569.307 449.375 576.004C449.828 576.458 450.283 576.913 450.737 577.366C451.19 575.551 451.645 573.734 452.098 571.919C454.595 573.962 457.092 576.004 459.588 578.047C459.598 580.203 459.144 582.472 458.226 584.856C461.536 587.995 461.082 590.946 456.865 593.708C457.6 595.407 458.508 596.997 459.588 598.474C458.438 600.596 459.344 601.958 462.312 602.559C461.858 603.013 461.404 603.468 460.95 603.921C462.674 604.342 464.263 605.023 465.716 605.964C467.82 606.146 470.09 605.692 472.525 604.602C474.544 606.797 477.04 608.159 480.015 608.688C479.793 611.897 480.019 615.074 480.696 618.22C481.218 618.977 481.899 619.431 482.739 619.582Z" fill="#27AE60"/>
<path fill-rule="evenodd" clip-rule="evenodd" d="M746.927 716.269C729.339 741.121 708.912 763.363 685.646 782.997C663.644 800.578 640.493 816.466 616.194 830.66C614.762 830.863 613.4 830.637 612.109 829.979C613.924 828.618 615.741 827.256 617.556 825.894C611.872 823.84 610.964 820.663 614.833 816.361C612.049 816.296 609.326 816.977 606.662 818.404C603.485 816.361 600.306 814.319 597.129 812.276C598.562 809.939 597.655 808.577 594.406 808.191C595.028 807.627 595.483 806.946 595.767 806.148C594.112 805.336 592.296 805.109 590.32 805.467C592.449 804.433 593.811 802.844 594.406 800.701C649.249 770.15 694.415 728.843 729.904 676.777C747.548 647.516 760.03 616.195 767.354 582.813C767.175 583.82 767.403 584.728 768.035 585.537C769.236 581.058 770.143 576.518 770.758 571.919C765.545 614.569 750.792 653.608 726.5 689.033C726.971 690.662 727.652 690.662 728.543 689.033C735.343 680.874 741.472 672.249 746.927 663.159C747.38 663.387 747.835 663.613 748.289 663.84C746.735 664.849 746.735 665.985 748.289 667.245C747.278 668.316 746.144 669.223 744.884 669.968C743.215 673.196 742.079 676.145 741.48 678.82C745.735 677.808 748.914 679.623 751.012 684.267C750.559 684.721 750.104 685.175 749.651 685.629C758.314 688.969 757.859 692.148 748.289 695.162C750.037 696.928 749.81 698.517 747.608 699.928C746.392 698.279 745.257 698.279 744.203 699.928C742.294 701.755 742.748 702.891 745.565 703.332C743.728 704.384 742.594 705.973 742.161 708.099C741.546 704.791 740.411 704.563 738.756 707.418C739.065 710.644 739.291 714.048 739.437 717.631C741.747 713.331 744.243 712.876 746.927 716.269Z" fill="#27AE60"/>
<path fill-rule="evenodd" clip-rule="evenodd" d="M294.811 675.415C304.64 691.481 315.762 706.461 328.175 720.354C379.336 772.593 439.028 811.631 507.251 837.469C506.244 837.29 505.336 837.518 504.527 838.15C506.943 839.471 509.439 840.606 512.017 841.554C517.18 839.287 522.399 837.698 527.678 836.788C516.177 841.482 506.645 848.744 499.08 858.577C500.465 860.005 500.692 861.594 499.761 863.343C497.33 864.351 494.834 865.259 492.271 866.066C487.34 862.466 481.893 859.97 475.929 858.577C478.883 856.693 480.926 853.289 482.058 848.363C483.873 847.455 485.235 846.093 486.143 844.278C486.596 844.731 487.051 845.186 487.505 845.64C487.803 841.218 487.576 837.132 486.824 833.383C479.417 829.566 471.927 825.936 464.354 822.489C461.842 824.466 459.799 826.962 458.226 829.979C456.935 830.637 455.573 830.863 454.141 830.66C454.447 825.817 453.313 825.362 450.736 829.298C444.546 824.925 443.41 825.834 447.332 832.022C446.861 833.65 446.18 833.65 445.289 832.022C443.773 833.737 443.546 835.327 444.608 836.788C443.255 838.598 441.893 840.413 440.523 842.235C445.619 846.843 451.521 850.474 458.226 853.129C456.465 853.797 454.649 854.024 452.779 853.81C392.573 826.528 340.143 788.398 295.491 739.419C290.849 733.659 286.536 727.758 282.554 721.716C281.375 719.477 280.694 717.207 280.512 714.907C286.617 723.143 293.198 731.087 300.258 738.738C301.972 740.076 303.788 740.529 305.705 740.1C299.618 733.841 294.171 727.032 289.363 719.673C291.954 719.402 293.996 718.267 295.491 716.269C296.853 716.722 298.215 717.177 299.577 717.631C301.03 715.666 302.619 713.85 304.343 712.183C303.89 711.275 303.435 710.368 302.981 709.46C304.385 707.826 305.521 706.009 306.386 704.013C307.748 705.374 309.109 706.736 310.471 708.098C310.699 707.417 310.925 706.736 311.152 706.055C303.845 696.216 297.036 686.003 290.725 675.415C291.723 674.616 293.085 674.616 294.811 675.415Z" fill="#27AE60"/>
<path fill-rule="evenodd" clip-rule="evenodd" d="M594.405 800.7C593.81 802.844 592.449 804.433 590.32 805.466C592.296 805.108 594.111 805.336 595.767 806.147C595.483 806.945 595.028 807.626 594.405 808.19C597.655 808.577 598.562 809.939 597.129 812.275C600.306 814.318 603.485 816.361 606.662 818.404C609.325 816.976 612.049 816.295 614.832 816.361C610.964 820.663 611.872 823.84 617.556 825.893C615.741 827.255 613.924 828.617 612.109 829.979C613.4 830.637 614.762 830.863 616.194 830.66C585.841 848.284 554.066 863.49 520.868 876.28C515.421 877.188 509.974 877.188 504.527 876.28C486.815 869.701 469.565 862.211 452.779 853.81C454.648 854.024 456.465 853.797 458.226 853.129C451.52 850.474 445.618 846.843 440.522 842.235C441.892 840.413 443.254 838.598 444.608 836.788C443.546 835.327 443.773 833.737 445.289 832.022C446.179 833.65 446.86 833.65 447.331 832.022C443.409 825.834 444.545 824.925 450.736 829.298C453.312 825.362 454.447 825.817 454.14 830.66C455.573 830.863 456.935 830.637 458.226 829.979C459.799 826.962 461.841 824.466 464.354 822.489C471.927 825.936 479.417 829.566 486.824 833.383C487.575 837.132 487.803 841.218 487.504 845.639C487.051 845.186 486.596 844.731 486.143 844.278C485.234 846.093 483.873 847.455 482.057 848.363C480.926 853.289 478.883 856.693 475.929 858.577C481.892 859.97 487.34 862.466 492.271 866.066C494.834 865.259 497.33 864.351 499.761 863.343C500.692 861.594 500.465 860.005 499.08 858.577C506.644 848.744 516.177 841.482 527.677 836.788C522.399 837.697 517.179 839.287 512.017 841.554C509.439 840.606 506.943 839.471 504.527 838.15C505.336 837.518 506.244 837.29 507.25 837.469C509.841 838.845 512.564 839.073 515.421 838.15C542.814 827.398 569.141 814.916 594.405 800.7Z" fill="#27AE60"/>
</svg>
