<svg width="1024" height="1024" viewBox="0 0 1024 1024" fill="none" xmlns="http://www.w3.org/2000/svg">
<path fill-rule="evenodd" clip-rule="evenodd" d="M197.925 196.362C199.777 196.034 201.447 196.451 202.936 197.615C210.592 214.609 218.316 231.73 226.112 248.978C242.918 256.825 259.83 264.341 276.848 271.527C278.012 273.017 278.429 274.686 278.101 276.538C260.66 283.466 243.122 290.147 225.486 296.582C218.748 312.37 211.858 328.239 204.815 344.186C202.588 351.803 199.665 352.22 196.046 345.439C189.162 329.638 182.272 313.771 175.376 297.835C158.253 290.331 141.132 283.024 124.013 275.912C122.504 273.113 123.338 271.025 126.519 269.648C142.713 262.904 158.789 256.014 174.749 248.978C182.827 231.572 190.553 214.034 197.925 196.362Z" fill="#27AE60"/>
<path fill-rule="evenodd" clip-rule="evenodd" d="M507.354 231.438C626.033 235.724 712.264 290.427 766.046 395.548C807.83 496.783 797.39 591.991 734.727 681.174C662.966 768.599 570.472 803.885 457.244 787.031C365.62 765.975 298.598 713.568 256.178 629.812C214.06 528.84 224.082 433.632 286.244 344.186C342.538 272.922 416.24 235.34 507.354 231.438ZM493.574 271.526C597.844 269.241 675.306 313.087 725.958 403.065C768.027 496.907 758.005 584.599 695.892 666.141C626.704 742.224 541.726 767.489 440.958 741.933C361.972 715.143 308.73 662.319 281.233 583.46C254.411 478.555 281.762 391.489 363.288 322.263C386.861 304.565 412.752 291.203 440.958 282.175C458.513 277.858 476.052 274.307 493.574 271.526Z" fill="#27AE60"/>
<path fill-rule="evenodd" clip-rule="evenodd" d="M810.518 223.922C812.418 223.936 813.88 224.77 814.903 226.427C817.77 236.546 822.155 245.941 828.056 254.614C836.693 258.724 845.462 262.483 854.364 265.889C855.018 266.592 855.435 267.427 855.617 268.394C845.899 273.459 835.877 278.261 825.551 282.801C821.239 291.842 817.272 301.028 813.65 310.361C812.947 311.015 812.111 311.432 811.144 311.614C806.353 302.032 801.551 292.427 796.738 282.801C787.896 277.903 778.71 273.727 769.177 270.273C768.191 269.344 767.357 268.3 766.672 267.142C776.001 262.425 785.606 258.248 795.485 254.614C800.333 244.293 805.344 234.062 810.518 223.922Z" fill="#27AE60"/>
<path fill-rule="evenodd" clip-rule="evenodd" d="M597.551 406.823C632.831 404.32 650.579 420.606 650.793 455.68C644.33 480.526 628.252 492.427 602.562 491.384C574.701 484.393 562.8 466.646 566.859 438.142C569.573 427.922 575.21 419.779 583.771 413.713C588.567 411.586 593.159 409.289 597.551 406.823Z" fill="#27AE60"/>
<path fill-rule="evenodd" clip-rule="evenodd" d="M402.122 406.824C440.078 404.067 457.825 421.605 455.364 459.439C442.939 488.509 421.852 497.488 392.1 486.373C369.541 470.017 364.738 449.347 377.694 424.362C384.04 415.879 392.183 410.032 402.122 406.824Z" fill="#27AE60"/>
<path fill-rule="evenodd" clip-rule="evenodd" d="M414.65 569.681C423.309 569.564 430.199 572.905 435.32 579.703C447.918 609.742 470.676 626.237 503.595 629.186C543.107 630.641 571.294 613.728 588.155 578.45C598.937 566.782 609.795 566.782 620.726 578.45C624.728 586.328 624.728 594.263 620.726 602.252C593.779 650.916 552.23 672.839 496.078 668.021C453.079 662.128 421.551 640.205 401.496 602.252C394.103 586.192 398.488 575.336 414.65 569.681Z" fill="#27AE60"/>
<path fill-rule="evenodd" clip-rule="evenodd" d="M819.287 674.911C820.943 674.698 822.405 675.116 823.672 676.164C831.505 692.757 839.231 709.46 846.848 726.274C864.703 734.362 882.66 742.505 900.716 750.703C899.463 751.955 898.21 753.208 896.958 754.461C880.609 761.387 864.324 768.277 848.101 775.131C840.183 790.749 832.876 806.616 826.177 822.735C823.255 829.416 820.331 829.416 817.408 822.735C810.617 806.585 803.309 790.507 795.485 774.505C779.357 767.593 763.072 760.912 746.628 754.461C743.492 752.226 743.492 750.138 746.628 748.197C762.989 741.496 779.275 734.606 795.485 727.527C804.115 710.27 812.049 692.732 819.287 674.911Z" fill="#27AE60"/>
<path fill-rule="evenodd" clip-rule="evenodd" d="M209.2 712.494C210.672 712.219 211.925 712.637 212.959 713.746C216.595 723.213 220.771 732.4 225.486 741.307C234.84 746.302 244.445 750.686 254.299 754.461C255.348 755.727 255.765 757.189 255.552 758.845C245.885 762.209 236.281 765.967 226.739 770.12C221.838 780.339 216.619 790.361 211.08 800.186C209.827 798.933 208.574 797.68 207.321 796.428C204.326 788.349 200.985 780.415 197.299 772.626C195.778 770.685 193.899 769.224 191.662 768.241C184.956 765.688 178.275 763.182 171.618 760.724C168.217 759.628 166.547 757.332 166.607 753.834C169.556 753.411 172.479 752.785 175.376 751.955C182.501 748.806 189.599 745.465 196.673 741.933C201 732.229 205.175 722.417 209.2 712.494Z" fill="#27AE60"/>
</svg>
