<svg width="65" height="65" viewBox="0 0 65 65" fill="none" xmlns="http://www.w3.org/2000/svg">
<path d="M52.8317 42.7246L53.963 45.5973C55.0722 48.4182 57.3052 50.6475 60.1224 51.7603L62.9951 52.8916L60.1224 54.0267C57.3052 55.1358 55.0759 57.3689 53.963 60.186L52.8317 63.0587L51.6967 60.186C51.1464 58.7924 50.3158 57.5266 49.2563 56.4671C48.1968 55.4076 46.931 54.577 45.5373 54.0267L42.6647 52.8916L45.5373 51.7603C46.9313 51.2096 48.1973 50.3784 49.2569 49.3183C50.3164 48.2581 51.1468 46.9916 51.6967 45.5973L52.8317 42.7246Z" fill="white" stroke="white" stroke-width="2.4" stroke-linejoin="round"/>
<path d="M23.6503 2.88814C23.946 1.7938 25.4988 1.7938 25.7946 2.88814L26.3639 5.00288C27.5363 9.35071 29.8291 13.3148 33.0133 16.4989C36.1975 19.6831 40.1615 21.9759 44.5093 23.1483L46.6241 23.7176C47.7184 24.0134 47.7184 25.5662 46.6241 25.862L44.5093 26.4313C40.1615 27.6037 36.1975 29.8965 33.0133 33.0807C29.8291 36.2649 27.5363 40.2289 26.3639 44.5767L25.7946 46.6915C25.4988 47.7858 23.946 47.7858 23.6503 46.6915L23.0809 44.5767C21.9085 40.2289 19.6157 36.2649 16.4316 33.0807C13.2474 29.8965 9.28333 27.6037 4.9355 26.4313L2.82076 25.862C1.72641 25.5662 1.72641 24.0134 2.82076 23.7176L4.9355 23.1483C9.28333 21.9759 13.2474 19.6831 16.4316 16.4989C19.6157 13.3148 21.9085 9.35071 23.0809 5.00288L23.6503 2.88814Z" fill="white" stroke="white" stroke-width="2.4" stroke-linejoin="round"/>
</svg>
