<svg width="103" height="103" viewBox="0 0 103 103" fill="none" xmlns="http://www.w3.org/2000/svg">
<path d="M49.2554 0.675346C42.2385 1.02538 35.1832 2.89215 28.9874 6.04235C18.956 11.1371 10.9001 19.2006 6.01274 29.066C-1.11953 43.4687 -1.15801 59.5308 5.89729 73.778C8.36024 78.7561 11.4261 82.9953 15.5823 87.2085C17.8657 89.516 19.7642 91.1365 22.4452 93.0292C33.4258 100.795 46.9335 103.867 60.2231 101.637C70.8446 99.8481 81.0299 94.4034 88.4957 86.5214C96.372 78.2246 101.028 68.4758 102.452 57.3789C102.773 54.7861 102.773 48.5246 102.452 45.9707C100.836 33.4996 95.551 23.0508 86.533 14.5466C77.8614 6.36644 66.2907 1.31058 54.8996 0.727203C51.9107 0.584602 51.2052 0.57164 49.2554 0.675346ZM57.2727 6.02939C64.0074 6.92388 69.8953 8.98512 75.6422 12.4853C77.8742 13.8465 80.645 15.8948 82.0048 17.2041L82.3768 17.5412L80.4398 19.5117C79.3879 20.5877 64.9181 35.2108 48.2933 51.9989L18.0709 82.5286L17.2756 81.6859C15.4797 79.7802 13.0039 76.3578 11.5159 73.7132C7.77016 67.0628 5.88447 60.3735 5.67922 52.9712C5.49963 46.3985 6.47455 40.8501 8.84769 34.8089C13.6325 22.6749 24.2539 12.5631 36.7354 8.23322C40.4426 6.94981 44.0344 6.19791 48.3574 5.79604C49.7043 5.67936 55.7975 5.83493 57.2727 6.02939ZM87.059 22.3378C89.7271 25.5917 91.4589 28.2622 93.2548 31.9699C94.7172 34.9515 95.5766 37.311 96.3848 40.4871C97.4752 44.7781 97.7959 47.682 97.7061 52.3878C97.6163 56.951 97.2314 59.6605 96.0898 63.7052C94.8583 68.0999 92.5108 73.0909 89.9709 76.7597C84.8397 84.175 78.3232 89.6975 70.5495 93.2107C66.3933 95.0904 62.4039 96.2313 57.4652 96.9443C55.4512 97.2295 48.6781 97.2684 46.5615 97.0091C38.9418 96.0627 32.2585 93.5607 25.9087 89.2956C24.472 88.3234 22.5735 86.8585 22.0732 86.301L21.7653 85.9769L53.8221 53.5545C71.4475 35.7294 85.9173 21.1451 85.9686 21.1451C86.0199 21.1451 86.5074 21.6896 87.059 22.3378Z" fill="#27AE60"/>
<path d="M50.7947 28.3917C50.6151 28.4435 48.8834 29.2862 46.9464 30.2455C45.0094 31.2178 42.7517 32.3197 41.9435 32.7086C40.3657 33.4605 39.9808 33.7976 39.7628 34.6272C39.6858 34.9254 39.6473 36.5977 39.6601 38.8016L39.6986 42.4703L40.9814 43.1185C43.2776 44.2853 43.6111 44.8816 43.6111 47.8244V49.6911L43.9062 49.6134C45.3172 49.1985 46.2023 49.2763 47.6775 49.9245L48.3318 50.2227L49.6274 49.0041C50.3457 48.3299 50.9615 47.6688 50.9999 47.5132C51.0384 47.3577 51.0513 45.9965 51.0256 44.4667C50.9871 41.7444 50.9743 41.6795 50.6408 40.9665C50.1277 39.9424 49.3708 39.2423 48.1009 38.6331C47.4979 38.3349 45.6379 37.4274 43.9575 36.5977C41.084 35.1847 40.9044 35.081 40.9429 34.7698C40.9686 34.5495 41.0712 34.4198 41.238 34.3939C41.3919 34.368 43.3802 35.2365 45.6636 36.3255C47.9598 37.4015 50.0507 38.3738 50.3329 38.4645C51.0641 38.7238 52.2058 38.6849 53.0011 38.3738C53.3731 38.2312 55.3999 37.207 57.5037 36.1051C59.6074 35.0032 61.4675 34.1087 61.6342 34.1087C62.0062 34.1087 62.1986 34.5754 61.9421 34.8217C61.8395 34.9125 60.2873 35.7681 58.4914 36.7144C53.2833 39.4368 53.1037 39.5664 52.4367 41.0702C52.1801 41.6277 52.1416 41.9518 52.1031 44.0519C52.0775 45.3612 52.0903 46.4243 52.1288 46.4243C52.1673 46.4243 54.3095 44.2982 56.8751 41.6925C60.8645 37.6478 61.5572 36.8959 61.5957 36.5329C61.6342 36.157 61.6727 36.1181 62.0704 36.1051C62.3911 36.0922 62.6091 35.9755 62.8913 35.6643C63.212 35.3014 63.2505 35.1717 63.1736 34.7828C62.9555 33.5901 62.622 33.3049 60.0307 32.1252C58.8634 31.5937 56.6185 30.5307 55.0279 29.7658C52.1801 28.4046 51.4489 28.1713 50.7947 28.3917ZM52.3854 29.3251C53.3603 29.6492 53.7451 29.9733 53.4885 30.2844C53.2705 30.5437 53.1422 30.5307 52.411 30.1547C51.6542 29.7658 51.4104 29.7529 50.6793 30.0899C49.9481 30.427 49.5119 30.427 49.5119 30.0899C49.5119 29.7918 49.9352 29.4806 50.6921 29.2473C51.4233 29.0139 51.4361 29.0139 52.3854 29.3251ZM41.1867 36.494C41.3662 36.87 41.2508 37.4274 40.9814 37.5182C40.712 37.6348 40.4042 37.2589 40.4042 36.8441C40.4042 36.1829 40.9429 35.9496 41.1867 36.494Z" fill="#27AE60"/>
<path d="M25.7163 41.9389C19.0843 45.1928 19.482 44.9724 19.1484 45.6465C18.8534 46.2169 18.8534 46.2558 18.8534 52.3228C18.8534 56.0564 18.9047 58.5973 18.9817 58.8955C19.1869 59.6214 19.777 60.0363 22.009 60.9956C23.1251 61.4882 25.3699 62.4864 26.9734 63.2254C28.5769 63.9643 30.1162 64.6255 30.3984 64.7032C30.9629 64.8588 31.7582 64.7292 32.2585 64.3921L32.5792 64.1847V60.4641C32.5792 56.3416 32.6177 56.0434 33.3488 55.2008C33.7593 54.7341 34.4905 54.3322 38.1208 52.5173L42.4181 50.3783L42.5207 48.6152C42.6362 46.2817 42.5336 45.5947 41.9178 44.9076C41.7767 44.752 39.3651 43.5593 36.5686 42.263C32.3098 40.2795 31.3734 39.8776 30.7833 39.8387C30.0906 39.7999 29.9623 39.8517 25.7163 41.9389ZM32.143 40.9925C32.5792 41.2129 32.7716 41.3814 32.7716 41.5629C32.7716 41.9259 32.3226 41.9648 31.694 41.6407C31.0398 41.2907 30.5524 41.3036 29.834 41.6407C29.2055 41.9518 28.8591 41.9 28.8591 41.4981C28.8591 41.3036 29.0387 41.1351 29.539 40.9018C30.36 40.4999 31.2322 40.5258 32.143 40.9925ZM41.3662 45.7761C41.4175 45.9317 41.3919 46.1262 41.3021 46.2299C41.2251 46.3206 39.4292 47.3188 37.3126 48.4467C35.1063 49.6134 33.2334 50.6894 32.8999 50.9876C32.5535 51.2987 32.1687 51.8302 31.9121 52.3617L31.4888 53.2303L31.4247 58.4029C31.3605 63.1476 31.3477 63.5884 31.1425 63.718C30.9757 63.8217 30.8474 63.8217 30.6935 63.718C30.4754 63.5884 30.4626 63.1476 30.3984 58.4677L30.3343 53.3599L29.9366 52.5173C29.3337 51.2469 28.8206 50.819 26.486 49.6912C25.3571 49.1467 23.4586 48.2004 22.2528 47.5911C20.3029 46.6058 20.072 46.4503 20.072 46.1651C20.072 45.9317 20.149 45.828 20.3542 45.8021C20.521 45.7761 22.3041 46.554 24.6131 47.6429C29.8212 50.119 29.757 50.0931 30.8474 50.0931C31.9506 50.0931 31.9249 50.106 36.8765 47.5392C38.9931 46.4373 40.8531 45.5298 41.0071 45.5298C41.1738 45.5169 41.3149 45.6206 41.3662 45.7761ZM41.6228 48.1096C41.6228 48.6411 41.5971 48.693 41.3021 48.693C41.0327 48.693 40.9686 48.6282 40.9429 48.2652C40.8916 47.7855 41.1097 47.4355 41.4175 47.4874C41.5715 47.5133 41.6228 47.6818 41.6228 48.1096ZM20.3286 48.3689C20.3286 48.9004 20.3029 48.9523 20.0079 48.9523C19.7385 48.9523 19.6744 48.8874 19.6487 48.5245C19.5846 47.9152 19.7 47.6948 20.0336 47.7466C20.2901 47.7855 20.3286 47.8633 20.3286 48.3689ZM20.4056 57.3398C20.4954 58.4029 20.7006 58.7269 21.5216 59.1159C22.2399 59.4529 22.4195 59.7252 22.1373 60.0104C21.9706 60.1789 21.8808 60.1789 21.3933 59.9844C19.9951 59.414 19.6231 58.9084 19.6231 57.5472C19.6231 56.6916 19.777 56.3675 20.1362 56.4324C20.2773 56.4583 20.3542 56.7046 20.4056 57.3398ZM28.9874 62.1753C29.4107 62.3957 29.4748 62.642 29.1798 62.8883C29.0259 63.018 28.8719 63.005 28.4101 62.8235C27.9483 62.655 27.8329 62.5513 27.8329 62.292C27.8329 62.0327 27.897 61.9809 28.2177 61.9809C28.4358 61.9809 28.7821 62.0716 28.9874 62.1753Z" fill="#27AE60"/>
<path d="M45.0219 50.4042C44.8423 50.4431 43.1747 51.2209 41.3018 52.1543C39.4289 53.0877 37.1584 54.2156 36.2348 54.6693C34.5415 55.486 33.9899 55.9138 33.7462 56.575C33.6564 56.8083 33.6051 58.4806 33.6051 61.1123V65.2866L36.4657 62.3827C38.0307 60.7882 39.2622 59.4659 39.1852 59.427C39.1211 59.4011 38.1333 58.8955 37.0045 58.3121C35.2086 57.3787 34.952 57.2102 34.9135 56.912C34.8879 56.6916 34.952 56.5361 35.0675 56.4972C35.1701 56.4583 36.2989 56.912 37.5817 57.5213C38.8517 58.1177 39.9549 58.6103 40.0318 58.6103C40.1986 58.6103 46.3047 52.4784 46.3047 52.2969C46.3047 51.908 45.2271 51.8951 44.4574 52.271C43.8417 52.5821 43.4825 52.5303 43.4825 52.1414C43.4825 51.9728 43.6878 51.7913 44.1496 51.558C44.9064 51.1691 45.907 51.1172 46.4329 51.4154C46.8819 51.6747 47.1769 51.6487 47.3309 51.3506C47.4592 51.1043 47.4078 51.0524 46.7921 50.7802C46.0481 50.4431 45.5093 50.3264 45.0219 50.4042ZM35.1188 58.5066C35.4651 58.8566 35.2599 59.6474 34.8237 59.6474C34.4646 59.6474 34.3106 59.1807 34.5031 58.6881C34.6313 58.3251 34.8751 58.2603 35.1188 58.5066Z" fill="#27AE60"/>
<path d="M70.4855 38.5165C70.3444 38.5813 68.7024 40.1759 66.8295 42.0686L63.443 45.504L65.3543 46.4374C69.921 48.6283 70.4983 48.8357 71.6785 48.719C72.4481 48.6412 72.8714 48.4468 78.6696 45.4392C80.132 44.6873 81.4148 44.1039 81.5174 44.1428C81.7483 44.2335 81.774 44.791 81.5559 44.9725C81.4661 45.0503 79.6574 46.0225 77.5408 47.1374C71.9094 50.0932 71.7939 50.2487 71.7811 54.6435L71.7683 57.2362L74.9111 58.7011C76.63 59.5049 78.1309 60.166 78.2335 60.166C78.3361 60.166 79.2469 59.7771 80.2603 59.2974C82.3256 58.3381 82.8002 57.9362 82.9285 57.0288C82.9669 56.7177 82.9926 53.749 82.9669 50.4302L82.9285 44.4021L82.5821 43.8706C82.3512 43.5076 82.0177 43.2353 81.5559 43.002C80.5938 42.5353 73.0639 39.061 72.2172 38.698C71.486 38.3869 70.9344 38.3221 70.4855 38.5165ZM72.4353 39.5666C73.1537 39.8648 73.3589 40.137 73.0639 40.4352C72.8971 40.6037 72.7817 40.5907 72.1146 40.2926C71.2038 39.8777 71.0371 39.8648 70.3059 40.2018C69.549 40.5518 69.2668 40.5389 69.2668 40.1629C69.2668 39.9296 69.4079 39.7999 69.8826 39.5796C70.9088 39.1129 71.2551 39.1129 72.4353 39.5666ZM81.9536 46.217C82.0433 46.3207 82.0947 46.6318 82.069 46.9041C82.0305 47.3319 81.992 47.3967 81.7098 47.3967C81.4276 47.3967 81.3891 47.3319 81.3506 46.9041C81.3122 46.4374 81.4789 46.0355 81.7098 46.0355C81.7611 46.0355 81.8766 46.1133 81.9536 46.217ZM82.069 55.0064C82.2486 55.1879 82.2742 56.3028 82.0947 56.9121C82.0305 57.1584 81.8381 57.4955 81.6842 57.677C81.0813 58.3252 79.9011 58.7141 79.7472 58.3122C79.6445 58.04 79.8498 57.8066 80.4527 57.5214C81.1326 57.1843 81.4533 56.601 81.4533 55.6676C81.4533 55.0713 81.5302 54.9027 81.8509 54.8638C81.8894 54.8509 81.9792 54.9157 82.069 55.0064Z" fill="#27AE60"/>
<path d="M60.8902 48.084L59.2611 49.7564V53.6066C59.2611 57.2105 59.2739 57.4828 59.5177 57.9624C59.7999 58.5069 59.9025 58.5588 60.2873 58.3513C60.5311 58.2217 60.5311 58.2087 60.2745 57.7809C60.0693 57.418 60.0308 57.1587 60.0564 56.3809C60.0949 55.4734 60.1077 55.4345 60.4156 55.4345C60.7235 55.4345 60.7363 55.4864 60.8004 56.2771C60.8774 57.1716 61.0827 57.7032 61.3649 57.7032C61.4675 57.7032 62.4809 57.2365 63.6226 56.679C64.7642 56.1086 65.9957 55.5771 66.3549 55.4993C67.2015 55.3178 68.061 55.4993 69.5234 56.1475C70.1263 56.4197 70.665 56.5883 70.7292 56.5364C70.7933 56.4716 70.8062 55.4734 70.7805 54.3067C70.7292 52.5695 70.665 52.0639 70.447 51.4935C70.0878 50.5472 69.626 49.9119 68.9589 49.4323C68.3047 48.9526 63.0838 46.4247 62.7503 46.4247C62.622 46.4247 61.7882 47.1766 60.8902 48.084Z" fill="#27AE60"/>
<path d="M52.7189 56.3413C51.6285 57.4432 50.7819 58.3507 50.8204 58.3507C50.8717 58.3507 51.9877 57.7932 53.2962 57.1061C54.5918 56.432 55.7719 55.8876 55.8874 55.9135C56.2466 55.9783 56.2594 56.5876 55.9002 56.8209C55.7334 56.9247 53.9632 57.884 51.9492 58.947C48.7551 60.6323 48.1907 60.9823 47.5108 61.6564C46.2024 62.9658 46.2024 62.9787 46.1767 68.7995C46.1639 71.5089 46.1254 73.8424 46.0869 74.0109C46.0228 74.2572 45.9458 74.3091 45.6123 74.2702L45.2146 74.2313L45.1761 69.3051C45.1633 66.6086 45.0992 64.3399 45.0479 64.2881C44.9965 64.2362 43.252 65.9085 41.1739 68.0087C39.0957 70.1088 37.4281 71.8459 37.4538 71.8719C37.4923 71.8978 38.4159 72.3386 39.5062 72.8312C45.189 75.4369 45.3301 75.4888 46.3306 75.1647C46.7026 75.048 48.5755 74.1665 50.4997 73.2071L53.9889 71.47L54.0273 67.0105L54.0658 62.5639L54.4378 61.8768C54.874 61.099 55.2845 60.736 56.4775 60.1526L57.3369 59.7248V58.0655C57.3369 56.2765 57.2215 55.7579 56.6827 55.2523C56.2979 54.8893 55.246 54.3319 54.9381 54.3319C54.8098 54.3319 53.8093 55.2394 52.7189 56.3413ZM56.5159 58.3118C56.6186 58.6877 56.3877 59.2581 56.1439 59.2581C55.6821 59.2581 55.4897 58.4155 55.8617 58.0395C56.1183 57.7803 56.4261 57.9099 56.5159 58.3118ZM43.5342 72.6627C43.7779 72.7664 43.996 72.909 44.0473 72.9738C44.1884 73.2071 43.9703 73.5183 43.6625 73.5183C43.2135 73.5183 42.4566 73.1164 42.4566 72.8701C42.4566 72.4293 42.8286 72.3645 43.5342 72.6627Z" fill="#27AE60"/>
<path d="M63.4301 57.9881C61.8138 58.7918 59.4278 59.9715 58.145 60.5938C55.9643 61.6568 55.7847 61.7605 55.4768 62.2921L55.1561 62.8495V69.3832C55.1561 75.3595 55.169 75.9559 55.3742 76.2411C55.7462 76.7856 56.0669 76.98 57.7858 77.7449C58.7094 78.1467 61.0056 79.1709 62.8913 80.0265C64.7898 80.8691 66.5857 81.5951 66.8936 81.634C67.2015 81.6859 67.6504 81.647 67.9198 81.5562C68.356 81.4136 74.8084 78.2893 77.3483 76.993C78.2975 76.5003 78.4771 76.3577 78.7337 75.8522C79.0159 75.2818 79.0159 75.2558 79.0159 69.0462C79.0159 63.2643 78.9902 62.7847 78.7722 62.2921C78.4515 61.592 78.1179 61.3716 75.655 60.2438C74.5005 59.7123 72.2941 58.6881 70.7419 57.9492C66.8166 56.1083 67.2271 56.0954 63.4301 57.9881ZM68.3816 57.651C68.9974 57.9362 69.1385 58.0529 69.1385 58.2992C69.1385 58.7011 68.6895 58.7141 67.984 58.3511C67.3426 58.014 66.8423 58.027 66.1367 58.364C65.5082 58.6752 65.1618 58.6233 65.1618 58.2214C65.1618 58.027 65.3414 57.8714 65.8417 57.6381C66.714 57.2232 67.4324 57.2232 68.3816 57.651ZM77.8101 62.5773C77.8614 62.7588 77.8486 62.9532 77.7844 63.018C77.7203 63.0829 76.3092 63.8347 74.6544 64.7163C68.8178 67.7757 68.7665 67.8146 68.0866 69.3184C67.7915 69.9407 67.7915 70.0574 67.7531 75.2299C67.7146 80.3117 67.7017 80.5191 67.458 80.6488C67.2913 80.7525 67.1373 80.7525 66.9577 80.6488C66.7268 80.5191 66.714 80.3247 66.6755 75.2947L66.637 70.0833L66.2779 69.3055C65.6365 67.9313 65.1234 67.5683 61.0441 65.6237C56.4517 63.4329 56.3106 63.3551 56.3106 62.9402C56.3106 62.7717 56.4004 62.5902 56.503 62.5513C56.6057 62.5124 57.3112 62.7717 58.068 63.1217C58.8249 63.4718 60.9287 64.457 62.7245 65.2997L65.9956 66.8423H67.1501H68.3175L72.4737 64.7163C74.7699 63.5495 76.7582 62.5124 76.8993 62.4217C77.3098 62.1235 77.7203 62.1884 77.8101 62.5773ZM78.1179 64.8978C78.1179 65.533 77.887 65.7664 77.5407 65.4811C77.1559 65.1571 77.3483 64.3144 77.8101 64.3144C78.0923 64.3144 78.1179 64.3663 78.1179 64.8978ZM56.6442 64.7552C56.7853 65.3385 56.657 65.6756 56.3106 65.6756C56.0412 65.6756 55.9771 65.6108 55.9515 65.2478C55.9001 64.6644 55.9899 64.444 56.2978 64.444C56.4646 64.444 56.5928 64.5607 56.6442 64.7552ZM78.0923 73.1557C78.1821 73.2464 78.2462 73.6742 78.2462 74.1539C78.2462 75.3725 77.9897 75.8133 76.9891 76.3448C76.1168 76.8115 75.7704 76.8115 75.8346 76.3448C75.8602 76.1374 76.0655 75.9429 76.476 75.7225C77.2456 75.3077 77.4765 74.9058 77.4765 73.9335C77.4765 73.2205 77.5407 73.052 77.8742 73.0131C77.9127 73.0001 78.0025 73.065 78.0923 73.1557ZM56.6955 74.3743C56.7724 75.4503 56.9135 75.6707 57.85 76.1114C58.5555 76.4485 58.6838 76.63 58.4401 76.967C58.2733 77.1874 58.2348 77.1745 57.5806 76.9022C56.1695 76.28 55.9258 75.917 55.9258 74.4521C55.9258 73.4798 55.9771 73.3631 56.3748 73.415C56.5928 73.4539 56.6442 73.5705 56.6955 74.3743ZM65.2901 79.132C65.7391 79.3524 65.7134 79.7931 65.2645 79.845C64.5846 79.9228 63.8662 79.2876 64.2254 78.9116C64.328 78.8079 64.8155 78.9116 65.2901 79.132Z" fill="#27AE60"/>
</svg>
