<svg width="1024" height="1024" viewBox="0 0 1024 1024" fill="none" xmlns="http://www.w3.org/2000/svg">
<path fill-rule="evenodd" clip-rule="evenodd" d="M831.68 224.882C846.52 236.206 850.118 250.602 842.478 268.071C840.149 272.094 836.974 275.27 832.951 277.598C842.323 293.931 850.79 310.656 858.356 327.774C857.091 327.883 856.033 327.459 855.18 326.504C853.154 323.174 851.249 319.788 849.464 316.342C849.298 320.654 847.18 324.253 843.113 327.139C844.621 328.433 845.891 329.916 846.924 331.585C845.376 331.088 844.317 331.936 843.748 334.125C843.649 336.865 843.437 339.406 843.113 341.747C852.146 358.332 860.613 375.056 868.518 391.923C868.429 392.895 868.006 393.53 867.248 393.828C851.235 364.767 836.204 335.128 822.153 304.909C821.019 303.371 819.961 303.371 818.978 304.909C817.173 309.784 815.055 314.443 812.626 318.882C811.017 319.628 809.747 319.628 808.815 318.882C813.152 314.478 814.422 309.397 812.626 303.639C810.96 304.858 809.265 304.647 807.545 303.004C807.986 301.011 808.198 298.682 808.18 296.017C807.642 298.704 806.159 299.762 803.734 299.193C805.073 297.43 805.284 295.524 804.369 293.477C788.585 319.971 774.189 347.07 761.18 374.774C760.757 375.197 760.333 375.622 759.91 376.045C759.287 374.402 759.075 372.708 759.275 370.963C772.865 342.777 787.263 315.042 802.464 287.76C801.829 287.548 801.194 287.337 800.559 287.125C728.885 303.297 657.114 318.965 585.247 334.125C583.503 334.325 581.808 334.113 580.166 333.49C593.689 330.363 607.239 327.398 620.815 324.598C621.662 323.751 622.508 322.905 623.355 322.058C618.885 321.579 614.439 320.944 610.017 320.152C607.478 321.872 605.15 321.66 603.031 319.517C605.721 318.067 608.262 317.432 610.653 317.612C606.865 316.555 603.054 316.343 599.22 316.977C604.952 314.899 610.879 313.628 617.004 313.166C618.523 312.335 618.523 311.7 617.004 311.261C614.463 311.684 611.923 312.108 609.382 312.531C608.473 311.501 607.413 310.653 606.207 309.99C597.474 311.654 588.792 313.137 580.166 314.436C580.872 313.95 581.295 313.315 581.436 312.531C660.431 294.373 739.611 276.377 818.978 258.544C820.141 258.069 821.201 257.434 822.153 256.639C824.658 248.795 821.906 244.561 813.897 243.936C787.894 249.399 762.066 255.328 736.41 261.72C735.441 260.744 734.17 260.109 732.599 259.814C762.058 252.026 791.697 245.04 821.518 238.855C819.514 237.841 817.397 237.206 815.167 236.949C819.533 235.558 823.767 234.923 827.87 235.044C826.599 234.197 825.329 233.351 824.059 232.503C827.209 231.341 828.056 229.436 826.599 226.787C828.181 225.782 829.874 225.147 831.68 224.882Z" fill="#27AE60"/>
<path fill-rule="evenodd" clip-rule="evenodd" d="M538.247 203.288C537.25 208.456 536.402 213.962 535.706 219.801C532.604 220.285 531.757 219.438 533.166 217.261C531.029 215.567 528.912 214.085 526.814 212.815C527.777 211.082 527.142 209.6 524.909 208.369C524.139 211.641 524.774 214.606 526.814 217.261C526.536 219.087 525.901 220.781 524.909 222.342C524.486 233.351 524.062 244.359 523.639 255.369C523.421 244.559 522.786 233.974 521.733 223.612C518.86 214.071 513.567 212.376 505.855 218.531C505.22 230.803 505.009 243.083 505.22 255.369C507.337 255.369 509.454 255.369 511.571 255.369C507.77 256.39 504.383 258.296 501.409 261.085C503.102 262.355 503.102 263.626 501.409 264.896C503.77 265.765 505.888 267.035 507.76 268.707C505.18 269.512 502.217 270.572 498.868 271.882C495.775 269.623 494.505 270.469 495.058 274.423C498.859 273.616 502.67 273.406 506.49 273.788C506.067 274.211 505.643 274.635 505.22 275.058C519.414 274.575 532.116 278.386 543.328 286.491C542.124 287.104 540.853 287.315 539.517 287.126C520.485 274.784 501.853 275.419 483.625 289.031C462.763 313.394 464.034 336.682 487.436 358.896C494.704 363.784 502.75 366.114 511.571 365.883C511.04 366.8 510.194 367.435 509.031 367.788C512.418 368.211 515.805 368.635 519.193 369.058C514.959 369.481 510.724 369.906 506.49 370.329C504.423 374.166 501.883 374.378 498.868 370.964C498.021 371.387 497.175 371.811 496.328 372.234C497.27 374.584 498.541 375.43 500.139 374.775C499.08 375.198 498.021 375.622 496.963 376.045C493.631 376.788 490.032 376.788 486.166 376.045C485.988 378.108 486.835 379.589 488.706 380.491C484.443 386.672 482.538 393.659 482.99 401.45C482.503 402.157 481.868 402.58 481.084 402.721C481.303 396.327 481.515 389.976 481.72 383.667C481.245 382.503 480.609 381.444 479.814 380.491C477.285 380.016 475.168 378.958 473.463 377.315C474.442 374.428 476.135 374.005 478.544 376.045C484.317 375.632 485.165 373.304 481.084 369.058C481.72 368.423 482.355 367.788 482.99 367.153C486.672 370.489 489.425 370.065 491.247 365.883C477.462 356.917 468.782 344.214 465.206 327.775C463.936 329.045 462.665 330.315 461.395 331.585C460.548 330.315 460.548 329.045 461.395 327.775C464.849 324.19 465.061 320.167 462.03 315.707C463.778 312.477 465.261 312.266 466.476 315.072C467.081 306.382 469.622 298.337 474.098 290.937C474.945 291.784 475.791 292.63 476.639 293.477C476.658 290.868 477.716 288.327 479.814 285.855C480.237 286.703 480.661 287.549 481.084 288.396C486.051 286.216 488.169 282.405 487.436 276.964C486.1 277.153 484.829 276.942 483.625 276.328C486.322 275.293 488.862 274.023 491.247 272.518C490.041 271.734 488.983 271.945 488.071 273.153C487.648 271.882 487.224 270.612 486.801 269.342C482.953 271.284 480.202 274.248 478.544 278.234C477.025 277.794 477.025 277.159 478.544 276.328C477.697 275.905 476.851 275.481 476.003 275.058C479.5 273.567 480.771 271.238 479.814 268.072C473.515 271.969 467.799 276.627 462.665 282.045C462.312 280.881 461.677 280.035 460.76 279.504C467.556 272.708 474.755 266.357 482.355 260.45C480.682 243.953 480.893 227.439 482.99 210.909C492.846 191.991 507.878 186.275 528.085 193.761C532.4 196.098 535.788 199.274 538.247 203.288ZM521.733 223.612C520.863 234.176 520.44 244.761 520.463 255.369C517.499 255.369 514.535 255.369 511.571 255.369C509.454 255.369 507.337 255.369 505.22 255.369C505.009 243.083 505.22 230.803 505.855 218.531C513.567 212.376 518.86 214.071 521.733 223.612Z" fill="#27AE60"/>
<path fill-rule="evenodd" clip-rule="evenodd" d="M538.247 203.287C542.197 206.973 544.103 211.63 543.963 217.26C544.386 232.503 544.81 247.747 545.233 262.99C551.483 267.068 557.623 271.301 563.652 275.693C647.319 256.66 731.157 238.453 815.167 221.071C821.172 220.912 826.678 222.182 831.68 224.882C829.874 225.147 828.18 225.782 826.599 226.787C828.056 229.436 827.209 231.341 824.058 232.503C825.329 233.351 826.599 234.197 827.869 235.044C823.766 234.923 819.532 235.558 815.167 236.949C817.397 237.206 819.513 237.841 821.518 238.855C791.697 245.04 762.058 252.026 732.599 259.814C734.17 260.109 735.44 260.744 736.409 261.72C682.744 272.287 629.393 284.144 576.355 297.287C578.174 301.758 579.233 306.416 579.531 311.26C580.017 311.967 580.652 312.39 581.436 312.531C581.295 313.314 580.872 313.95 580.166 314.436C588.792 313.137 597.473 311.654 606.206 309.99C607.413 310.653 608.472 311.501 609.382 312.531C611.923 312.108 614.463 311.683 617.004 311.26C618.523 311.7 618.523 312.335 617.004 313.166C610.878 313.628 604.951 314.899 599.22 316.977C603.053 316.343 606.864 316.555 610.652 317.612C608.262 317.431 605.721 318.067 603.031 319.517C605.149 321.66 607.478 321.872 610.017 320.152C614.439 320.944 618.885 321.579 623.355 322.058C622.508 322.905 621.662 323.751 620.814 324.598C607.239 327.398 593.689 330.363 580.166 333.49C581.808 334.113 583.503 334.325 585.247 334.125C583.496 335.058 581.591 335.905 579.531 336.666C574.181 357.227 562.326 372.47 543.963 382.396C543.685 407.815 544.32 433.221 545.868 458.612C579.825 472.475 600.785 497.456 608.747 533.559C614.212 582.252 595.37 617.82 552.22 640.262C552.079 639.478 551.656 638.843 550.949 638.356C552.856 636.766 554.974 635.496 557.301 634.545C555.183 634.122 553.067 633.698 550.949 633.275C552.286 631.095 551.44 629.825 548.409 629.464C549.256 629.041 550.102 628.617 550.949 628.194C548.081 626.897 545.541 624.992 543.328 622.478C567.411 611.094 582.019 592.462 587.152 566.586C585.771 569.675 585.136 569.251 585.247 565.315C580.745 563.07 575.664 562.01 570.003 562.14C561.547 556.725 560.277 549.949 566.193 541.815C567.886 540.968 569.58 540.122 571.274 539.275C575.988 539.052 580.646 538.417 585.247 537.369C577.248 504.811 556.923 484.487 524.274 476.396C524.484 481.495 524.272 486.576 523.638 491.639C521.294 499.89 516.002 502.643 507.76 499.896C504.682 497.901 502.989 495.149 502.679 491.639C504.774 493.099 506.679 494.792 508.395 496.721C515.558 499.596 520.004 497.267 521.733 489.734C520.113 484.596 520.113 479.515 521.733 474.491C527.41 474.328 532.915 475.386 538.247 477.666C539.673 476.34 541.366 475.494 543.328 475.126C547.116 476.183 550.926 476.395 554.76 475.761C550.073 475.222 549.861 474.163 554.125 472.585C554.754 470.079 554.966 467.539 554.76 464.964C552.185 465.169 549.645 464.957 547.139 464.329C545.577 462.386 543.672 460.904 541.422 459.883C540.603 454.977 540.814 450.107 542.057 445.274C541.21 442.311 540.364 439.346 539.517 436.383C541.021 430.224 541.021 423.873 539.517 417.328C539.866 410.009 540.713 402.81 542.057 395.734C538.597 391.064 537.751 385.983 539.517 380.49C538.353 380.015 537.294 379.38 536.341 378.585C536.16 383.817 535.312 388.898 533.801 393.828C532.56 390.983 531.924 388.019 531.895 384.936C530.079 385.037 528.384 384.614 526.814 383.666C525.8 385.671 525.165 387.787 524.909 390.017C524.486 411.612 524.061 433.207 523.638 454.802C523.215 434.054 522.791 413.305 522.368 392.558C522.015 393.722 521.38 394.568 520.463 395.099C520.247 393.419 520.67 391.937 521.733 390.653C515.82 390.019 509.893 389.807 503.949 390.017C503.549 407.479 503.973 424.838 505.219 442.099C503.013 445.285 501.955 449.095 502.044 453.531C501.823 432.055 501.188 410.671 500.138 389.382C502.302 386.12 505.053 385.485 508.395 387.477C520.205 388.173 527.404 383.515 529.99 373.504C531.119 375.267 531.754 375.056 531.895 372.869C531.429 370.018 530.159 369.383 528.084 370.963C525.558 369.525 523.44 367.832 521.733 365.882C551.924 355.309 562.298 334.56 552.855 303.639C549.909 296.695 545.463 291.191 539.517 287.125C540.853 287.315 542.123 287.104 543.328 286.49C532.116 278.386 519.414 274.575 505.219 275.058C505.642 274.635 506.067 274.21 506.49 273.787C502.67 273.405 498.859 273.616 495.057 274.422C494.505 270.468 495.775 269.622 498.868 271.882C502.217 270.571 505.18 269.512 507.76 268.706C505.888 267.035 503.77 265.764 501.409 264.895C503.102 263.625 503.102 262.355 501.409 261.085C504.382 258.295 507.77 256.39 511.571 255.368C514.534 255.368 517.499 255.368 520.463 255.368C520.44 244.76 520.863 234.175 521.733 223.612C522.786 233.973 523.421 244.558 523.638 255.368C524.061 244.359 524.486 233.351 524.909 222.341C525.901 220.78 526.536 219.087 526.814 217.26C524.774 214.605 524.139 211.64 524.909 208.368C527.142 209.599 527.777 211.082 526.814 212.814C528.911 214.084 531.029 215.567 533.166 217.26C531.757 219.437 532.604 220.285 535.706 219.801C536.402 213.961 537.249 208.456 538.247 203.287ZM520.463 395.099C520.463 414.153 520.463 433.207 520.463 452.261C514.959 452.261 509.453 452.261 503.949 452.261C504.044 448.824 504.467 445.436 505.219 442.099C503.973 424.838 503.549 407.479 503.949 390.017C509.893 389.807 515.82 390.019 521.733 390.653C520.67 391.937 520.247 393.419 520.463 395.099Z" fill="#27AE60"/>
<path fill-rule="evenodd" clip-rule="evenodd" d="M775.788 273.152C777.124 272.963 778.394 273.174 779.599 273.787C778.307 275.12 778.095 276.602 778.963 278.233C781.487 276.216 784.24 275.158 787.22 275.057C784.367 276.654 782.674 278.983 782.139 282.044C780.869 282.044 779.599 282.044 778.328 282.044C778.751 284.585 779.176 287.125 779.599 289.666C767.255 291.795 754.976 294.335 742.761 297.287C741.422 297.059 740.151 296.636 738.95 296.017C734.017 298.166 728.936 300.072 723.706 301.733C698.498 306.267 673.517 311.771 648.76 318.247C641.973 319.532 635.41 320.167 629.071 320.152C628.192 319.485 627.557 318.638 627.166 317.612C628.113 316.042 628.536 314.347 628.436 312.531C624.368 312.367 621.405 310.461 619.544 306.814C656.749 298.074 694.011 289.605 731.328 281.409C736.234 280.249 740.891 280.672 745.301 282.679C742.495 283.895 742.706 285.377 745.936 287.125C747.207 285.432 748.477 285.432 749.747 287.125C753.139 282.575 756.102 282.575 758.639 287.125C759.883 284.813 761.788 283.331 764.355 282.679C758.897 281.306 753.393 280.036 747.842 278.868C752.878 275.35 757.959 275.139 763.085 278.233C765.713 277.822 766.136 276.762 764.355 275.057C768.076 274.07 771.676 274.283 775.153 275.693C775.742 274.938 775.954 274.091 775.788 273.152Z" fill="#27AE60"/>
<path fill-rule="evenodd" clip-rule="evenodd" d="M507.76 309.99C520.44 309.332 525.733 315.259 523.639 327.774C523.048 329.591 521.988 331.072 520.463 332.22C507.304 337.25 500.741 332.804 500.774 318.882C502.002 314.917 504.33 311.954 507.76 309.99Z" fill="#27AE60"/>
<path fill-rule="evenodd" clip-rule="evenodd" d="M473.463 377.315C469.703 374.621 466.104 371.656 462.666 368.423C462.052 367.219 461.841 365.948 462.031 364.612C442.292 367.793 422.815 372.027 403.598 377.315C403.067 376.398 402.221 375.763 401.057 375.41C415.447 372.023 429.844 368.635 444.247 365.247C448.132 361.975 447.497 360.07 442.341 359.531C440.178 361.055 438.273 360.632 436.625 358.261C429.227 357.478 422.03 356.208 415.03 354.45C399.64 356.98 384.396 360.156 369.3 363.977C365.548 365.128 361.949 366.61 358.503 368.423C356.3 367.472 353.972 366.836 351.517 366.518C354.065 366.412 355.335 365.777 355.327 364.612C385.623 357.459 416.11 350.473 446.787 343.653C447.21 343.23 447.634 342.805 448.057 342.382C447.05 338.049 446.415 333.603 446.152 329.044C445.626 328.464 444.991 328.04 444.247 327.774C424.396 332.243 404.495 336.478 384.544 340.477C385.028 338.659 386.298 337.601 388.355 337.301C399.815 334.897 411.247 332.356 422.652 329.68C420.523 328.185 418.83 326.279 417.571 323.963C415.662 325.348 415.239 326.83 416.301 328.409C415.096 329.023 413.826 329.234 412.49 329.044C412.091 324.353 414.207 321.389 418.841 320.153C419.688 321 420.534 321.846 421.382 322.693C421.805 322.27 422.229 321.846 422.652 321.423C419.793 318.457 416.406 316.128 412.49 314.436C420.75 312.016 428.796 310.322 436.625 309.355C433.82 309.113 431.28 308.477 429.003 307.45C435.314 305.978 441.665 304.707 448.057 303.639C450.108 294.405 454.342 286.359 460.76 279.504C461.677 280.035 462.313 280.881 462.666 282.044C467.799 276.627 473.515 271.968 479.814 268.071C480.771 271.238 479.501 273.566 476.004 275.058C476.851 275.481 477.697 275.905 478.544 276.328C477.025 277.159 477.025 277.794 478.544 278.233C480.202 274.247 482.953 271.284 486.801 269.342C487.224 270.612 487.648 271.882 488.071 273.152C488.983 271.944 490.041 271.733 491.247 272.517C488.863 274.023 486.322 275.293 483.625 276.328C484.829 276.942 486.1 277.152 487.436 276.963C488.169 282.405 486.051 286.216 481.085 288.396C480.662 287.548 480.237 286.702 479.814 285.855C477.716 288.327 476.658 290.868 476.639 293.477C475.791 292.63 474.945 291.784 474.098 290.936C469.622 298.337 467.081 306.382 466.476 315.071C465.261 312.265 463.778 312.476 462.031 315.707C465.061 320.167 464.849 324.189 461.395 327.774C460.548 329.044 460.548 330.315 461.395 331.585C462.666 330.315 463.936 329.044 465.206 327.774C468.782 344.214 477.462 356.917 491.247 365.882C489.425 370.064 486.673 370.488 482.99 367.153C482.355 367.788 481.72 368.423 481.085 369.058C485.165 373.303 484.317 375.632 478.544 376.045C476.136 374.005 474.442 374.428 473.463 377.315Z" fill="#27AE60"/>
<path fill-rule="evenodd" clip-rule="evenodd" d="M429.004 307.449C431.28 308.477 433.821 309.112 436.625 309.355C428.797 310.321 420.751 312.016 412.49 314.436C416.406 316.128 419.793 318.456 422.652 321.422C422.229 321.845 421.805 322.27 421.382 322.693C420.535 321.845 419.689 320.999 418.841 320.152C414.207 321.388 412.091 324.353 412.49 329.044C413.826 329.233 415.097 329.022 416.301 328.409C415.239 326.83 415.662 325.347 417.571 323.963C418.83 326.279 420.523 328.184 422.652 329.679C411.248 332.355 399.815 334.896 388.355 337.301C386.298 337.6 385.028 338.659 384.544 340.476C323.199 354.359 261.801 368.121 200.354 381.76C193.463 388.97 194.945 393.839 204.8 396.368C254.984 385.603 305.159 375.018 355.328 364.612C355.335 365.776 354.065 366.412 351.517 366.517C353.972 366.836 356.301 367.471 358.503 368.422C361.95 366.61 365.548 365.127 369.301 363.976C384.397 360.155 399.64 356.98 415.031 354.449C422.03 356.207 429.227 357.478 436.625 358.26C438.273 360.632 440.178 361.055 442.342 359.53C447.498 360.069 448.133 361.974 444.247 365.247C429.845 368.635 415.447 372.022 401.058 375.409C402.221 375.762 403.067 376.397 403.598 377.314C343.656 389.442 283.954 402.569 224.489 416.693C223.958 415.776 223.112 415.141 221.949 414.787C235.301 412.202 248.426 408.816 261.327 404.625C259.422 403.143 257.517 401.662 255.611 400.179C254.815 395.361 252.062 392.398 247.354 391.287C235.381 393.913 223.524 396.664 211.787 399.544C201.509 402.242 194.734 398.642 191.462 388.747C190.718 389.012 190.083 389.437 189.557 390.017C186.361 387.275 185.938 384.311 188.287 381.125C190.046 382.46 191.316 384.153 192.097 386.206C193.34 382.107 193.975 377.873 194.003 373.504C191.998 372.49 189.882 371.855 187.651 371.598C191.505 368.402 195.741 365.862 200.354 363.976C199.6 363.387 198.752 363.175 197.814 363.341C196.297 362.361 195.027 361.09 194.003 359.53C272.458 342.519 350.792 325.158 429.004 307.449Z" fill="#27AE60"/>
<path fill-rule="evenodd" clip-rule="evenodd" d="M858.356 327.774C885.385 376.325 910.791 425.866 934.573 476.396C934.778 478.971 934.566 481.512 933.938 484.018C929.241 467.038 926.489 467.673 925.681 485.923C926.481 489.446 926.058 493.045 924.41 496.721C923.472 494.323 923.472 491.782 924.41 489.099C924.145 487.201 923.298 485.719 921.87 484.653C924.278 482.357 924.913 479.604 923.775 476.396C922.043 477.359 920.56 476.724 919.329 474.491C920.908 471.372 923.449 469.89 926.951 470.045C927.15 468.301 926.938 466.606 926.316 464.964C925.904 467.592 924.845 468.015 923.14 466.234C920.304 466.697 917.975 467.967 916.154 470.045C915.762 469.019 915.127 468.171 914.248 467.504C913.443 470.13 912.173 472.459 910.437 474.491C904.509 474.914 898.582 475.338 892.654 475.761C891.152 477.893 889.671 477.682 888.208 475.126C887.007 475.641 886.16 476.488 885.667 477.667C877.939 476.216 870.105 476.004 862.167 477.032C860.766 480.803 859.073 481.015 857.086 477.667C855.68 478.33 854.197 478.753 852.64 478.937C848.51 477.56 844.276 476.714 839.937 476.396C824.902 476.72 809.659 476.72 794.207 476.396C789.75 476.335 785.515 477.183 781.505 478.937C777.135 476.438 772.689 476.014 768.167 477.667C762.321 475.893 756.392 474.411 750.383 473.221C761.616 473.005 772.625 472.37 783.41 471.315C824.059 471.315 864.708 471.315 905.356 471.315C893.003 445.338 880.3 419.51 867.248 393.829C868.006 393.53 868.429 392.895 868.518 391.923C860.613 375.056 852.146 358.332 843.113 341.747C843.437 339.406 843.649 336.866 843.748 334.126C844.317 331.936 845.376 331.088 846.924 331.585C845.891 329.916 844.621 328.434 843.113 327.139C847.18 324.253 849.298 320.654 849.464 316.342C851.249 319.788 853.154 323.175 855.18 326.504C856.033 327.459 857.091 327.884 858.356 327.774Z" fill="#27AE60"/>
<path fill-rule="evenodd" clip-rule="evenodd" d="M812.626 318.882C788.449 364.692 764.738 410.846 741.491 457.342C739.998 457.064 738.728 457.487 737.68 458.612C736.41 461.153 735.139 463.693 733.869 466.234C725.008 468.503 723.738 472.949 730.058 479.572C726.671 482.535 723.284 485.5 719.896 488.464C720.319 488.887 720.743 489.311 721.166 489.734C718.261 492.336 718.049 495.088 720.531 497.991C721.145 496.787 721.356 495.516 721.166 494.18C725.055 492.701 728.443 492.701 731.329 494.18C746.145 536.042 775.997 558.06 820.883 560.234C836.619 560.209 851.227 556.398 864.708 548.802C863.962 550.411 863.962 551.682 864.708 552.613C888.502 540.053 905.227 521.422 914.883 496.721C914.686 503.289 912.781 509.428 909.167 515.14C910.373 515.923 911.431 515.712 912.343 514.504C912.766 512.811 913.19 511.117 913.613 509.423C913.769 513.379 913.981 517.19 914.248 520.856C915.967 519.35 917.449 517.656 918.694 515.775C919.541 519.585 919.541 523.396 918.694 527.207C915.72 529.805 912.757 532.345 909.802 534.829C909.189 536.033 908.978 537.303 909.167 538.64C907.474 538.64 905.779 538.64 904.086 538.64C903.845 541.763 905.115 543.881 907.897 544.991C877.926 576.647 841.088 588.715 797.383 581.194C748.98 569.629 718.706 539.778 706.558 491.639C705.711 485.711 705.711 479.784 706.558 473.856C723.959 439.352 741.53 405.055 759.275 370.963C759.075 372.707 759.287 374.402 759.91 376.044C760.333 375.621 760.757 375.197 761.18 374.774C774.189 347.069 788.585 319.971 804.369 293.477C805.284 295.524 805.073 297.43 803.734 299.193C806.159 299.762 807.642 298.704 808.18 296.017C808.198 298.682 807.986 301.011 807.545 303.004C809.265 304.647 810.96 304.858 812.626 303.639C814.422 309.397 813.152 314.478 808.815 318.882C809.747 319.628 811.017 319.628 812.626 318.882Z" fill="#27AE60"/>
<path fill-rule="evenodd" clip-rule="evenodd" d="M511.571 365.883C514.959 365.883 518.346 365.883 521.734 365.883C523.441 367.833 525.558 369.526 528.085 370.964C530.159 369.384 531.43 370.019 531.896 372.869C531.755 375.057 531.12 375.268 529.99 373.504C527.404 383.515 520.205 388.174 508.396 387.477C505.054 385.486 502.302 386.121 500.139 389.383C501.188 410.671 501.823 432.055 502.044 453.532C501.955 449.096 503.013 445.285 505.22 442.099C504.468 445.436 504.045 448.824 503.95 452.261C509.454 452.261 514.959 452.261 520.463 452.261C520.463 433.207 520.463 414.153 520.463 395.099C521.38 394.568 522.016 393.722 522.369 392.559C522.792 413.306 523.216 434.055 523.639 454.802C524.062 433.207 524.486 411.613 524.909 390.018C525.166 387.787 525.801 385.671 526.815 383.667C528.385 384.614 530.079 385.037 531.896 384.937C531.925 388.02 532.56 390.983 533.801 393.829C535.313 388.899 536.16 383.818 536.342 378.586C537.294 379.381 538.354 380.016 539.517 380.491C537.752 385.984 538.598 391.065 542.058 395.734C540.714 402.811 539.867 410.01 539.517 417.329C541.021 423.873 541.021 430.225 539.517 436.383C540.365 439.347 541.211 442.311 542.058 445.275C540.814 450.107 540.603 454.977 541.423 459.883C543.672 460.904 545.578 462.387 547.139 464.329C549.645 464.958 552.186 465.17 554.761 464.964C554.966 467.539 554.754 470.08 554.126 472.586C549.861 474.164 550.073 475.223 554.761 475.762C550.927 476.395 547.116 476.183 543.328 475.126C541.367 475.495 539.674 476.341 538.247 477.667C532.916 475.387 527.41 474.329 521.734 474.491C520.114 479.515 520.114 484.596 521.734 489.735C520.005 497.267 515.559 499.597 508.396 496.721C506.679 494.793 504.774 493.1 502.679 491.64C501.431 486.815 501.006 481.734 501.409 476.397C498.869 476.82 496.328 477.244 493.787 477.667C492.451 477.856 491.181 477.645 489.977 477.032C493.471 476.376 496.435 474.894 498.869 472.586C496.751 471.739 494.635 470.893 492.517 470.045C493.246 468.065 494.092 466.16 495.058 464.329C492.931 462.416 491.661 460.088 491.247 457.343C489.087 457.503 487.182 458.35 485.531 459.883C484.33 459.369 483.483 458.521 482.99 457.343C482.138 458.298 481.08 458.722 479.814 458.613C481.063 440.082 481.486 421.451 481.085 402.721C481.868 402.58 482.504 402.157 482.99 401.451C482.538 393.659 484.443 386.672 488.706 380.491C486.835 379.589 485.988 378.108 486.166 376.045C490.033 376.788 493.631 376.788 496.963 376.045C498.021 375.622 499.081 375.198 500.139 374.775C498.541 375.43 497.271 374.584 496.328 372.234C497.175 371.811 498.021 371.387 498.869 370.964C501.883 374.378 504.423 374.166 506.49 370.329C510.724 369.906 514.959 369.482 519.193 369.058C515.805 368.635 512.419 368.211 509.031 367.788C510.194 367.435 511.04 366.8 511.571 365.883ZM520.463 395.099C520.463 414.153 520.463 433.207 520.463 452.261C514.959 452.261 509.454 452.261 503.95 452.261C504.045 448.824 504.468 445.436 505.22 442.099C503.974 424.839 503.55 407.479 503.95 390.018C509.893 389.807 515.82 390.019 521.734 390.653C520.67 391.937 520.247 393.42 520.463 395.099Z" fill="#27AE60"/>
<path fill-rule="evenodd" clip-rule="evenodd" d="M197.813 363.342C198.752 363.176 199.599 363.388 200.354 363.977C195.74 365.862 191.505 368.403 187.651 371.599C189.882 371.855 191.998 372.491 194.002 373.504C193.974 377.874 193.339 382.108 192.097 386.207C191.316 384.154 190.045 382.461 188.286 381.126C185.937 384.312 186.36 387.275 189.556 390.018C190.082 389.437 190.717 389.013 191.462 388.747C194.734 398.643 201.508 402.243 211.786 399.545C223.524 396.665 235.38 393.914 247.354 391.288C252.062 392.398 254.814 395.362 255.611 400.18C257.516 401.662 259.422 403.144 261.327 404.626C248.426 408.817 235.3 412.203 221.948 414.788C223.112 415.141 223.958 415.776 224.489 416.694C222.309 416.857 220.192 417.28 218.138 417.964C215.753 419.436 215.118 421.554 216.232 424.315C220.03 427.463 222.36 431.486 223.219 436.383C222.863 438.155 222.016 439.637 220.678 440.829C219.47 439.78 218.2 439.569 216.867 440.194C218.327 442.231 218.327 444.347 216.867 446.545C218.966 449.496 221.083 452.459 223.219 455.437C220.039 457.703 220.039 459.821 223.219 461.788C220.889 464.359 218.771 464.148 216.867 461.153C214.151 452.346 210.765 443.879 206.705 435.748C203.776 436.374 200.812 436.797 197.813 437.018C195.711 448.844 191.477 459.854 185.11 470.045C185.691 471.059 186.538 471.482 187.651 471.315C164.018 515.71 140.728 560.382 117.786 605.329C174.523 605.964 231.262 606.177 288.003 605.964C289.115 605.798 289.963 606.221 290.543 607.235C233.386 608.293 176.224 608.928 119.056 609.14C131.855 610.1 144.558 611.371 157.164 612.951C155.533 613.82 154.051 613.608 152.718 612.316C152.243 613.479 151.608 614.539 150.813 615.492C152.829 616.586 154.947 617.434 157.164 618.032C148.845 620.49 141.012 620.278 133.664 617.397C132.356 620.288 130.451 621.135 127.948 619.937C126.255 621.208 126.255 622.478 127.948 623.748C129.615 622.529 131.309 622.74 133.029 624.383C126.36 625.875 119.585 626.722 112.705 626.924C115.926 627.16 118.89 627.795 121.597 628.829C119.325 628.467 117.208 628.89 115.245 630.1C126.746 665.514 150.882 686.896 187.651 694.249C199.542 695.164 211.398 694.952 223.219 693.613C227.901 695.183 232.558 694.971 237.192 692.978C248.564 687.714 259.15 681.151 268.949 673.289C269.372 673.924 269.796 674.559 270.219 675.194C267.976 679.07 264.8 681.821 260.692 683.451C259.823 685.082 260.035 686.565 261.327 687.897C260.041 689.984 258.771 691.467 257.516 692.343C257.939 693.19 258.363 694.036 258.786 694.884C263.74 693.428 266.07 690.04 265.773 684.721C267.022 687.196 268.504 689.526 270.219 691.708C267.32 697.804 262.662 700.557 256.246 699.965C254.976 700.388 254.128 701.235 253.705 702.505C255.668 703.715 257.785 704.138 260.057 703.776C215.042 726.599 171.853 723.423 130.489 694.249C107.607 676.212 94.0584 652.712 89.8398 623.748C91.8545 618.496 93.3369 612.992 94.2858 607.235C127.805 543.26 161.044 479.111 194.002 414.788C186.116 413.678 181.671 409.232 180.664 401.45C179.817 399.757 178.971 399.757 178.124 401.45C172.794 386.551 176.393 374.484 188.921 365.247C191.859 364.406 194.823 363.771 197.813 363.342Z" fill="#27AE60"/>
<path fill-rule="evenodd" clip-rule="evenodd" d="M741.49 457.342C738.739 461.582 737.045 466.24 736.409 471.315C752.075 471.315 767.743 471.315 783.409 471.315C772.625 472.369 761.615 473.004 750.382 473.22C756.392 474.41 762.32 475.893 768.166 477.666C772.688 476.013 777.134 476.438 781.504 478.936C785.514 477.182 789.749 476.335 794.207 476.396C809.658 476.72 824.901 476.72 839.936 476.396C844.276 476.713 848.509 477.559 852.639 478.936C854.197 478.752 855.679 478.329 857.085 477.666C859.072 481.014 860.765 480.802 862.166 477.031C870.104 476.003 877.938 476.215 885.666 477.666C886.159 476.487 887.006 475.64 888.207 475.125C889.67 477.681 891.151 477.892 892.653 475.761C898.581 475.338 904.508 474.913 910.437 474.49C912.172 472.458 913.442 470.129 914.247 467.504C915.126 468.171 915.762 469.018 916.153 470.044C917.974 467.966 920.303 466.696 923.139 466.233C924.844 468.014 925.904 467.591 926.315 464.963C926.938 466.606 927.15 468.3 926.95 470.044C923.448 469.889 920.908 471.372 919.329 474.49C920.559 476.723 922.042 477.359 923.775 476.396C924.913 479.603 924.278 482.356 921.869 484.652C923.297 485.718 924.144 487.201 924.41 489.098C923.471 491.781 923.471 494.322 924.41 496.72C926.057 493.044 926.48 489.445 925.68 485.923C926.488 467.673 929.241 467.038 933.937 484.017C934.566 481.511 934.778 478.971 934.572 476.396C935.911 486.59 934.853 496.752 931.396 506.882C925.844 521.089 918.01 533.792 907.896 544.991C905.114 543.88 903.844 541.763 904.085 538.639C905.779 538.639 907.473 538.639 909.166 538.639C908.977 537.303 909.188 536.033 909.801 534.828C912.756 532.345 915.72 529.804 918.693 527.207C919.541 523.396 919.541 519.585 918.693 515.774C917.449 517.655 915.966 519.35 914.247 520.855C913.981 517.189 913.769 513.378 913.612 509.423C913.189 511.116 912.765 512.811 912.342 514.504C911.43 515.712 910.372 515.923 909.166 515.139C912.78 509.428 914.686 503.289 914.883 496.72C905.226 521.422 888.502 540.053 864.707 552.612C863.961 551.681 863.961 550.411 864.707 548.801C887.456 537.06 902.275 518.853 909.166 494.18C849.925 492.874 790.645 492.874 731.328 494.18C728.442 492.701 725.054 492.701 721.166 494.18C721.355 495.516 721.144 496.786 720.531 497.99C718.048 495.088 718.261 492.335 721.166 489.734C720.743 489.311 720.318 488.886 719.895 488.463C723.283 485.5 726.67 482.535 730.058 479.571C723.737 472.948 725.007 468.502 733.868 466.233C735.139 463.693 736.409 461.152 737.679 458.612C738.727 457.486 739.998 457.063 741.49 457.342Z" fill="#27AE60"/>
<path opacity="0.408" fill-rule="evenodd" clip-rule="evenodd" d="M194.003 359.531C195.027 361.091 196.297 362.361 197.814 363.342C194.823 363.771 191.86 364.407 188.922 365.247C176.393 374.484 172.794 386.551 178.124 401.45C178.972 399.757 179.818 399.757 180.665 401.45C181.671 409.232 186.117 413.678 194.003 414.788C161.044 479.111 127.805 543.26 94.2862 607.235C93.3373 612.992 91.8549 618.496 89.8402 623.748C88.0758 617.374 88.711 611.023 91.7456 604.694C123.546 543.273 155.303 481.876 187.016 420.504C188.008 418.67 187.796 416.977 186.381 415.423C171.325 402.892 168.572 388.072 178.124 370.964C182.707 366.039 188.001 362.228 194.003 359.531Z" fill="#27AE60"/>
<path fill-rule="evenodd" clip-rule="evenodd" d="M507.761 506.884C515.369 505.061 520.661 507.601 523.639 514.505C524.487 528.901 524.487 543.299 523.639 557.695C519.959 563.608 514.667 565.513 507.761 563.411C505.008 562.353 503.103 560.447 502.045 557.695C501.197 543.299 501.197 528.901 502.045 514.505C502.806 511.007 504.711 508.466 507.761 506.884Z" fill="#27AE60"/>
<path fill-rule="evenodd" clip-rule="evenodd" d="M493.786 477.665C468.481 486.67 451.332 504.031 442.34 529.746C441.709 532.681 441.498 535.644 441.705 538.638C453.134 535.95 460.755 539.973 464.57 550.706C464.02 556.491 461.056 560.302 455.678 562.138C450.545 562.358 445.464 562.993 440.435 564.044C441.434 569.204 442.705 574.285 444.246 579.287C443.274 583.797 444.333 588.03 447.421 591.99C452.109 597.311 456.555 602.815 460.759 608.504C460.083 611.35 458.39 613.256 455.678 614.22C456.101 614.643 456.525 615.067 456.948 615.49C455.085 616.885 454.025 618.79 453.773 621.206C453.381 620.18 452.746 619.333 451.867 618.666C448.524 619.551 445.56 619.551 442.975 618.666C415.517 588.385 408.531 553.664 422.016 514.503C430.858 494.668 444.196 478.789 462.029 466.868C467.675 463.504 473.603 460.752 479.813 458.611C481.079 458.72 482.137 458.296 482.989 457.341C483.482 458.52 484.329 459.367 485.53 459.881C487.181 458.348 489.086 457.501 491.246 457.341C491.66 460.086 492.93 462.414 495.057 464.327C494.091 466.158 493.245 468.063 492.516 470.044C494.634 470.891 496.75 471.737 498.867 472.584C496.434 474.892 493.47 476.375 489.976 477.03C491.18 477.644 492.45 477.854 493.786 477.665Z" fill="#27AE60"/>
<path fill-rule="evenodd" clip-rule="evenodd" d="M218.138 417.964C251.239 482.047 284.055 546.408 316.584 611.046C317.194 620.053 316.347 628.945 314.044 637.721C304.567 666.869 286.573 688.888 260.057 703.776C257.786 704.138 255.668 703.715 253.706 702.505C254.129 701.235 254.976 700.388 256.246 699.965C262.662 700.557 267.32 697.804 270.219 691.708C268.504 689.526 267.022 687.196 265.773 684.722C266.07 690.04 263.741 693.428 258.787 694.884C258.364 694.036 257.939 693.19 257.516 692.343C258.771 691.467 260.042 689.984 261.327 687.897C260.035 686.565 259.823 685.082 260.692 683.451C264.8 681.822 267.976 679.07 270.219 675.195C269.796 674.559 269.372 673.924 268.949 673.289C259.15 681.151 248.565 687.714 237.192 692.978C232.558 694.971 227.901 695.184 223.219 693.613C253.543 685.737 275.35 667.53 288.638 638.992C289.682 635.667 290.317 632.28 290.544 628.829C234.228 628.829 177.912 628.829 121.597 628.829C118.89 627.795 115.926 627.16 112.705 626.924C119.585 626.722 126.361 625.875 133.029 624.384C131.31 622.74 129.615 622.529 127.948 623.748C126.255 622.478 126.255 621.208 127.948 619.938C130.451 621.135 132.356 620.288 133.665 617.397C141.012 620.278 148.846 620.49 157.165 618.032C154.947 617.434 152.829 616.587 150.813 615.492C151.609 614.539 152.244 613.479 152.719 612.316C154.051 613.608 155.534 613.82 157.165 612.951C144.558 611.371 131.856 610.101 119.056 609.14C176.224 608.928 233.386 608.293 290.544 607.235C289.963 606.221 289.116 605.798 288.003 605.965C259.498 551.072 231.341 496.027 203.53 440.829C197.396 450.56 192.102 460.723 187.651 471.315C186.539 471.482 185.691 471.059 185.111 470.045C191.477 459.854 195.711 448.844 197.813 437.018C200.813 436.797 203.776 436.374 206.705 435.748C210.765 443.879 214.152 452.346 216.868 461.153C218.772 464.149 220.889 464.359 223.219 461.788C220.039 459.821 220.039 457.703 223.219 455.437C221.084 452.459 218.966 449.496 216.868 446.545C218.327 444.347 218.327 442.231 216.868 440.194C218.2 439.569 219.47 439.78 220.678 440.829C222.016 439.637 222.863 438.155 223.219 436.383C222.36 431.486 220.031 427.463 216.232 424.315C215.118 421.554 215.754 419.436 218.138 417.964Z" fill="#27AE60"/>
<path fill-rule="evenodd" clip-rule="evenodd" d="M517.922 649.154C513.264 649.154 508.607 649.154 503.949 649.154C503.737 686.417 503.949 723.679 504.585 760.938C509.749 762.162 515.043 762.585 520.463 762.208C520.463 725.793 520.463 689.38 520.463 652.965C522.784 689.357 523.842 726.195 523.639 763.478C523.86 724.894 524.495 686.361 525.544 647.883C525.279 647.139 524.854 646.504 524.274 645.978C526.648 643.039 529.188 642.616 531.895 644.708C529.577 646.57 528.942 648.898 529.99 651.694C531.152 650.642 531.998 649.372 532.531 647.883C532.954 648.731 533.378 649.577 533.801 650.424C535.403 647.718 536.038 644.966 535.706 642.167C532.574 640.986 532.786 639.928 536.341 638.992C538.713 642.692 540.618 646.714 542.058 651.059C538.789 682.892 538.789 714.438 542.058 745.695C541.256 751.001 540.41 756.294 539.517 761.573C539.94 762.843 540.364 764.114 540.787 765.384C537.427 768.744 534.04 772.132 530.625 775.546C532.318 776.393 534.013 777.239 535.706 778.087C534.994 780.076 535.841 781.769 538.247 783.168C536.19 783.468 534.92 784.526 534.436 786.343C526.391 786.343 518.345 786.343 510.301 786.343C483.509 782.398 456.409 781.551 429.003 783.803C414.196 782.92 399.377 782.285 384.544 781.897C385.124 781.372 385.548 780.736 385.814 779.992C384.095 778.691 383.248 776.998 383.273 774.911C381.113 774.319 379.207 774.319 377.557 774.911C376.913 773.011 377.548 771.528 379.462 770.465C378.257 769.681 377.199 769.892 376.287 771.1C375.652 769.618 374.594 768.56 373.111 767.924C377.844 766.6 377.421 765.964 371.841 766.019C374.46 764.398 377.425 763.339 380.733 762.843C414.18 762.208 447.632 761.996 481.084 762.208C481.084 724.1 481.084 685.992 481.084 647.883C483.004 646.031 484.274 643.703 484.895 640.897C483.429 639.736 483.642 638.678 485.53 637.721C486.056 638.302 486.691 638.726 487.436 638.992C488.813 637.512 489.871 635.818 490.612 633.91C492.754 639.655 495.719 639.655 499.503 633.91C500.562 635.181 501.621 636.451 502.679 637.721C504.713 638.566 506.618 638.99 508.395 638.992C509.196 635.696 510.678 632.733 512.841 630.1C515.976 633.264 515.13 635.592 510.301 637.086C512.463 639.268 514.791 639.481 517.287 637.721C519.631 638.42 521.536 639.69 523.004 641.532C522.184 643.097 521.973 644.79 522.368 646.613C520.714 647.356 519.232 648.202 517.922 649.154ZM517.922 649.154C519.259 648.964 520.529 649.175 521.733 649.789C520.778 650.641 520.354 651.699 520.463 652.965C520.463 689.38 520.463 725.793 520.463 762.208C515.043 762.585 509.749 762.162 504.585 760.938C503.949 723.679 503.737 686.417 503.949 649.154C508.607 649.154 513.264 649.154 517.922 649.154Z" fill="#27AE60"/>
<path fill-rule="evenodd" clip-rule="evenodd" d="M585.247 565.315C585.137 569.251 585.772 569.675 587.152 566.586C582.019 592.462 567.411 611.094 543.328 622.478C545.541 624.992 548.081 626.897 550.95 628.194C550.102 628.617 549.256 629.041 548.409 629.464C551.44 629.825 552.286 631.095 550.95 633.275C553.067 633.698 555.183 634.122 557.301 634.545C554.974 635.496 552.856 636.766 550.95 638.356C551.656 638.843 552.079 639.478 552.22 640.262C549.714 641.515 547.173 642.786 544.598 644.072C542.995 683.459 542.995 722.837 544.598 762.208C547.562 762.208 550.527 762.208 553.49 762.208C552.521 763.184 551.251 763.819 549.679 764.113C581.013 764.536 612.346 764.961 643.68 765.384C637.328 765.807 630.977 766.231 624.626 766.654C622.302 767.001 620.397 768.06 618.909 769.83C618.416 768.651 617.569 767.804 616.369 767.289C614.908 768.463 613.638 768.463 612.558 767.289C611.683 768.378 610.625 769.224 609.382 769.83C605.315 769.033 601.292 768.186 597.315 767.289C596.892 768.136 596.467 768.982 596.044 769.83C594.271 767.255 592.155 766.832 589.693 768.559C586.876 767.325 583.912 766.477 580.801 766.019C578.201 767.346 575.66 767.346 573.179 766.019C571.578 766.348 570.307 767.195 569.369 768.559C568.946 767.712 568.521 766.866 568.098 766.019C563.259 768.458 559.66 771.421 557.301 774.911C560.069 775.534 562.609 775.534 564.923 774.911C564.356 777.284 563.933 779.612 563.652 781.897C591.239 781.953 618.762 782.8 646.22 784.438C657.803 788.183 664.577 796.015 666.545 807.938C663.626 816.163 658.121 818.916 650.031 816.195C650.454 815.772 650.878 815.347 651.301 814.924C643.257 814.712 635.211 814.501 627.166 814.289C544.349 813.965 461.358 814.388 378.192 815.56C381.504 816.599 384.892 817.234 388.354 817.465C385.334 818.114 382.369 818.961 379.463 820.006C380.536 821.985 379.69 823.255 376.922 823.816C373.267 823.438 369.669 823.649 366.125 824.451C363.206 823.734 362.147 822.251 362.949 820.006C360.598 818.942 358.269 817.883 355.962 816.83C355.019 814.364 355.231 812.036 356.598 809.843C355.962 809.208 355.327 808.573 354.692 807.938C354.432 810.901 352.738 813.442 349.611 815.56C348.976 814.289 348.341 813.019 347.706 811.749C351.426 810.289 352.061 808.173 349.611 805.397C349.422 808.927 348.362 809.563 346.435 807.303C346.936 795.498 351.805 785.548 361.044 777.451C361.917 776.394 361.705 775.548 360.408 774.911C351.861 781.228 346.357 789.485 343.895 799.681C344.861 809.244 345.286 818.771 345.165 828.262C352.624 830.213 360.246 831.059 368.03 830.803C386.316 830.619 404.31 830.194 422.017 829.533C426.413 830.445 430.859 831.08 435.355 831.438C427.503 831.656 419.881 832.292 412.49 833.343C391.314 833.556 370.143 833.343 348.976 832.708C341.062 830.915 337.674 825.834 338.814 817.465C337.922 794.674 347.237 777.737 366.76 766.654C368.402 766.032 370.097 765.819 371.841 766.019C377.421 765.964 377.844 766.599 373.111 767.924C374.594 768.559 375.652 769.618 376.287 771.1C377.199 769.892 378.257 769.681 379.463 770.465C377.548 771.528 376.913 773.01 377.557 774.911C379.207 774.319 381.113 774.319 383.273 774.911C383.248 776.998 384.095 778.691 385.814 779.992C385.548 780.736 385.124 781.371 384.544 781.897C399.377 782.285 414.196 782.92 429.003 783.803C456.409 781.55 483.509 782.398 510.301 786.343C466.686 786.131 423.074 786.343 379.463 786.978C369.031 791.348 363.527 799.181 362.949 810.478C462.878 810.478 562.805 810.478 662.734 810.478C662.451 798.975 656.946 791.141 646.22 786.978C608.962 786.343 571.7 786.131 534.436 786.343C534.92 784.525 536.19 783.467 538.247 783.168C535.841 781.769 534.994 780.076 535.706 778.086C534.013 777.239 532.318 776.393 530.625 775.546C534.04 772.131 537.428 768.744 540.787 765.384C540.364 764.113 539.94 762.843 539.517 761.573C540.41 756.294 541.256 751 542.058 745.694C538.789 714.438 538.789 682.892 542.058 651.059C540.618 646.713 538.713 642.692 536.341 638.991C532.786 639.928 532.574 640.986 535.706 642.167C536.038 644.965 535.403 647.718 533.801 650.424C533.378 649.577 532.954 648.731 532.531 647.883C531.998 649.372 531.152 650.642 529.99 651.694C528.942 648.898 529.577 646.57 531.895 644.708C529.189 642.615 526.648 643.038 524.274 645.978C524.854 646.504 525.279 647.139 525.544 647.883C524.495 686.361 523.86 724.894 523.639 763.478C523.842 726.194 522.784 689.356 520.463 652.964C520.354 651.699 520.778 650.641 521.733 649.789C520.529 649.175 519.259 648.964 517.922 649.154C519.232 648.202 520.715 647.356 522.368 646.613C521.973 644.79 522.184 643.097 523.004 641.532C521.536 639.69 519.631 638.42 517.287 637.721C514.791 639.48 512.463 639.268 510.301 637.086C515.13 635.592 515.976 633.264 512.841 630.099C510.678 632.733 509.196 635.696 508.395 638.991C506.618 638.99 504.713 638.566 502.679 637.721C501.621 636.451 500.562 635.181 499.503 633.91C495.719 639.654 492.755 639.654 490.612 633.91C489.871 635.818 488.813 637.511 487.436 638.991C486.691 638.726 486.056 638.302 485.53 637.721C483.642 638.678 483.429 639.736 484.895 640.897C484.274 643.703 483.004 646.031 481.084 647.883C481.3 646.204 480.877 644.722 479.814 643.437C465.74 637.683 453.461 629.426 442.976 618.667C445.561 619.552 448.525 619.552 451.868 618.667C452.747 619.334 453.382 620.181 453.774 621.208C454.026 618.791 455.086 616.886 456.949 615.491C456.526 615.068 456.102 614.644 455.679 614.221C458.391 613.257 460.084 611.351 460.76 608.505C456.555 602.816 452.11 597.312 447.422 591.991C444.334 588.032 443.275 583.798 444.247 579.288C453.485 599.741 468.729 613.926 489.976 621.843C493.651 623.302 497.462 623.937 501.409 623.748C500.996 617.271 501.631 610.92 503.314 604.694C509.666 599.613 516.017 599.613 522.368 604.694C524.052 610.92 524.687 617.271 524.274 623.748C556.611 616.816 576.936 597.339 585.247 565.315ZM510.301 786.343C518.345 786.343 526.391 786.343 534.436 786.343C571.7 786.131 608.962 786.343 646.22 786.978C656.946 791.141 662.451 798.975 662.734 810.478C562.805 810.478 462.878 810.478 362.949 810.478C363.527 799.181 369.031 791.348 379.463 786.978C423.074 786.343 466.686 786.131 510.301 786.343Z" fill="#27AE60"/>
<path opacity="0.974" fill-rule="evenodd" clip-rule="evenodd" d="M553.49 762.208C583.556 761.996 613.62 762.208 643.679 762.844C662.899 765.15 676.237 775.1 683.693 792.695C686.404 803.123 687.251 813.709 686.234 824.452C685.433 829.908 682.258 832.66 676.707 832.709C588.635 833.344 500.563 833.556 412.489 833.344C419.881 832.292 427.503 831.657 435.354 831.438C430.859 831.08 426.413 830.445 422.016 829.533C404.31 830.195 386.315 830.619 368.03 830.803C360.246 831.06 352.624 830.214 345.165 828.263C345.285 818.771 344.861 809.244 343.895 799.682C346.356 789.485 351.86 781.228 360.408 774.911C361.705 775.549 361.917 776.395 361.043 777.452C351.805 785.549 346.936 795.499 346.435 807.303C348.362 809.563 349.421 808.928 349.611 805.398C352.061 808.173 351.426 810.29 347.705 811.749C348.34 813.019 348.976 814.29 349.611 815.56C352.738 813.442 354.431 810.902 354.692 807.938C355.327 808.574 355.962 809.209 356.597 809.844C355.23 812.036 355.018 814.365 355.962 816.83C358.269 817.883 360.597 818.943 362.949 820.006C362.147 822.252 363.205 823.734 366.124 824.452C369.668 823.649 373.267 823.438 376.922 823.817C379.69 823.255 380.536 821.985 379.462 820.006C382.369 818.962 385.333 818.115 388.354 817.465C384.891 817.234 381.504 816.599 378.192 815.56C461.358 814.389 544.349 813.966 627.166 814.29C635.21 814.502 643.256 814.713 651.301 814.925C650.878 815.348 650.454 815.772 650.031 816.195C658.121 818.916 663.625 816.163 666.544 807.938C664.577 796.016 657.802 788.183 646.22 784.438C618.762 782.801 591.239 781.954 563.652 781.898C563.933 779.613 564.356 777.284 564.922 774.911C562.609 775.535 560.069 775.535 557.301 774.911C559.66 771.422 563.258 768.458 568.098 766.019C568.521 766.867 568.945 767.713 569.368 768.56C570.307 767.196 571.577 766.348 573.179 766.019C575.66 767.347 578.201 767.347 580.801 766.019C583.912 766.478 586.875 767.325 589.693 768.56C592.154 766.832 594.271 767.255 596.044 769.83C596.467 768.983 596.891 768.137 597.314 767.29C601.292 768.186 605.315 769.034 609.382 769.83C610.624 769.224 611.682 768.378 612.558 767.29C613.637 768.463 614.908 768.463 616.368 767.29C617.569 767.804 618.416 768.651 618.909 769.83C620.397 768.061 622.302 767.001 624.625 766.654C630.977 766.231 637.328 765.807 643.679 765.384C612.346 764.961 581.013 764.537 549.679 764.114C551.25 763.819 552.521 763.184 553.49 762.208ZM510.301 786.344C518.345 786.344 526.391 786.344 534.436 786.344C571.699 786.132 608.961 786.344 646.22 786.979C656.946 791.142 662.45 798.975 662.733 810.479C562.805 810.479 462.877 810.479 362.949 810.479C363.527 799.181 369.031 791.349 379.462 786.979C423.073 786.344 466.686 786.132 510.301 786.344Z" fill="#27AE60"/>
</svg>
